<?xml version="1.0" encoding="utf-8"?>
<svg width="1440" height="48" viewBox="0 0 1394.45 48" fill="none" preserveAspectRatio="none" xmlns="http://www.w3.org/2000/svg">
  <rect width="1440" height="48" fill="#1D338D"/>
  <path d="M41.5 0L-3 48H50L94.5 0H41.5Z" fill="#2562B4"/>
  <path d="M149 0L104.5 48H157.5L202 0H149Z" fill="#2562B4"/>
  <path d="M256.5 0L212 48H265L309.5 0H256.5Z" fill="#2562B4"/>
  <path d="M364 0L319.5 48H372.5L417 0H364Z" fill="#2562B4"/>
  <path d="M471.5 0L427 48H480L524.5 0H471.5Z" fill="#2562B4"/>
  <path d="M579 0L534.5 48H587.5L632 0H579Z" fill="#2562B4"/>
  <path d="M686.5 0L642 48H695L739.5 0H686.5Z" fill="#2562B4"/>
  <path d="M794 0L749.5 48H802.5L847 0H794Z" fill="#2562B4"/>
  <path d="M901.5 0L857 48H910L954.5 0H901.5Z" fill="#2562B4"/>
  <path d="M1009 0L964.5 48H1017.5L1062 0H1009Z" fill="#2562B4"/>
  <path d="M1116.5 0L1072 48H1125L1169.5 0H1116.5Z" fill="#2562B4"/>
  <path d="M1224 0L1179.5 48H1232.5L1277 0H1224Z" fill="#2562B4"/>
  <path d="M1331.5 0L1287 48H1340L1384.5 0H1331.5Z" fill="#2562B4"/>
  <path d="M1439 0L1394.5 48H1447.5L1492 0H1439Z" fill="#2562B4"/>
</svg>