<svg width="188" height="49" viewBox="0 0 188 49" fill="none" xmlns="http://www.w3.org/2000/svg">
<path d="M23.9793 48.964V34.2171L24.0451 34.2312H48.9301C45.0005 42.9165 35.9653 48.999 25.5132 48.999C25.0092 48.999 24.4906 48.985 23.9793 48.964ZM0 24.4444V24.5777C0.0365205 36.5884 9.13742 46.5927 21.0577 48.6272V0.394828C9.13742 2.41533 0.0365205 12.4336 0 24.4444ZM50.0915 31.0671L23.9793 31.0531L24.0012 31.032L23.9793 16.6009H49.6386C50.5443 19.0704 51.0118 21.7434 51.0118 24.5145C51.0118 26.7665 50.6831 28.9694 50.0915 31.0671ZM48.2727 13.479H24.2058H23.9793V0.0580781C24.4906 0.023 25.0092 0.00195312 25.5132 0.00195312C35.4321 0.00195312 44.0583 5.5022 48.2727 13.479ZM4.828 33.2069H7.01193L7.6839 31.2074L8.36318 33.2069H10.5471L8.78682 34.4697L9.4661 36.4691L7.6839 35.2344L5.92362 36.4691L6.58099 34.4697L4.828 33.2069ZM2.28618 23.3359H4.41897L5.06904 21.3856L5.72641 23.3359H7.8519L6.13544 24.5496L6.7855 26.4929L5.06904 25.3003L3.35258 26.4929L4.00995 24.5496L2.28618 23.3359ZM5.25164 12.9879H7.42096L8.07832 10.806L8.77221 12.9879H10.9561L9.18124 14.2226L9.85322 16.2221L8.10024 14.9873L6.33995 16.2221L7.01193 14.2226L5.25164 12.9879ZM13.0013 5.87403H15.1268L15.7841 3.9307L16.4415 5.87403H18.567L16.8505 7.08773L17.5006 9.01702L15.7841 7.81735L14.0677 9.01702L14.7177 7.08773L13.0013 5.87403ZM12.8771 40.2646H15.0464L15.7257 38.2581L16.3977 40.2646H18.5451L16.8067 41.4783L17.4568 43.4848L15.7257 42.25L13.9654 43.4848L14.6374 41.4783L12.8771 40.2646Z" fill="white"/>
<path d="M64.4075 36.8685L65.1525 37.121C65.0356 37.57 64.8457 37.8928 64.5755 38.0962C64.3052 38.3067 63.9692 38.4119 63.5821 38.4119C63.0854 38.4119 62.6837 38.2435 62.3769 37.9138C62.0263 37.535 61.851 37.0228 61.851 36.3774C61.851 35.6969 62.0263 35.1637 62.3842 34.7778C62.691 34.4411 63.1073 34.2727 63.6259 34.2727C64.0496 34.2727 64.4075 34.399 64.6923 34.6515C64.8969 34.8269 65.0502 35.0935 65.1379 35.4443L64.3856 35.6337C64.3344 35.4163 64.2395 35.2549 64.0934 35.1356C63.9473 35.0234 63.7793 34.9673 63.5894 34.9673C63.3046 34.9673 63.0781 35.0725 62.9028 35.283C62.7202 35.4934 62.6326 35.8372 62.6326 36.3283C62.6326 36.8264 62.7202 37.1842 62.8955 37.4017C63.0708 37.6121 63.2899 37.7174 63.5675 37.7174C63.772 37.7174 63.94 37.6472 64.0934 37.5139C64.2395 37.3806 64.3417 37.1631 64.4075 36.8685ZM70.3895 38.3418V35.0164H69.2647V34.3429H72.2813V35.0164H71.1565V38.3418H70.3895ZM76.5031 38.3418V34.3429H77.7374C78.1903 34.3429 78.4971 34.3639 78.6358 34.399C78.8623 34.4621 79.0449 34.5954 79.191 34.7919C79.337 34.9953 79.4101 35.2549 79.4101 35.5776C79.4101 35.8653 79.3516 36.1038 79.2202 36.3002C79.096 36.4967 78.9353 36.637 78.7454 36.7141C78.5628 36.7913 78.2341 36.8334 77.774 36.8334H77.27V38.3418H76.5031ZM77.27 35.0164V36.1529H77.6936C77.9785 36.1529 78.1684 36.1389 78.2706 36.1038C78.3729 36.0687 78.4532 36.0056 78.519 35.9144C78.5847 35.8232 78.6212 35.7179 78.6212 35.5846C78.6212 35.4513 78.5847 35.3391 78.519 35.2479C78.4532 35.1567 78.3656 35.0935 78.2706 35.0655C78.1684 35.0374 77.9639 35.0164 77.6425 35.0164H77.27ZM87.1889 38.3418H86.3563L86.0276 37.4297H84.5083L84.2016 38.3418H83.3835L84.8589 34.3429H85.6697L87.1889 38.3418ZM85.7792 36.7562L85.2607 35.2759L84.7421 36.7562H85.7792ZM90.9432 38.3418L92.2434 36.2581L91.0674 34.3429H91.9585L92.7181 35.6267L93.4632 34.3429H94.3543L93.1783 36.2862L94.4711 38.3418H93.5508L92.7035 36.9597L91.8636 38.3418H90.9432ZM98.4372 36.3704C98.4372 35.8933 98.5249 35.5004 98.6856 35.1918C98.8463 34.8831 99.0581 34.6515 99.321 34.5042C99.584 34.3499 99.9054 34.2727 100.278 34.2727C100.818 34.2727 101.264 34.4551 101.607 34.8129C101.951 35.1707 102.119 35.6828 102.119 36.3423C102.119 37.0088 101.936 37.535 101.578 37.9138C101.257 38.2435 100.826 38.4119 100.278 38.4119C99.7301 38.4119 99.2991 38.2435 98.985 37.9138C98.6198 37.542 98.4372 37.0228 98.4372 36.3704ZM99.2261 36.3423C99.2261 36.7983 99.3283 37.1421 99.5329 37.3736C99.7301 37.6051 99.9857 37.7174 100.278 37.7174C100.585 37.7174 100.833 37.6051 101.03 37.3736C101.227 37.1491 101.33 36.7983 101.33 36.3283C101.33 35.8653 101.227 35.5215 101.037 35.297C100.848 35.0725 100.592 34.9673 100.278 34.9673C99.9711 34.9673 99.7155 35.0795 99.5182 35.297C99.3283 35.5215 99.2261 35.8723 99.2261 36.3423ZM106.443 34.3429H107.962C108.378 34.3429 108.67 34.3779 108.838 34.4411C109.006 34.5042 109.145 34.6235 109.262 34.7848C109.379 34.9532 109.437 35.1426 109.437 35.3461C109.437 35.5425 109.386 35.7179 109.291 35.8723C109.189 36.0266 109.057 36.1389 108.904 36.216C109.13 36.2862 109.306 36.4055 109.43 36.5738C109.561 36.7352 109.62 36.9457 109.62 37.1842C109.62 37.4718 109.539 37.7174 109.379 37.9208C109.218 38.1243 109.028 38.2435 108.809 38.2927C108.648 38.3277 108.298 38.3418 107.735 38.3418H106.443V34.3429ZM107.209 35.0093V35.9354H107.713C108.02 35.9354 108.203 35.9284 108.276 35.9214C108.407 35.9003 108.51 35.8512 108.583 35.774C108.656 35.6969 108.692 35.5916 108.692 35.4583C108.692 35.3391 108.663 35.2479 108.605 35.1707C108.539 35.1005 108.466 35.0514 108.385 35.0374C108.298 35.0164 108.057 35.0093 107.648 35.0093H107.209ZM107.209 36.5949V37.6683H107.918C108.232 37.6683 108.429 37.6542 108.517 37.6262C108.605 37.5981 108.678 37.542 108.743 37.4578C108.802 37.3736 108.831 37.2684 108.831 37.1421C108.831 37.0158 108.802 36.9036 108.736 36.8194C108.67 36.7352 108.583 36.6791 108.48 36.644C108.371 36.6159 108.159 36.5949 107.83 36.5949H107.209ZM113.849 36.3704C113.849 35.8933 113.929 35.5004 114.097 35.1918C114.258 34.8831 114.47 34.6515 114.733 34.5042C114.996 34.3499 115.317 34.2727 115.69 34.2727C116.23 34.2727 116.676 34.4551 117.019 34.8129C117.362 35.1707 117.53 35.6828 117.53 36.3423C117.53 37.0088 117.348 37.535 116.99 37.9138C116.668 38.2435 116.237 38.4119 115.69 38.4119C115.142 38.4119 114.711 38.2435 114.397 37.9138C114.031 37.542 113.849 37.0228 113.849 36.3704ZM114.638 36.3423C114.638 36.7983 114.74 37.1421 114.944 37.3736C115.142 37.6051 115.39 37.7174 115.69 37.7174C115.996 37.7174 116.245 37.6051 116.442 37.3736C116.639 37.1491 116.734 36.7983 116.734 36.3283C116.734 35.8653 116.639 35.5215 116.449 35.297C116.259 35.0725 116.004 34.9673 115.69 34.9673C115.383 34.9673 115.127 35.0795 114.93 35.297C114.733 35.5215 114.638 35.8723 114.638 36.3423ZM121.861 38.3418V34.3429H124.674V35.0164H122.621V35.9073H124.527V36.5808H122.621V37.6683H124.739V38.3418H121.861ZM130.444 36.3704C130.444 35.8933 130.524 35.5004 130.685 35.1918C130.853 34.8831 131.065 34.6515 131.328 34.5042C131.591 34.3499 131.905 34.2727 132.284 34.2727C132.825 34.2727 133.263 34.4551 133.606 34.8129C133.95 35.1707 134.118 35.6828 134.118 36.3423C134.118 37.0088 133.942 37.535 133.577 37.9138C133.263 38.2435 132.832 38.4119 132.284 38.4119C131.737 38.4119 131.306 38.2435 130.984 37.9138C130.626 37.542 130.444 37.0228 130.444 36.3704ZM131.233 36.3423C131.233 36.7983 131.335 37.1421 131.532 37.3736C131.737 37.6051 131.985 37.7174 132.284 37.7174C132.584 37.7174 132.832 37.6051 133.029 37.3736C133.234 37.1491 133.329 36.7983 133.329 36.3283C133.329 35.8653 133.234 35.5215 133.037 35.297C132.847 35.0725 132.598 34.9673 132.284 34.9673C131.97 34.9673 131.722 35.0795 131.525 35.297C131.328 35.5215 131.233 35.8723 131.233 36.3423ZM138.464 38.3418V34.3429H141.298V35.0164H139.231V35.9354H140.312C140.721 35.9354 141.042 36.0406 141.276 36.2651C141.509 36.4826 141.626 36.7773 141.626 37.1421C141.626 37.4578 141.531 37.7384 141.334 37.977C141.13 38.2225 140.794 38.3418 140.312 38.3418H138.464ZM139.231 36.6089V37.6683H140.034C140.246 37.6683 140.399 37.6542 140.494 37.6262C140.582 37.6051 140.662 37.549 140.735 37.4578C140.808 37.3666 140.845 37.2614 140.845 37.1491C140.845 36.7913 140.582 36.6089 140.071 36.6089H139.231ZM150.53 37.6683H150.866V39.2117H150.238V38.3418H146.009V34.3429H146.768V37.6683H147.879V34.3429H148.638V37.6683H149.77V34.3429H150.53V37.6683ZM155.124 38.3418V34.3429H157.944V35.0164H155.891V35.9073H157.798V36.5808H155.891V37.6683H158.009V38.3418H155.124ZM164.817 36.8685L165.562 37.121C165.445 37.57 165.255 37.8928 164.985 38.0962C164.715 38.3067 164.379 38.4119 163.984 38.4119C163.495 38.4119 163.093 38.2435 162.786 37.9138C162.436 37.535 162.26 37.0228 162.26 36.3774C162.26 35.6969 162.436 35.1637 162.786 34.7778C163.1 34.4411 163.517 34.2727 164.035 34.2727C164.459 34.2727 164.817 34.399 165.102 34.6515C165.306 34.8269 165.46 35.0935 165.547 35.4443L164.795 35.6337C164.744 35.4163 164.649 35.2549 164.503 35.1356C164.357 35.0234 164.189 34.9673 163.999 34.9673C163.714 34.9673 163.487 35.0725 163.312 35.283C163.13 35.4934 163.042 35.8372 163.042 36.3283C163.042 36.8264 163.13 37.1842 163.305 37.4017C163.48 37.6121 163.699 37.7174 163.977 37.7174C164.181 37.7174 164.349 37.6472 164.503 37.5139C164.649 37.3806 164.751 37.1631 164.817 36.8685ZM170.799 38.3418V35.0164H169.674V34.3429H172.683V35.0164H171.566V38.3418H170.799ZM176.912 34.3429H178.432C178.848 34.3429 179.14 34.3779 179.308 34.4411C179.476 34.5042 179.615 34.6235 179.732 34.7848C179.849 34.9532 179.907 35.1426 179.907 35.3461C179.907 35.5425 179.856 35.7179 179.754 35.8723C179.659 36.0266 179.527 36.1389 179.374 36.216C179.593 36.2862 179.776 36.4055 179.9 36.5738C180.024 36.7352 180.09 36.9457 180.09 37.1842C180.09 37.4718 180.009 37.7174 179.849 37.9208C179.681 38.1243 179.491 38.2435 179.272 38.2927C179.118 38.3277 178.76 38.3418 178.205 38.3418H176.912V34.3429ZM177.679 35.0093V35.9354H178.183C178.483 35.9354 178.673 35.9284 178.746 35.9214C178.87 35.9003 178.972 35.8512 179.053 35.774C179.126 35.6969 179.162 35.5916 179.162 35.4583C179.162 35.3391 179.133 35.2479 179.074 35.1707C179.009 35.1005 178.936 35.0514 178.855 35.0374C178.768 35.0164 178.527 35.0093 178.118 35.0093H177.679ZM177.679 36.5949V37.6683H178.388C178.702 37.6683 178.899 37.6542 178.987 37.6262C179.074 37.5981 179.147 37.542 179.206 37.4578C179.272 37.3736 179.301 37.2684 179.301 37.1421C179.301 37.0158 179.264 36.9036 179.206 36.8194C179.14 36.7352 179.053 36.6791 178.943 36.644C178.841 36.6159 178.622 36.5949 178.293 36.5949H177.679ZM184.319 36.3704C184.319 35.8933 184.399 35.5004 184.56 35.1918C184.728 34.8831 184.94 34.6515 185.203 34.5042C185.465 34.3499 185.78 34.2727 186.159 34.2727C186.7 34.2727 187.138 34.4551 187.481 34.8129C187.825 35.1707 188 35.6828 188 36.3423C188 37.0088 187.817 37.535 187.452 37.9138C187.138 38.2435 186.707 38.4119 186.159 38.4119C185.612 38.4119 185.181 38.2435 184.859 37.9138C184.501 37.542 184.319 37.0228 184.319 36.3704ZM185.108 36.3423C185.108 36.7983 185.21 37.1421 185.414 37.3736C185.612 37.6051 185.86 37.7174 186.159 37.7174C186.459 37.7174 186.714 37.6051 186.912 37.3736C187.109 37.1491 187.204 36.7983 187.204 36.3283C187.204 35.8653 187.109 35.5215 186.919 35.297C186.722 35.0725 186.473 34.9673 186.159 34.9673C185.845 34.9673 185.597 35.0795 185.4 35.297C185.203 35.5215 185.108 35.8723 185.108 36.3423Z" fill="white"/>
<path d="M61.851 12.7769H75.5608V15.7796H65.5834V19.7224H74.8669V22.711H65.5834V27.5518H75.9187V30.5404H61.851V12.7769ZM82.6969 22.7952V27.5518H86.159C87.503 27.5518 88.3576 27.5097 88.7155 27.4395C89.2706 27.3413 89.7234 27.1028 90.074 26.731C90.4246 26.3521 90.5999 25.854 90.5999 25.2226C90.5999 24.6894 90.4612 24.2334 90.1909 23.8616C89.928 23.4968 89.5335 23.2231 89.0296 23.0548C88.5183 22.8794 87.4153 22.7952 85.7135 22.7952H82.6969ZM82.6969 15.7305V19.8416H85.1438C86.6046 19.8416 87.5103 19.8206 87.8609 19.7785C88.5037 19.7083 89.0003 19.4979 89.3655 19.1471C89.7307 18.7893 89.9133 18.3333 89.9133 17.758C89.9133 17.2108 89.76 16.7618 89.4459 16.418C89.1245 16.0742 88.657 15.8638 88.0362 15.7936C87.6637 15.7515 86.6046 15.7305 84.8443 15.7305H82.6969ZM78.9645 12.7769H86.3563C87.8244 12.7769 88.9127 12.833 89.6358 12.9523C90.3516 13.0715 90.9944 13.3171 91.5641 13.6819C92.1338 14.0537 92.6013 14.5518 92.9811 15.1692C93.3609 15.7866 93.5508 16.4811 93.5508 17.2458C93.5508 18.0807 93.3171 18.8454 92.8496 19.5399C92.3821 20.2345 91.7467 20.7536 90.9505 21.1044C92.0754 21.4201 92.9445 21.9533 93.5508 22.711C94.157 23.4757 94.4565 24.3667 94.4565 25.391C94.4565 26.1978 94.2666 26.9835 93.8722 27.7482C93.4777 28.5129 92.9445 29.1233 92.2726 29.5793C91.5933 30.0353 90.7606 30.3159 89.7673 30.4212C89.1391 30.4843 87.6418 30.5264 85.2606 30.5404H78.9645V12.7769ZM101.22 15.7796V20.8238H103.258C104.733 20.8238 105.719 20.7326 106.216 20.5432C106.713 20.3608 107.1 20.0661 107.385 19.6732C107.662 19.2734 107.801 18.8173 107.801 18.2912C107.801 17.6457 107.604 17.1125 107.209 16.6916C106.815 16.2707 106.311 16.0111 105.705 15.9059C105.267 15.8217 104.368 15.7796 103.024 15.7796H101.22ZM97.4877 30.5404V12.7769H103.477C105.749 12.7769 107.224 12.8681 107.918 13.0435C108.977 13.3101 109.868 13.8854 110.577 14.7834C111.292 15.6743 111.65 16.8249 111.65 18.2421C111.65 19.3295 111.446 20.2485 111.037 20.9922C110.62 21.7358 110.095 22.3181 109.459 22.7461C108.831 23.167 108.181 23.4476 107.524 23.588C106.632 23.7563 105.34 23.8405 103.652 23.8405H101.22V30.5404H97.4877ZM118.173 21.6446C118.173 23.6581 118.655 25.1805 119.626 26.2188C120.591 27.2571 121.825 27.7763 123.308 27.7763C124.798 27.7763 126.017 27.2641 126.974 26.2328C127.931 25.2016 128.406 23.6581 128.406 21.5955C128.406 19.561 127.946 18.0456 127.011 17.0424C126.083 16.0392 124.849 15.541 123.308 15.541C121.766 15.541 120.532 16.0462 119.59 17.0634C118.64 18.0737 118.173 19.6031 118.173 21.6446ZM114.324 21.7709C114.324 19.9609 114.608 18.4385 115.171 17.2108C115.595 16.3057 116.164 15.4919 116.895 14.7763C117.625 14.0537 118.421 13.5205 119.283 13.1768C120.437 12.7067 121.766 12.4752 123.271 12.4752C125.996 12.4752 128.179 13.289 129.816 14.9096C131.452 16.5302 132.27 18.7893 132.27 21.6867C132.27 24.5491 131.452 26.7941 129.83 28.4147C128.209 30.0353 126.039 30.8421 123.322 30.8421C120.569 30.8421 118.385 30.0423 116.763 28.4287C115.142 26.8151 114.324 24.5982 114.324 21.7709ZM154.029 30.6807V12.9102H157.761V19.9048H165.072V12.9102H168.812V30.6807H165.072V22.9074H157.761V30.6807H154.029ZM184.377 24.1422L188 25.2507C187.445 27.187 186.517 28.6252 185.232 29.5723C183.939 30.5124 182.295 30.9824 180.316 30.9824C177.855 30.9824 175.839 30.1756 174.261 28.562C172.676 26.9484 171.887 24.7455 171.887 21.9533C171.887 18.9927 172.683 16.6986 174.276 15.064C175.861 13.4293 177.95 12.6085 180.542 12.6085C182.807 12.6085 184.64 13.254 186.057 14.5378C186.897 15.2955 187.525 16.3829 187.949 17.8071L184.253 18.656C184.034 17.7369 183.574 17.0073 182.88 16.4741C182.186 15.9409 181.346 15.6743 180.353 15.6743C178.979 15.6743 177.869 16.1444 177.015 17.0915C176.16 18.0386 175.736 19.568 175.736 21.6867C175.736 23.9317 176.153 25.5313 176.993 26.4854C177.84 27.4395 178.928 27.9166 180.28 27.9166C181.266 27.9166 182.12 27.6149 182.836 27.0046C183.552 26.4012 184.063 25.4471 184.377 24.1422ZM146.6 30.5404V18.9577L139.143 30.5404H135.396V12.7769H138.865V24.6403L146.44 12.7769H150.07V30.5404H146.6Z" fill="white"/>
</svg>
