<?xml version="1.0" encoding="utf-8"?>
<svg width="189" height="279" viewBox="0 0 189 279" fill="none" xmlns="http://www.w3.org/2000/svg">
  <path d="M 120 153.811 C 120 217.933 81.319 255.824 23.663 259.937 C 20.177 260.186 22.953 259.904 21.971 137.923 C 21.23 45.934 20.466 47.483 24.122 47.851 C 77.991 53.262 120 98.731 120 153.811 Z" fill="#D50A0A"/>
  <path d="M21.5 41.3115C17.8982 40.1248 16.5558 33.8052 15.0013 34.3113C13.4467 34.8174 19.0287 32.0868 22.5013 32.3113C25.264 32.4492 26.8013 32.6613 29.5013 33.3113C34.1853 35.8197 36.412 37.4592 39.5013 40.8113C42.2221 44.1257 43.5843 46.0272 44.5013 49.8113C46.1209 59.5122 45.1243 63.1417 42.5013 68.8113C39.5553 73.411 37.4579 75.5823 33.0013 78.8113C28.9742 79.7019 26.1756 79.7227 22 78.8113L19.5 67.3115L22.5 58.3115L21.5 50.3115C23.169 50.8562 25.1018 42.4982 21.5 41.3115Z" fill="white"/>
  <path d="M34.7661 218.325C31.1644 217.138 29.8219 210.818 28.2674 211.325C26.7128 211.831 32.2949 209.1 35.7674 209.325C38.5301 209.462 40.0674 209.675 42.7674 210.325C47.4514 212.833 49.9107 213.959 53 217.311C55.7208 220.626 56.8504 223.04 57.7674 226.825C59.387 236.525 60.123 241.142 57.5 246.811C55.1772 251.879 52.0075 256.496 47 259.311C42.5004 262.227 32.6621 261.905 29 258.811L32.7661 244.325L35.7661 235.325L34.7661 227.325C36.4351 227.87 38.3679 219.511 34.7661 218.325Z" fill="white"/>
  <g filter="url(#filter0_d)">
    <path fill-rule="evenodd" clip-rule="evenodd" d="M27 257.062C17.6112 257.062 10 249.451 10 240.062L10 229.062C10 221.051 15.5413 214.334 23 212.536L23 200.519C23 199.337 24.0547 198.34 25.1471 198.792C26.8264 199.488 27.8534 201.015 28.9113 204.388C28.9704 204.577 29 204.776 29 204.973V212.062H31C40.3888 212.062 48 219.673 48 229.062V240.062C48 249.451 40.3888 257.062 31 257.062H27Z" fill="#D50A0A"/>
  </g>
  <path d="M169.5 24.3115C152.099 8.25691 141.653 3.85351 122 2.81146L162 78.3115L170 102.311L179.5 103.811C184.147 91.4361 186.163 84.028 186 67.8115C185.615 49.9063 181.976 40.3963 169.5 24.3115Z" fill="#D50A0A"/>
  <path d="M106.5 0.811645C95.1868 3.53133 90.7685 7.56308 86 18.8116L155.5 84.8116C164.409 76.7841 168.006 72.3894 171 64.8116C172.242 57.4998 172.143 53.5404 170 46.8116C156.659 20.2348 145.09 12.3999 122.5 1.81165C116.66 -0.287646 113.234 -0.481042 106.5 0.811645Z" fill="#EA1414"/>
  <circle cx="177" cy="109.311" r="12" fill="white" style="fill-rule: evenodd; paint-order: fill; stroke: rgb(223, 223, 223);"/>
  <ellipse cx="68" cy="33.8115" rx="8" ry="6.5" fill="#F4C6B3"/>
  <path d="M81 17.8115C86.6226 16.1596 90.3845 16.1692 97.5 16.8115C122.538 32.4123 134.789 44.9711 155.5 69.8115L158.5 76.3115C158.358 84.0879 158.077 87.5901 156.5 89.3115C151.944 95.8703 149.037 98.901 143 102.812C139.47 116.165 137.355 123.659 128.5 137.312C125.131 141.69 122.856 143.583 118 145.812C114.486 146.419 112.515 146.655 109 145.812C105.283 145.703 104.131 145.264 102.5 144.312C98.9957 150.309 96.53 153.031 90.5 155.812C83.8436 158.203 80.1476 158.19 73.5 155.812C69.0226 154.465 66.9823 152.736 64 148.312C59.0114 149.529 56.2523 149.772 51.5 148.312C41.3392 143.596 36.9727 139.118 30.5 129.312C28.599 125.147 27.7889 122.288 27.5 114.812C25.622 113.967 24.623 112.767 23 108.812V77.8115L37 47.8115C49.0801 41.4621 55.8693 38.6076 68 35.3115C70.5166 29.4139 73.3588 25.572 81 17.8115Z" fill="white"/>
  <path d="M77.2329 31.4287C84.0342 29.7899 87.5316 30.0923 93.3607 31.4411C93.4683 31.466 93.5749 31.5106 93.6685 31.5693C118.506 47.1471 126.732 57.6671 142.912 75.8522C142.986 75.9352 143.047 76.0315 143.089 76.1341L145.495 81.9073C145.515 81.9551 145.531 82.0054 145.543 82.0559C146.914 87.7121 146.688 90.9998 145.562 96.7884C145.538 96.9133 145.488 97.0359 145.419 97.1426C141.146 103.722 138.116 106.801 131.525 110.979C129.416 112.219 128.358 112.001 126.605 111.024C126.552 110.995 126.5 110.959 126.454 110.92C101.409 90.0811 86.3428 80.1652 64.6692 53.1593C64.5755 53.0425 64.5068 52.903 64.4739 52.7569C63.8649 50.0585 63.8166 48.3457 64.4827 45.1769C64.51 45.0471 64.5649 44.9216 64.6409 44.8128C68.6352 39.0937 71.1786 36.0109 76.8555 31.6101C76.9659 31.5245 77.0972 31.4614 77.2329 31.4287Z" fill="#F4C6B3"/>
  <rect x="100.626" y="53.3115" width="6.88998" height="14.9283" rx="3" transform="rotate(45.3826 100.626 53.3115)" fill="black"/>
  <rect x="99.9999" y="56.3115" width="2" height="2" fill="white"/>
  <path d="M113.068 49.5765C114.423 52.9875 114.193 54.9004 113.068 58.3115C110.59 55.2931 109.176 53.6016 105.934 50.6041C102.262 47.8846 100.034 46.5279 95.2313 44.9521C91.5158 43.7263 88.9633 43.2262 83.0001 42.8968C85.6946 39.9543 87.3845 38.8164 90.6446 37.7586C94.1529 37.1657 96.1747 37.1591 99.818 37.7586C105.205 40.2655 112.459 48.1742 113.068 49.5765Z" fill="white"/>
  <path d="M127.645 63.2432C124.269 61.8889 122.376 62.1182 119 63.2432C121.987 65.7217 123.661 67.1354 126.628 70.378C129.319 74.0497 130.662 76.2774 132.221 81.0803C133.434 84.7958 133.929 87.3483 134.255 93.3115C137.167 90.617 138.293 88.9271 139.34 85.667C139.978 82.1203 140.434 79.7467 139.34 76.4936C138.765 74.7814 132.628 67.3305 127.645 63.2432Z" fill="white"/>
  <rect x="119.626" y="71.3115" width="6.88998" height="14.9283" rx="3" transform="rotate(45.3826 119.626 71.3115)" fill="black"/>
  <rect x="119" y="74.3115" width="2" height="2" fill="white"/>
  <path fill-rule="evenodd" clip-rule="evenodd" d="M51.3842 52.7677C56.0381 58.5931 59.2717 62.6406 65.5002 63.8115C69.8657 64.0144 72.7835 64.4796 77.9705 65.3067L78.0002 65.3115C84.4547 67.8803 86.6432 70.009 89.5002 74.3115L91.0002 84.8115C91.1809 85.3425 91.2873 85.8415 91.2969 86.3314C91.9142 86.2639 92.5348 86.3713 93.2087 86.6039L103.387 88.0789C107.557 90.8883 109.621 93.0402 112.111 99.3871L112.115 99.4163C112.917 104.517 113.368 107.386 113.565 111.679C114.699 117.803 118.623 120.983 124.27 125.559C125.181 126.298 126.138 127.073 127.135 127.903C122.041 128.685 115.993 128.147 114.534 127.903C113.075 127.66 107.95 126.134 106.295 125.445C99.6022 121.679 96.7311 119.522 92.724 115.612C88.481 110.688 86.3532 107.816 84.4847 101.845C83.8352 97.8235 83.9013 96.0486 84.3134 93.851C81.7322 94.3925 79.9976 94.5483 75.5002 93.8115C69.4282 91.8839 66.508 89.6887 61.5002 85.3115C57.5236 81.1776 55.3301 78.2157 51.5002 71.3115C50.7997 69.6036 49.248 64.3165 49.0002 62.8115C48.7524 61.3064 48.2054 55.0672 49.0002 49.8115C49.8443 50.8402 50.6328 51.8271 51.3842 52.7677Z" fill="white"/>
  <path d="M65.5002 63.8115L65.4078 64.3029L65.4421 64.3093L65.477 64.3109L65.5002 63.8115ZM51.3842 52.7677L50.9936 53.0798L51.3842 52.7677ZM77.9705 65.3067L78.0492 64.813L78.0492 64.813L77.9705 65.3067ZM78.0002 65.3115L78.1851 64.8469L78.1336 64.8264L78.0789 64.8177L78.0002 65.3115ZM89.5002 74.3115L89.9952 74.2408L89.9792 74.129L89.9167 74.0349L89.5002 74.3115ZM91.0002 84.8115L90.5052 84.8822L90.5118 84.9284L90.5268 84.9725L91.0002 84.8115ZM91.2969 86.3314L90.797 86.3411L90.8076 86.8879L91.3512 86.8284L91.2969 86.3314ZM93.2087 86.6039L93.0455 87.0765L93.0902 87.0919L93.137 87.0987L93.2087 86.6039ZM103.387 88.0789L103.666 87.6642L103.571 87.6004L103.458 87.584L103.387 88.0789ZM112.111 99.3871L112.604 99.3095L112.596 99.2554L112.576 99.2045L112.111 99.3871ZM112.115 99.4163L111.621 99.4939L111.621 99.4939L112.115 99.4163ZM113.565 111.679L113.065 111.702L113.067 111.736L113.073 111.77L113.565 111.679ZM124.27 125.559L124.584 125.171L124.27 125.559ZM127.135 127.903L127.211 128.398L128.308 128.229L127.455 127.519L127.135 127.903ZM114.534 127.903L114.616 127.41L114.534 127.903ZM106.295 125.445L106.049 125.881L106.075 125.895L106.103 125.907L106.295 125.445ZM92.724 115.612L92.3452 115.938L92.3593 115.955L92.3748 115.97L92.724 115.612ZM84.4847 101.845L83.9911 101.925L83.9968 101.961L84.0076 101.995L84.4847 101.845ZM84.3134 93.851L84.8048 93.9431L84.9426 93.2081L84.2107 93.3616L84.3134 93.851ZM75.5002 93.8115L75.3489 94.288L75.3835 94.299L75.4193 94.3049L75.5002 93.8115ZM61.5002 85.3115L61.1398 85.6581L61.1548 85.6737L61.1711 85.6879L61.5002 85.3115ZM51.5002 71.3115L51.0376 71.5012L51.0487 71.5283L51.063 71.554L51.5002 71.3115ZM49.0002 49.8115L49.3867 49.4943L48.6738 48.6255L48.5058 49.7367L49.0002 49.8115ZM65.5926 63.3201C59.5745 62.1888 56.4494 58.3068 51.7749 52.4556L50.9936 53.0798C55.6269 58.8795 58.9688 63.0924 65.4078 64.3029L65.5926 63.3201ZM78.0492 64.813C72.8634 63.9861 69.9202 63.5163 65.5234 63.312L65.477 64.3109C69.8111 64.5124 72.7035 64.9732 77.8917 65.8005L78.0492 64.813ZM78.0789 64.8177L78.0492 64.813L77.8917 65.8005L77.9214 65.8052L78.0789 64.8177ZM89.9167 74.0349C88.4771 71.8669 87.1829 70.211 85.4147 68.7734C83.6486 67.3376 81.4362 66.1408 78.1851 64.8469L77.8153 65.776C81.0187 67.0509 83.1278 68.2029 84.7838 69.5493C86.4377 70.8939 87.6663 72.4536 89.0837 74.5881L89.9167 74.0349ZM91.4952 84.7408L89.9952 74.2408L89.0052 74.3822L90.5052 84.8822L91.4952 84.7408ZM91.7968 86.3216C91.7859 85.7657 91.6654 85.2142 91.4735 84.6504L90.5268 84.9725C90.6964 85.4708 90.7887 85.9173 90.797 86.3411L91.7968 86.3216ZM91.3512 86.8284C91.872 86.7715 92.4154 86.859 93.0455 87.0765L93.3718 86.1312C92.6541 85.8835 91.9564 85.7563 91.2425 85.8344L91.3512 86.8284ZM93.137 87.0987L103.315 88.5737L103.458 87.584L93.2804 86.1091L93.137 87.0987ZM103.107 88.4936C105.176 89.8869 106.686 91.0941 107.989 92.7191C109.293 94.3466 110.409 96.4198 111.645 99.5697L112.576 99.2045C111.322 96.0075 110.161 93.8313 108.769 92.0937C107.374 90.3537 105.768 89.0803 103.666 87.6642L103.107 88.4936ZM111.617 99.4647L111.621 99.4939L112.609 99.3387L112.604 99.3095L111.617 99.4647ZM111.621 99.4939C112.423 104.596 112.87 107.44 113.065 111.702L114.064 111.656C113.866 107.332 113.411 104.438 112.609 99.3387L111.621 99.4939ZM113.073 111.77C114.247 118.103 118.332 121.391 123.955 125.948L124.584 125.171C118.913 120.575 115.152 117.503 114.056 111.588L113.073 111.77ZM123.955 125.948C124.867 126.687 125.821 127.46 126.815 128.288L127.455 127.519C126.455 126.687 125.496 125.909 124.584 125.171L123.955 125.948ZM127.059 127.409C122.031 128.181 116.039 127.648 114.616 127.41L114.451 128.397C115.947 128.646 122.05 129.189 127.211 128.398L127.059 127.409ZM114.616 127.41C113.922 127.294 112.306 126.862 110.631 126.362C108.96 125.864 107.288 125.317 106.487 124.984L106.103 125.907C106.957 126.262 108.675 126.823 110.345 127.32C112.011 127.817 113.686 128.269 114.451 128.397L114.616 127.41ZM106.54 125.009C99.8774 121.26 97.0433 119.128 93.0732 115.254L92.3748 115.97C96.4189 119.916 99.3269 122.098 106.049 125.881L106.54 125.009ZM93.1028 115.286C88.8795 110.384 86.8011 107.573 84.9619 101.696L84.0076 101.995C85.9053 108.059 88.0826 110.991 92.3452 115.938L93.1028 115.286ZM84.9783 101.766C84.3353 97.7841 84.4061 96.0695 84.8048 93.9431L83.8219 93.7588C83.3965 96.0277 83.3351 97.8629 83.9911 101.925L84.9783 101.766ZM75.4193 94.3049C77.6815 94.6755 79.2714 94.8256 80.6309 94.8106C81.9957 94.7955 83.1106 94.6142 84.416 94.3403L84.2107 93.3616C82.935 93.6293 81.8919 93.7966 80.6198 93.8106C79.3424 93.8247 77.8163 93.6843 75.581 93.318L75.4193 94.3049ZM61.1711 85.6879C66.2015 90.0849 69.1825 92.3304 75.3489 94.288L75.6515 93.3349C69.674 91.4373 66.8146 89.2926 61.8292 84.935L61.1711 85.6879ZM51.063 71.554C54.9095 78.4881 57.1275 81.487 61.1398 85.6581L61.8605 84.9648C57.9197 80.8681 55.7508 77.9432 51.9374 71.0689L51.063 71.554ZM48.5068 62.8927C48.6365 63.6805 49.0956 65.4077 49.6007 67.1264C50.107 68.8492 50.6764 70.6206 51.0376 71.5012L51.9628 71.1217C51.6235 70.2944 51.0668 68.5684 50.5601 66.8444C50.0523 65.1164 49.6116 63.4475 49.4935 62.7302L48.5068 62.8927ZM48.5058 49.7367C47.7012 55.0577 48.2531 61.3516 48.5068 62.8927L49.4935 62.7302C49.2517 61.2612 48.7097 55.0766 49.4946 49.8862L48.5058 49.7367ZM51.7749 52.4556C51.0237 51.5153 50.2332 50.5259 49.3867 49.4943L48.6137 50.1286C49.4554 51.1544 50.2419 52.1389 50.9936 53.0798L51.7749 52.4556Z" fill="#F5F5F5"/>
  <circle cx="96" cy="84.3115" r="12" fill="#EAB59F"/>
  <circle cx="103.5" cy="84.8115" r="2.5" fill="#ECC1B1"/>
  <circle cx="80" cy="98.3115" r="2" fill="black"/>
  <g filter="url(#filter1_d)">
    <path fill-rule="evenodd" clip-rule="evenodd" d="M16 34.3115C6.61116 34.3115 -1 41.9226 -1 51.3115V62.3115C-1 71.7003 6.61116 79.3115 16 79.3115H20C21.0237 79.3115 22.0262 79.221 23 79.0476V84.1786C23 85.3337 23.9914 86.3029 25.1086 86.0092C26.7542 85.5765 27.7759 84.6361 28.8052 82.5776C28.9365 82.3151 29 82.0229 29 81.7293V76.7364C33.8043 73.7325 37 68.3952 37 62.3115V51.3115C37 41.9226 29.3888 34.3115 20 34.3115H16Z" fill="#D50A0A"/>
  </g>
  <defs>
    <filter id="filter0_d" x="8" y="198.681" width="40" height="60.3815" filterUnits="userSpaceOnUse" color-interpolation-filters="sRGB">
      <feFlood flood-opacity="0" result="BackgroundImageFix"/>
      <feColorMatrix in="SourceAlpha" type="matrix" values="0 0 0 0 0 0 0 0 0 0 0 0 0 0 0 0 0 0 127 0"/>
      <feOffset dx="-1" dy="1"/>
      <feGaussianBlur stdDeviation="0.5"/>
      <feColorMatrix type="matrix" values="0 0 0 0 0 0 0 0 0 0 0 0 0 0 0 0 0 0 0.25 0"/>
      <feBlend mode="normal" in2="BackgroundImageFix" result="effect1_dropShadow"/>
      <feBlend mode="normal" in="SourceGraphic" in2="effect1_dropShadow" result="shape"/>
    </filter>
    <filter id="filter1_d" x="-3" y="34.3115" width="40" height="53.7508" filterUnits="userSpaceOnUse" color-interpolation-filters="sRGB">
      <feFlood flood-opacity="0" result="BackgroundImageFix"/>
      <feColorMatrix in="SourceAlpha" type="matrix" values="0 0 0 0 0 0 0 0 0 0 0 0 0 0 0 0 0 0 127 0"/>
      <feOffset dx="-1" dy="1"/>
      <feGaussianBlur stdDeviation="0.5"/>
      <feColorMatrix type="matrix" values="0 0 0 0 0 0 0 0 0 0 0 0 0 0 0 0 0 0 0.25 0"/>
      <feBlend mode="normal" in2="BackgroundImageFix" result="effect1_dropShadow"/>
      <feBlend mode="normal" in="SourceGraphic" in2="effect1_dropShadow" result="shape"/>
    </filter>
  </defs>
  <path style="fill: rgb(216, 216, 216); stroke: rgb(0, 0, 0);" d="M 10.239 193.682"/>
</svg>