<?xml version="1.0" encoding="utf-8"?>
<svg width="1440" height="711" viewBox="0 0 1440 711" fill="none" xmlns="http://www.w3.org/2000/svg">
  <path fill-rule="evenodd" clip-rule="evenodd" d="M 677.713 1.288 L 689.092 20.302 L 683.403 20.302 L 695.299 38.288 L 687.023 38.288 L 699.437 59.358 L 683.403 59.358 L 683.403 72.53 C 690.975 72.371 698.664 72.34 706.471 72.453 L 706.471 69.045 L 699.437 71.462 L 704.403 62.198 L 701.506 62.802 L 705.644 54.948 L 703.368 55.552 L 708.747 46.288 L 713.299 53.74 L 711.023 53.74 L 715.782 60.788 L 712.471 60.788 L 717.437 69.045 L 711.023 69.045 L 711.023 72.535 C 713.978 72.599 716.949 72.683 719.937 72.788 L 719.937 159.288 L -87.063 159.288 L -87.063 71.788 C -80.774 72.397 -74.495 73.034 -68.23 73.697 L -68.23 65.17 L -78.563 65.17 L -70.563 51.788 L -75.896 51.788 L -68.23 40.365 L -71.896 40.365 L -64.563 28.288 L -55.896 43.302 L -59.563 42.323 L -52.896 55.052 L -57.563 54.073 L -49.563 69.087 L -60.896 65.17 L -60.896 74.486 C -48.713 75.818 -36.585 77.245 -24.537 78.748 L -32.563 77.288 L -32.563 63.788 L -48.063 63.788 L -36.063 43.288 L -44.063 43.288 L -32.563 25.788 L -38.063 25.788 L -27.063 7.288 L -14.063 30.288 L -19.563 28.788 L -9.563 48.288 L -16.563 46.788 L -4.563 69.788 L -21.563 63.788 L -21.563 79.12 C -13.721 80.108 -5.914 81.126 1.851 82.171 L 1.851 78.045 L -4.563 78.045 L 0.403 69.788 L -2.908 69.788 L 1.851 62.74 L -0.425 62.74 L 4.127 55.288 L 9.506 64.552 L 7.23 63.948 L 11.368 71.802 L 8.471 71.198 L 13.437 80.462 L 6.403 78.045 L 6.403 82.786 C 14.239 83.853 22.031 84.944 29.77 86.055 L 29.77 80.17 L 19.437 80.17 L 27.437 66.788 L 22.104 66.788 L 29.77 55.365 L 26.104 55.365 L 33.437 43.288 L 42.104 58.302 L 38.437 57.323 L 45.104 70.052 L 40.437 69.073 L 48.437 84.087 L 37.104 80.17 L 37.104 87.116 C 46.636 88.505 56.085 89.921 65.437 91.352 L 65.437 78.788 L 49.937 78.788 L 61.937 58.288 L 53.937 58.288 L 65.437 40.788 L 59.937 40.788 L 70.937 22.288 L 83.937 45.288 L 78.437 43.788 L 88.437 63.288 L 81.437 61.788 L 93.437 84.788 L 76.437 78.788 L 76.437 93.05 C 84.318 94.277 92.126 95.511 99.851 96.748 L 99.851 93.045 L 93.437 93.045 L 98.402 84.788 L 95.092 84.788 L 99.851 77.74 L 97.575 77.74 L 102.127 70.288 L 107.506 79.552 L 105.23 78.948 L 109.368 86.802 L 106.471 86.198 L 111.437 95.462 L 104.403 93.045 L 104.403 97.478 C 112.967 98.855 121.426 100.233 129.77 101.602 L 129.77 98.17 L 119.437 98.17 L 127.437 84.788 L 122.104 84.788 L 129.77 73.365 L 126.104 73.365 L 133.437 61.288 L 142.104 76.302 L 138.437 75.323 L 145.104 88.052 L 140.437 87.073 L 148.437 102.087 L 137.104 98.17 L 137.104 102.807 C 146.605 104.373 155.948 105.923 165.117 107.444 L 165.132 107.447 L 165.133 107.447 L 165.133 107.447 L 165.134 107.447 L 165.134 107.447 L 165.437 107.497 L 165.437 96.788 L 149.937 96.788 L 161.937 76.288 L 153.937 76.288 L 165.437 58.788 L 159.937 58.788 L 170.937 40.288 L 183.937 63.288 L 178.437 61.788 L 188.437 81.288 L 181.437 79.788 L 193.437 102.788 L 176.437 96.788 L 176.437 109.321 C 184.387 110.639 192.196 111.929 199.851 113.182 L 199.851 111.045 L 193.437 111.045 L 198.403 102.788 L 195.092 102.788 L 199.851 95.74 L 197.575 95.74 L 202.127 88.288 L 207.506 97.552 L 205.23 96.948 L 209.368 104.802 L 206.471 104.198 L 211.437 113.462 L 204.403 111.045 L 204.403 113.926 C 212.02 115.169 219.48 116.373 226.77 117.528 L 226.77 113.17 L 216.437 113.17 L 224.437 99.788 L 219.104 99.788 L 226.77 88.365 L 223.104 88.365 L 230.437 76.288 L 239.104 91.302 L 235.437 90.323 L 242.104 103.052 L 237.437 102.073 L 245.437 117.087 L 234.104 113.17 L 234.104 118.682 C 243.881 120.21 253.336 121.642 262.437 122.953 L 262.437 111.788 L 246.937 111.788 L 258.937 91.288 L 250.937 91.288 L 262.437 73.788 L 256.937 73.788 L 267.937 55.288 L 280.937 78.288 L 275.437 76.788 L 285.437 96.288 L 278.437 94.788 L 290.437 117.788 L 273.437 111.788 L 273.437 124.501 C 281.562 125.616 289.374 126.619 296.851 127.492 L 296.851 126.045 L 290.437 126.045 L 295.403 117.788 L 292.092 117.788 L 296.851 110.739 L 294.575 110.739 L 299.127 103.288 L 304.506 112.552 L 302.23 111.948 L 306.368 119.802 L 303.471 119.198 L 308.437 128.462 L 301.403 126.045 L 301.403 128.011 C 309.26 128.888 316.726 129.609 323.77 130.153 L 323.77 124.17 L 313.437 124.17 L 321.437 110.788 L 316.104 110.788 L 323.77 99.365 L 320.104 99.365 L 327.437 87.288 L 336.104 102.302 L 332.437 101.323 L 339.104 114.052 L 334.437 113.073 L 342.437 128.087 L 331.104 124.17 L 331.104 130.664 C 339.786 131.198 347.752 131.423 354.937 131.288 C 356.425 131.26 357.925 131.211 359.437 131.141 L 359.437 117.788 L 343.937 117.788 L 355.937 97.288 L 347.937 97.288 L 359.437 79.788 L 353.937 79.788 L 364.937 61.288 L 377.937 84.288 L 372.437 82.788 L 382.437 102.288 L 375.437 100.788 L 387.437 123.788 L 370.437 117.788 L 370.437 130.309 C 377.95 129.534 385.75 128.338 393.851 126.811 L 393.851 124.045 L 387.437 124.045 L 392.403 115.788 L 389.092 115.788 L 393.851 108.739 L 391.575 108.739 L 396.127 101.288 L 401.506 110.552 L 399.23 109.948 L 403.368 117.802 L 400.471 117.198 L 404.474 124.666 C 410.54 123.365 416.767 121.912 423.161 120.34 L 423.161 116.17 L 411.437 120.087 L 419.713 105.073 L 414.885 106.052 L 421.782 93.323 L 417.989 94.302 L 426.954 79.288 L 434.54 91.365 L 430.747 91.365 L 438.678 102.788 L 433.161 102.788 L 441.176 115.748 C 447.631 114.056 454.245 112.285 461.023 110.466 L 461.023 102.357 L 443.437 108.524 L 455.851 84.886 L 448.609 86.427 L 458.954 66.386 L 453.265 67.927 L 466.713 44.288 L 478.092 63.302 L 472.403 63.302 L 484.299 81.288 L 476.023 81.288 L 488.437 102.357 L 472.403 102.357 L 472.403 107.413 C 477.913 105.938 483.528 104.444 489.249 102.946 L 493.403 95.198 L 490.506 95.802 L 494.644 87.948 L 492.368 88.552 L 497.747 79.288 L 502.299 86.74 L 500.023 86.74 L 504.782 93.788 L 501.471 93.788 L 504.602 98.995 C 514.481 96.5 524.663 94.034 535.161 91.667 L 535.161 85.17 L 523.437 89.087 L 531.713 74.073 L 526.885 75.052 L 533.782 62.323 L 529.989 63.302 L 538.954 48.288 L 546.54 60.365 L 542.747 60.365 L 550.678 71.788 L 545.161 71.788 L 553.437 85.17 L 542.747 85.17 L 542.747 89.987 C 552.566 87.853 562.655 85.819 573.023 83.941 L 573.023 69.358 L 555.437 75.525 L 567.851 51.886 L 560.609 53.427 L 570.954 33.386 L 565.265 34.927 L 578.713 11.288 L 590.092 30.302 L 584.403 30.302 L 596.299 48.288 L 588.023 48.288 L 600.437 69.358 L 584.403 69.358 L 584.403 81.964 C 591.947 80.71 599.636 79.546 607.471 78.492 L 607.471 73.045 L 600.437 75.462 L 605.403 66.198 L 602.506 66.802 L 606.644 58.948 L 604.368 59.552 L 609.747 50.288 L 614.299 57.74 L 612.023 57.74 L 616.782 64.788 L 613.471 64.788 L 618.437 73.045 L 612.023 73.045 L 612.023 77.895 C 631.143 75.449 651.128 73.676 672.023 72.87 L 672.023 59.358 L 654.437 61.788 L 666.851 41.886 L 658.437 41.886 L 669.954 23.386 L 664.265 24.927 L 677.713 1.288 Z M 439.565 116.17 L 430.747 116.17 L 430.747 118.443 C 433.653 117.705 436.592 116.946 439.565 116.17 Z M 401.835 125.224 L 398.403 124.045 L 398.403 125.926 C 399.541 125.698 400.685 125.464 401.835 125.224 Z M 637.954 28.288 L 645.54 40.365 L 641.747 40.365 L 649.678 51.788 L 644.161 51.788 L 652.437 65.17 L 641.747 65.17 L 641.747 73.983 L 634.161 75.288 L 634.161 65.17 L 622.437 69.087 L 630.713 54.073 L 625.885 55.052 L 632.782 42.323 L 628.989 43.302 L 637.954 28.288 Z" fill="#0A1971"/>
  <path fill-rule="evenodd" clip-rule="evenodd" d="M 1482.916 2.268 L 1494.296 21.282 L 1488.606 21.282 L 1500.496 39.268 L 1492.226 39.268 L 1504.636 60.338 L 1488.606 60.338 L 1488.606 73.51 C 1496.176 73.351 1503.866 73.32 1511.666 73.433 L 1511.666 70.025 L 1504.636 72.442 L 1509.606 63.178 L 1506.706 63.782 L 1510.846 55.928 L 1508.566 56.532 L 1513.946 47.268 L 1518.496 54.72 L 1516.226 54.72 L 1520.976 61.768 L 1517.666 61.768 L 1522.636 70.025 L 1516.226 70.025 L 1516.226 73.515 C 1519.176 73.579 1522.146 73.663 1525.136 73.768 L 1525.136 160.268 L 718.136 160.268 L 718.136 72.768 C 724.425 73.377 730.704 74.014 736.969 74.677 L 736.969 66.15 L 726.636 66.15 L 734.636 52.768 L 729.303 52.768 L 736.969 41.345 L 733.303 41.345 L 740.636 29.268 L 749.303 44.282 L 745.636 43.303 L 752.303 56.032 L 747.636 55.053 L 755.636 70.067 L 744.303 66.15 L 744.303 75.466 C 756.486 76.798 768.614 78.225 780.662 79.728 L 772.636 78.268 L 772.636 64.768 L 757.136 64.768 L 769.136 44.268 L 761.136 44.268 L 772.636 26.768 L 767.136 26.768 L 778.136 8.268 L 791.136 31.268 L 785.636 29.768 L 795.636 49.268 L 788.636 47.768 L 800.636 70.768 L 783.636 64.768 L 783.636 80.1 C 791.478 81.088 799.285 82.106 807.05 83.151 L 807.05 79.025 L 800.636 79.025 L 805.602 70.768 L 802.291 70.768 L 807.05 63.72 L 804.774 63.72 L 809.326 56.268 L 814.705 65.532 L 812.429 64.928 L 816.567 72.782 L 813.67 72.178 L 818.636 81.442 L 811.602 79.025 L 811.602 83.766 C 819.438 84.833 827.23 85.924 834.969 87.035 L 834.969 81.15 L 824.636 81.15 L 832.636 67.768 L 827.303 67.768 L 834.969 56.345 L 831.303 56.345 L 838.636 44.268 L 847.303 59.282 L 843.636 58.303 L 850.303 71.032 L 845.636 70.053 L 853.636 85.067 L 842.303 81.15 L 842.303 88.096 C 851.835 89.485 861.284 90.901 870.636 92.332 L 870.636 79.768 L 855.136 79.768 L 867.136 59.268 L 859.136 59.268 L 870.636 41.768 L 865.136 41.768 L 876.136 23.268 L 889.136 46.268 L 883.636 44.768 L 893.636 64.268 L 886.636 62.768 L 898.636 85.768 L 881.636 79.768 L 881.636 94.03 C 889.517 95.257 897.325 96.491 905.05 97.728 L 905.05 94.025 L 898.636 94.025 L 903.602 85.768 L 900.291 85.768 L 905.05 78.72 L 902.774 78.72 L 907.326 71.268 L 912.705 80.532 L 910.429 79.928 L 914.567 87.782 L 911.67 87.178 L 916.636 96.442 L 909.602 94.025 L 909.602 98.458 C 918.166 99.835 926.625 101.213 934.969 102.582 L 934.969 99.15 L 924.636 99.15 L 932.636 85.768 L 927.303 85.768 L 934.969 74.345 L 931.303 74.345 L 938.636 62.268 L 947.303 77.282 L 943.636 76.303 L 950.303 89.032 L 945.636 88.053 L 953.636 103.067 L 942.303 99.15 L 942.303 103.787 C 951.804 105.353 961.147 106.903 970.316 108.424 L 970.331 108.427 L 970.332 108.427 L 970.332 108.427 L 970.333 108.427 L 970.333 108.427 L 970.636 108.477 L 970.636 97.768 L 955.136 97.768 L 967.136 77.268 L 959.136 77.268 L 970.636 59.768 L 965.136 59.768 L 976.136 41.268 L 989.136 64.268 L 983.636 62.768 L 993.636 82.268 L 986.636 80.768 L 998.636 103.768 L 981.636 97.768 L 981.636 110.301 C 989.586 111.619 997.395 112.909 1005.046 114.162 L 1005.046 112.025 L 998.636 112.025 L 1003.606 103.768 L 1000.296 103.768 L 1005.046 96.72 L 1002.776 96.72 L 1007.326 89.268 L 1012.706 98.532 L 1010.426 97.928 L 1014.566 105.782 L 1011.666 105.178 L 1016.636 114.442 L 1009.606 112.025 L 1009.606 114.906 C 1017.216 116.149 1024.676 117.353 1031.966 118.508 L 1031.966 114.15 L 1021.636 114.15 L 1029.636 100.768 L 1024.306 100.768 L 1031.966 89.345 L 1028.306 89.345 L 1035.636 77.268 L 1044.306 92.282 L 1040.636 91.303 L 1047.306 104.032 L 1042.636 103.053 L 1050.636 118.067 L 1039.306 114.15 L 1039.306 119.662 C 1049.076 121.19 1058.536 122.622 1067.636 123.933 L 1067.636 112.768 L 1052.136 112.768 L 1064.136 92.268 L 1056.136 92.268 L 1067.636 74.768 L 1062.136 74.768 L 1073.136 56.268 L 1086.136 79.268 L 1080.636 77.768 L 1090.636 97.268 L 1083.636 95.768 L 1095.636 118.768 L 1078.636 112.768 L 1078.636 125.481 C 1086.756 126.596 1094.576 127.599 1102.046 128.472 L 1102.046 127.025 L 1095.636 127.025 L 1100.606 118.768 L 1097.296 118.768 L 1102.046 111.719 L 1099.776 111.719 L 1104.326 104.268 L 1109.706 113.532 L 1107.426 112.928 L 1111.566 120.782 L 1108.666 120.178 L 1113.636 129.442 L 1106.606 127.025 L 1106.606 128.991 C 1114.456 129.868 1121.926 130.589 1128.966 131.133 L 1128.966 125.15 L 1118.636 125.15 L 1126.636 111.768 L 1121.306 111.768 L 1128.966 100.345 L 1125.306 100.345 L 1132.636 88.268 L 1141.306 103.282 L 1137.636 102.303 L 1144.306 115.032 L 1139.636 114.053 L 1147.636 129.067 L 1136.306 125.15 L 1136.306 131.644 C 1144.986 132.178 1152.946 132.403 1160.136 132.268 C 1161.626 132.24 1163.126 132.191 1164.636 132.121 L 1164.636 118.768 L 1149.136 118.768 L 1161.136 98.268 L 1153.136 98.268 L 1164.636 80.768 L 1159.136 80.768 L 1170.136 62.268 L 1183.136 85.268 L 1177.636 83.768 L 1187.636 103.268 L 1180.636 101.768 L 1192.636 124.768 L 1175.636 118.768 L 1175.636 131.289 C 1183.146 130.514 1190.946 129.318 1199.046 127.791 L 1199.046 125.025 L 1192.636 125.025 L 1197.606 116.768 L 1194.296 116.768 L 1199.046 109.719 L 1196.776 109.719 L 1201.326 102.268 L 1206.706 111.532 L 1204.426 110.928 L 1208.566 118.782 L 1205.666 118.178 L 1209.676 125.646 C 1215.736 124.345 1221.966 122.892 1228.356 121.32 L 1228.356 117.15 L 1216.636 121.067 L 1224.916 106.053 L 1220.086 107.032 L 1226.976 94.303 L 1223.186 95.282 L 1232.156 80.268 L 1239.736 92.345 L 1235.946 92.345 L 1243.876 103.768 L 1238.356 103.768 L 1246.376 116.728 C 1252.826 115.036 1259.446 113.265 1266.226 111.446 L 1266.226 103.337 L 1248.636 109.504 L 1261.046 85.866 L 1253.806 87.407 L 1264.156 67.366 L 1258.466 68.907 L 1271.916 45.268 L 1283.296 64.282 L 1277.606 64.282 L 1289.496 82.268 L 1281.226 82.268 L 1293.636 103.337 L 1277.606 103.337 L 1277.606 108.393 C 1283.116 106.918 1288.726 105.424 1294.446 103.926 L 1298.606 96.178 L 1295.706 96.782 L 1299.846 88.928 L 1297.566 89.532 L 1302.946 80.268 L 1307.496 87.72 L 1305.226 87.72 L 1309.976 94.768 L 1306.666 94.768 L 1309.806 99.975 C 1319.676 97.48 1329.866 95.014 1340.356 92.647 L 1340.356 86.15 L 1328.636 90.067 L 1336.916 75.053 L 1332.086 76.032 L 1338.976 63.303 L 1335.186 64.282 L 1344.156 49.268 L 1351.736 61.345 L 1347.946 61.345 L 1355.876 72.768 L 1350.356 72.768 L 1358.636 86.15 L 1347.946 86.15 L 1347.946 90.967 C 1357.766 88.833 1367.856 86.799 1378.226 84.921 L 1378.226 70.338 L 1360.636 76.505 L 1373.046 52.866 L 1365.806 54.407 L 1376.156 34.366 L 1370.466 35.907 L 1383.916 12.268 L 1395.296 31.282 L 1389.606 31.282 L 1401.496 49.268 L 1393.226 49.268 L 1405.636 70.338 L 1389.606 70.338 L 1389.606 82.944 C 1397.146 81.69 1404.836 80.526 1412.666 79.472 L 1412.666 74.025 L 1405.636 76.442 L 1410.606 67.178 L 1407.706 67.782 L 1411.846 59.928 L 1409.566 60.532 L 1414.946 51.268 L 1419.496 58.72 L 1417.226 58.72 L 1421.976 65.768 L 1418.666 65.768 L 1423.636 74.025 L 1417.226 74.025 L 1417.226 78.875 C 1436.346 76.429 1456.326 74.656 1477.226 73.85 L 1477.226 60.338 L 1459.636 62.768 L 1472.046 42.866 L 1463.636 42.866 L 1475.156 24.366 L 1469.466 25.907 L 1482.916 2.268 Z M 1244.766 117.15 L 1235.946 117.15 L 1235.946 119.423 C 1238.856 118.685 1241.796 117.926 1244.766 117.15 Z M 1207.036 126.204 L 1203.606 125.025 L 1203.606 126.906 C 1204.736 126.678 1205.886 126.444 1207.036 126.204 Z M 1443.156 29.268 L 1450.736 41.345 L 1446.946 41.345 L 1454.876 52.768 L 1449.356 52.768 L 1457.636 66.15 L 1446.946 66.15 L 1446.946 74.963 L 1439.356 76.268 L 1439.356 66.15 L 1427.636 70.067 L 1435.916 55.053 L 1431.086 56.032 L 1437.976 43.303 L 1434.186 44.282 L 1443.156 29.268 Z" fill="#0A1971"/>
  <rect y="158" width="1440" height="555.816" fill="#0A1971" style=""/>
</svg>