<svg width="322" height="732" viewBox="0 0 322 732" fill="none" xmlns="http://www.w3.org/2000/svg">
<path fill-rule="evenodd" clip-rule="evenodd" d="M436.747 0.822754L446.786 15.8995H441.766L452.262 30.1614H444.961L455.913 46.8681H441.766V57.3131C448.447 57.1863 455.231 57.1624 462.12 57.252V54.5496L455.913 56.4658L460.294 49.1202L457.739 49.5992L461.389 43.3714L459.382 43.8505L464.128 36.5048L468.143 42.4133H466.136L470.334 48.0024H467.413L471.794 54.5496H466.136V57.3169C468.742 57.3673 471.364 57.434 474 57.5176V126.107H-238V56.7247C-232.452 57.207 -226.912 57.7122 -221.384 58.2383V51.477H-230.501L-223.442 40.866H-228.148L-221.384 31.8078H-224.619L-218.149 22.232L-210.502 34.1371L-213.737 33.3607L-207.855 43.4541L-211.973 42.6777L-204.914 54.5827L-214.914 51.477V58.864C-204.165 59.9198 -193.464 61.0514 -182.835 62.2428L-189.916 61.0859V50.3813H-203.591L-193.004 34.1261H-200.062L-189.916 20.2497H-194.768L-185.063 5.58041L-173.594 23.8179L-178.446 22.6285L-169.623 38.0908L-175.799 36.9014L-165.212 55.1389L-180.211 50.3813V62.5385C-173.292 63.3213 -166.404 64.129 -159.553 64.9571V61.6861H-165.212L-160.831 55.1388H-163.752L-159.553 49.5498H-161.561L-157.545 43.6413L-152.799 50.987L-154.807 50.5079L-151.156 56.7357L-153.712 56.2567L-149.331 63.6023L-155.537 61.6861V65.4454C-148.623 66.2909 -141.749 67.1564 -134.92 68.0374V63.371H-144.037L-136.979 52.76H-141.684L-134.92 43.7018H-138.155L-131.685 34.126L-124.039 46.0311L-127.274 45.2547L-121.392 55.3481L-125.509 54.5716L-118.451 66.4767L-128.45 63.371V68.8784C-120.04 69.9797 -111.703 71.1023 -103.452 72.2377V62.2752H-117.128L-106.54 46.0201H-113.599L-103.452 32.1437H-108.305L-98.5997 17.4744L-87.1301 35.7119L-91.9827 34.5225L-83.1599 49.9847L-89.3358 48.7953L-78.7484 67.0328L-93.7472 62.2752V73.5841C-86.7936 74.5565 -79.9053 75.5355 -73.0897 76.516V73.5801H-78.7484L-74.3675 67.0329H-77.2881L-73.0897 61.4438H-75.0976L-71.0817 55.5353L-66.3357 62.881L-68.3436 62.4019L-64.6928 68.6298L-67.2484 68.1507L-62.8674 75.4964L-69.0738 73.5801V77.0951C-61.5179 78.1871 -54.0539 79.2795 -46.6923 80.3651V77.6439H-55.8092L-48.7509 67.0329H-53.4564L-46.6923 57.9747H-49.9273L-43.4573 48.3989L-35.8108 60.3039L-39.0459 59.5275L-33.164 69.6209L-37.2813 68.8445L-30.2231 80.7496L-40.2222 77.6439V81.3212C-31.8349 82.563 -23.5866 83.7928 -15.4931 84.9996L-15.4927 84.9997L-15.4924 84.9997L-15.492 84.9998L-15.4913 84.9999L-15.2243 85.0397V76.5481H-28.8996L-18.3123 60.2929H-25.3705L-15.2243 46.4166H-20.0768L-10.3717 31.7473L1.0979 49.9848L-3.75465 48.7954L5.06815 64.2576L-1.1078 63.0682L9.47955 81.3057L-5.51921 76.5481V86.4861C1.49533 87.5307 8.38474 88.5538 15.1383 89.5478V87.8529H9.47955L13.8605 81.3057H10.9399L15.1383 75.7166H13.1304L17.1463 69.8081L21.8923 77.1538L19.8844 76.6747L23.5352 82.9026L20.9796 82.4235L25.3606 89.7692L19.1542 87.8529V90.1377C25.8749 91.123 32.4567 92.0775 38.8889 92.9934V89.5379H29.772L36.8302 78.9269H32.1248L38.8889 69.8687H35.6539L42.1239 60.2929L49.7704 72.198L46.5353 71.4215L52.4172 81.515L48.2999 80.7385L55.3581 92.6436L45.3589 89.5379V93.9087C53.9855 95.1204 62.3273 96.2558 70.3569 97.2954V88.4421H56.6815L67.2689 72.187H60.2107L70.3569 58.3106H65.5043L75.2094 43.6413L86.6791 61.8788L81.8265 60.6894L90.6493 76.1516L84.4734 74.9622L95.0607 93.1997L80.062 88.4421V98.523C87.2303 99.4068 94.1233 100.202 100.719 100.894V99.7469H95.0607L99.4417 93.1997H96.5211L100.719 87.6106H98.7115L102.727 81.7022L107.474 89.0478L105.466 88.5688L109.116 94.7966L106.561 94.3175L110.942 101.663L104.735 99.7469V101.306C111.668 102.001 118.255 102.573 124.47 103.005V98.2602H115.353L122.411 87.6492H117.706L124.47 78.591H121.235L127.705 69.0152L135.352 80.9202L132.116 80.1438L137.998 90.2372L133.881 89.4608L140.939 101.366L130.94 98.2602V103.409C138.6 103.833 145.628 104.011 151.968 103.904C153.28 103.882 154.604 103.843 155.938 103.788V93.1997H142.263L152.85 76.9446H145.792L155.938 63.0682H151.086L160.791 48.3989L172.26 66.6364L167.408 65.447L176.23 80.9092L170.055 79.7198L180.642 97.9573L165.643 93.1997V103.128C172.272 102.514 179.154 101.565 186.301 100.355V98.1611H180.642L185.023 91.6138H182.102L186.301 86.0247H184.293L188.309 80.1163L193.055 87.4619L191.047 86.9829L194.698 93.2107L192.142 92.7317L195.674 98.6532C201.025 97.6219 206.519 96.4694 212.161 95.2237V91.9167L201.817 95.0224L209.118 83.1173L204.859 83.8937L210.944 73.8003L207.597 74.5767L215.507 62.6717L222.2 72.2475H218.854L225.851 81.3057H220.983L228.055 91.5825C233.75 90.2408 239.585 88.8363 245.566 87.3936V80.9643L230.05 85.8541L241.002 67.11L234.613 68.3324L243.74 52.4407L238.72 53.6631L250.585 34.919L260.625 49.9958H255.605L266.101 64.2576H258.8L269.752 80.9643H255.605V84.973C260.467 83.8036 265.421 82.6189 270.469 81.4312L274.133 75.2871L271.578 75.7661L275.228 69.5383L273.22 70.0174L277.967 62.6717L281.982 68.5802H279.974L284.173 74.1693H281.252L284.015 78.2974C292.73 76.3197 301.714 74.3639 310.976 72.4874V67.3357L300.632 70.4413L307.934 58.5363L303.674 59.3127L309.759 49.2193L306.412 49.9957L314.323 38.0907L321.016 47.6665H317.669L324.666 56.7247H319.799L327.1 67.3357H317.669V71.1554C326.332 69.4631 335.233 67.8499 344.381 66.3607V54.7974L328.865 59.6872L339.817 40.943L333.428 42.1655L342.555 26.2737L337.536 27.4962L349.401 8.75207L359.44 23.8289H354.421L364.917 38.0907H357.615L368.568 54.7974H354.421V64.7931C361.077 63.7986 367.861 62.8756 374.774 62.0404V57.7214L368.568 59.6376L372.948 52.292L370.393 52.771L374.044 46.5432L372.036 47.0222L376.782 39.6766L380.798 45.585H378.79L382.988 51.1741H380.068L384.449 57.7214H378.79V61.5669C395.659 59.6272 413.291 58.2215 431.727 57.5824V46.8681L416.211 48.7953L427.163 33.0137H419.74L429.901 18.3444L424.881 19.5669L436.747 0.822754ZM226.634 91.9167H218.854V93.7194C221.417 93.134 224.011 92.5323 226.634 91.9167ZM193.345 99.096L190.317 98.1611V99.6526C191.321 99.4718 192.33 99.2862 193.345 99.096ZM401.668 22.232L408.361 31.8078H405.015L412.012 40.866H407.144L414.446 51.477H405.015V58.4648L398.322 59.5V51.477L387.978 54.5827L395.279 42.6777L391.02 43.4541L397.105 33.3607L393.758 34.1371L401.668 22.232Z" fill="#0A1971"/>
<rect y="120" width="322" height="612" fill="#0A1971"/>
</svg>
