<?xml version="1.0" encoding="utf-8"?>
<svg width="1440" height="596" viewBox="0 7.107 1440 588.893" fill="none" preserveAspectRatio="xMinYMax" xmlns="http://www.w3.org/2000/svg">
  <path d="M0 4H1440V574H0V4Z" fill="#0A1971"/>
  <path d="M0 4H1440V574H0V4Z" fill="url(#paint0_linear)" style="stroke-width: 0.987927; vector-effect: non-scaling-stroke;" transform="matrix(1, 0, 0, 0.9959072772347478, 0, 2.349222867254756)"/>
  <path fill-rule="evenodd" clip-rule="evenodd" d="M440.776 468L452.155 485.088H446.466L458.362 501.253H450.086L462.5 520.189H446.466V532.028C454.038 531.884 461.727 531.857 469.534 531.958V528.895L462.5 531.067L467.466 522.742L464.569 523.285L468.707 516.226L466.431 516.769L471.81 508.443L476.362 515.14H474.086L478.845 521.475H475.534L480.5 528.895H474.086V532.032C477.041 532.089 480.012 532.165 483 532.26V610H-324V531.361C-317.711 531.907 -311.432 532.48 -305.167 533.076V525.413H-315.5L-307.5 513.386H-312.833L-305.167 503.119H-308.833L-301.5 492.266L-292.833 505.759L-296.5 504.879L-289.833 516.319L-294.5 515.439L-286.5 528.933L-297.833 525.413V533.785C-285.65 534.982 -273.521 536.265 -261.474 537.615L-269.5 536.304V524.171H-285L-273 505.747H-281L-269.5 490.019H-275L-264 473.392L-251 494.063L-256.5 492.715L-246.5 510.241L-253.5 508.892L-241.5 529.563L-258.5 524.171V537.95C-250.658 538.838 -242.851 539.753 -235.086 540.692V536.984H-241.5L-236.534 529.563H-239.845L-235.086 523.228H-237.362L-232.81 516.532L-227.431 524.857L-229.707 524.314L-225.569 531.373L-228.466 530.83L-223.5 539.156L-230.534 536.984V541.245C-222.698 542.203 -214.906 543.184 -207.167 544.183V538.894H-217.5L-209.5 526.867H-214.833L-207.167 516.6H-210.833L-203.5 505.747L-194.833 519.24L-198.5 518.36L-191.833 529.8L-196.5 528.92L-188.5 542.414L-199.833 538.894V545.136C-190.301 546.384 -180.852 547.657 -171.5 548.944V537.652H-187L-175 519.228H-183L-171.5 503.5H-177L-166 486.873L-153 507.544L-158.5 506.196L-148.5 523.722L-155.5 522.373L-143.5 543.044L-160.5 537.652V550.47C-152.619 551.572 -144.811 552.681 -137.086 553.793V550.465H-143.5L-138.534 543.044H-141.845L-137.086 536.709H-139.362L-134.81 530.013L-129.431 538.338L-131.707 537.795L-127.569 544.854L-130.466 544.311L-125.5 552.637L-132.534 550.465V554.449C-123.97 555.687 -115.511 556.925 -107.167 558.155V555.071H-117.5L-109.5 543.044H-114.833L-107.167 532.778H-110.833L-103.5 521.924L-94.8333 535.418L-98.5 534.538L-91.8333 545.978L-96.5 545.098L-88.5 558.591L-99.8333 555.071V559.239C-90.3274 560.646 -80.979 562.04 -71.806 563.408L-71.8042 563.408L-71.8038 563.408L-71.5 563.454V553.829H-87L-75 535.405H-83L-71.5 519.677H-77L-66 503.051L-53 523.722L-58.5 522.373L-48.5 539.899L-55.5 538.551L-43.5 559.222L-60.5 553.829V565.093C-52.5495 566.277 -44.7409 567.437 -37.0862 568.563V566.642H-43.5L-38.5345 559.222H-41.8448L-37.0862 552.887H-39.3621L-34.8103 546.19L-29.431 554.516L-31.7069 553.973L-27.569 561.031L-30.4655 560.489L-25.5 568.814L-32.5345 566.642V569.232C-24.9171 570.349 -17.457 571.431 -10.1667 572.469V568.552H-20.5L-12.5 556.525H-17.8333L-10.1667 546.259H-13.8333L-6.5 535.405L2.16666 548.899L-1.5 548.019L5.16666 559.459L0.5 558.579L8.5 572.072L-2.83334 568.552V573.506C6.94424 574.879 16.399 576.166 25.5 577.345V567.31H10L22 548.886H14L25.5 533.158H20L31 516.532L44 537.203L38.5 535.854L48.5 553.38L41.5 552.032L53.5 572.703L36.5 567.31V578.736C44.6248 579.738 52.4375 580.639 59.9138 581.424V580.123H53.5L58.4655 572.703H55.1552L59.9138 566.368H57.6379L62.1897 559.671L67.569 567.997L65.2931 567.454L69.431 574.513L66.5345 573.97L71.5 582.295L64.4655 580.123V581.891C72.3229 582.678 79.7888 583.327 86.8333 583.816V578.438H76.5L84.5 566.411H79.1667L86.8333 556.145H83.1667L90.5 545.291L99.1667 558.785L95.5 557.905L102.167 569.345L97.5 568.465L105.5 581.958L94.1667 578.438V584.274C102.849 584.754 110.815 584.957 118 584.835C119.488 584.81 120.988 584.766 122.5 584.704V572.703H107L119 554.278H111L122.5 538.551H117L128 521.924L141 542.595L135.5 541.247L145.5 558.772L138.5 557.424L150.5 578.095L133.5 572.703V583.956C141.013 583.259 148.813 582.184 156.914 580.812V578.326H150.5L155.466 570.905H152.155L156.914 564.57H154.638L159.19 557.873L164.569 566.199L162.293 565.656L166.431 572.715L163.534 572.172L167.537 578.884C173.603 577.715 179.83 576.409 186.224 574.997V571.248L174.5 574.768L182.776 561.275L177.948 562.155L184.845 550.715L181.052 551.595L190.017 538.101L197.603 548.955H193.81L201.741 559.222H196.224L204.239 570.87C210.694 569.349 217.308 567.757 224.086 566.122V558.835L206.5 564.377L218.914 543.132L211.672 544.517L222.017 526.505L216.328 527.891L229.776 506.646L241.155 523.734H235.466L247.362 539.899H239.086L251.5 558.835H235.466V563.378C240.976 562.053 246.591 560.71 252.312 559.364L256.466 552.4L253.569 552.943L257.707 545.884L255.431 546.427L260.81 538.101L265.362 544.798H263.086L267.845 551.133H264.534L267.665 555.812C277.544 553.57 287.726 551.354 298.224 549.227V543.388L286.5 546.908L294.776 533.414L289.948 534.294L296.845 522.854L293.052 523.734L302.017 510.241L309.603 521.094H305.81L313.741 531.361H308.224L316.5 543.388H305.81V547.717C315.629 545.799 325.718 543.97 336.086 542.282V529.176L318.5 534.719L330.914 513.473L323.672 514.859L334.017 496.847L328.328 498.232L341.776 476.987L353.155 494.076H347.466L359.362 510.241H351.086L363.5 529.176H347.466V540.506C355.01 539.378 362.699 538.332 370.534 537.386V532.49L363.5 534.662L368.466 526.337L365.569 526.88L369.707 519.821L367.431 520.364L372.81 512.038L377.362 518.735H375.086L379.845 525.07H376.534L381.5 532.49H375.086V536.849C394.206 534.651 414.191 533.057 435.086 532.333V520.189L417.5 522.373L429.914 504.486H421.5L433.017 487.86L427.328 489.245L440.776 468ZM202.628 571.248H193.81V573.292C196.716 572.628 199.655 571.946 202.628 571.248ZM164.898 579.386L161.466 578.326V580.016C162.604 579.811 163.748 579.601 164.898 579.386ZM401.017 492.266L408.603 503.119H404.81L412.741 513.386H407.224L415.5 525.413H404.81V533.333L397.224 534.506V525.413L385.5 528.933L393.776 515.439L388.948 516.319L395.845 504.879L392.052 505.759L401.017 492.266Z" fill="#2562B4"/>
  <path fill-rule="evenodd" clip-rule="evenodd" d="M 1247.514 468.897 L 1258.904 485.985 L 1253.209 485.985 L 1265.11 502.15 L 1256.832 502.15 L 1269.253 521.086 L 1253.209 521.086 L 1253.209 532.925 C 1260.786 532.781 1268.482 532.754 1276.289 532.855 L 1276.289 529.792 L 1269.253 531.964 L 1274.227 523.639 L 1271.325 524.182 L 1275.469 517.123 L 1273.187 517.666 L 1278.571 509.34 L 1283.125 516.037 L 1280.853 516.037 L 1285.607 522.372 L 1282.294 522.372 L 1287.269 529.792 L 1280.853 529.792 L 1280.853 532.929 C 1283.806 532.986 1286.778 533.062 1289.771 533.157 L 1289.771 610.897 L 482.069 610.897 L 482.069 532.258 C 488.364 532.804 494.648 533.377 500.919 533.973 L 500.919 526.31 L 490.577 526.31 L 498.584 514.283 L 493.246 514.283 L 500.919 504.016 L 497.25 504.016 L 504.589 493.163 L 513.263 506.656 L 509.593 505.776 L 516.266 517.216 L 511.595 516.336 L 519.602 529.83 L 508.259 526.31 L 508.259 534.682 C 520.453 535.879 532.592 537.162 544.65 538.512 L 536.617 537.201 L 536.617 525.068 L 521.103 525.068 L 533.114 506.644 L 525.107 506.644 L 536.617 490.916 L 531.112 490.916 L 542.122 474.289 L 555.133 494.96 L 549.628 493.612 L 559.637 511.138 L 552.631 509.789 L 564.641 530.46 L 547.626 525.068 L 547.626 538.847 C 555.475 539.735 563.289 540.65 571.061 541.589 L 571.061 537.881 L 564.641 537.881 L 569.611 530.46 L 566.298 530.46 L 571.061 524.125 L 568.783 524.125 L 573.339 517.429 L 578.722 525.754 L 576.444 525.211 L 580.586 532.27 L 577.686 531.727 L 582.657 540.053 L 575.617 537.881 L 575.617 542.142 C 583.459 543.1 591.258 544.081 599.004 545.08 L 599.004 539.791 L 588.662 539.791 L 596.669 527.764 L 591.331 527.764 L 599.004 517.497 L 595.335 517.497 L 602.674 506.644 L 611.349 520.137 L 607.678 519.257 L 614.351 530.697 L 609.68 529.817 L 617.687 543.311 L 606.344 539.791 L 606.344 546.033 C 615.885 547.281 625.342 548.554 634.702 549.841 L 634.702 538.549 L 619.188 538.549 L 631.199 520.125 L 623.192 520.125 L 634.702 504.397 L 629.197 504.397 L 640.207 487.77 L 653.218 508.441 L 647.713 507.093 L 657.722 524.619 L 650.716 523.27 L 662.726 543.941 L 645.711 538.549 L 645.711 551.367 C 653.599 552.469 661.414 553.578 669.146 554.69 L 669.146 551.362 L 662.726 551.362 L 667.697 543.941 L 664.383 543.941 L 669.146 537.606 L 666.868 537.606 L 671.424 530.91 L 676.808 539.235 L 674.53 538.692 L 678.671 545.751 L 675.772 545.208 L 680.742 553.534 L 673.702 551.362 L 673.702 555.346 C 682.273 556.584 690.74 557.822 699.091 559.052 L 699.091 555.968 L 688.749 555.968 L 696.756 543.941 L 691.418 543.941 L 699.091 533.675 L 695.422 533.675 L 702.761 522.821 L 711.436 536.315 L 707.765 535.435 L 714.438 546.875 L 709.767 545.995 L 717.774 559.488 L 706.431 555.968 L 706.431 560.136 C 715.946 561.543 725.302 562.937 734.483 564.305 L 734.485 564.305 L 734.485 564.305 L 734.789 564.351 L 734.789 554.726 L 719.275 554.726 L 731.286 536.302 L 723.279 536.302 L 734.789 520.574 L 729.284 520.574 L 740.294 503.948 L 753.305 524.619 L 747.8 523.27 L 757.809 540.796 L 750.803 539.448 L 762.813 560.119 L 745.798 554.726 L 745.798 565.99 C 753.755 567.174 761.571 568.334 769.233 569.46 L 769.233 567.539 L 762.813 567.539 L 767.784 560.119 L 764.47 560.119 L 769.233 553.784 L 766.955 553.784 L 771.511 547.087 L 776.894 555.413 L 774.616 554.87 L 778.758 561.928 L 775.859 561.386 L 780.829 569.711 L 773.789 567.539 L 773.789 570.129 C 781.412 571.246 788.879 572.328 796.175 573.366 L 796.175 569.449 L 785.833 569.449 L 793.84 557.422 L 788.503 557.422 L 796.175 547.156 L 792.506 547.156 L 799.845 536.302 L 808.52 549.796 L 804.85 548.916 L 811.523 560.356 L 806.851 559.476 L 814.858 572.969 L 803.516 569.449 L 803.516 574.403 C 813.301 575.776 822.764 577.063 831.873 578.242 L 831.873 568.207 L 816.36 568.207 L 828.37 549.783 L 820.363 549.783 L 831.873 534.055 L 826.368 534.055 L 837.378 517.429 L 850.389 538.1 L 844.885 536.751 L 854.893 554.277 L 847.887 552.929 L 859.898 573.6 L 842.883 568.207 L 842.883 579.633 C 851.015 580.635 858.834 581.536 866.317 582.321 L 866.317 581.02 L 859.898 581.02 L 864.868 573.6 L 861.554 573.6 L 866.317 567.265 L 864.039 567.265 L 868.595 560.568 L 873.979 568.894 L 871.701 568.351 L 875.842 575.41 L 872.943 574.867 L 877.913 583.192 L 870.873 581.02 L 870.873 582.788 C 878.737 583.575 886.209 584.224 893.26 584.713 L 893.26 579.335 L 882.918 579.335 L 890.924 567.308 L 885.587 567.308 L 893.26 557.042 L 889.59 557.042 L 896.93 546.188 L 905.604 559.682 L 901.934 558.802 L 908.607 570.242 L 903.936 569.362 L 911.943 582.855 L 900.6 579.335 L 900.6 585.171 C 909.289 585.651 917.262 585.854 924.454 585.732 C 925.943 585.707 927.444 585.663 928.958 585.601 L 928.958 573.6 L 913.444 573.6 L 925.454 555.175 L 917.448 555.175 L 928.958 539.448 L 923.453 539.448 L 934.462 522.821 L 947.474 543.492 L 941.969 542.144 L 951.978 559.669 L 944.971 558.321 L 956.982 578.992 L 939.967 573.6 L 939.967 584.853 C 947.487 584.156 955.293 583.081 963.401 581.709 L 963.401 579.223 L 956.982 579.223 L 961.952 571.802 L 958.638 571.802 L 963.401 565.467 L 961.123 565.467 L 965.679 558.77 L 971.063 567.096 L 968.785 566.553 L 972.927 573.612 L 970.027 573.069 L 974.034 579.781 C 980.105 578.612 986.337 577.306 992.737 575.894 L 992.737 572.145 L 981.003 575.665 L 989.286 562.172 L 984.454 563.052 L 991.357 551.612 L 987.56 552.492 L 996.533 538.998 L 1004.123 549.852 L 1000.33 549.852 L 1008.266 560.119 L 1002.742 560.119 L 1010.769 571.767 C 1017.224 570.246 1023.85 568.654 1030.636 567.019 L 1030.636 559.732 L 1013.031 565.274 L 1025.451 544.029 L 1018.205 545.414 L 1028.564 527.402 L 1022.869 528.788 L 1036.331 507.543 L 1047.721 524.631 L 1042.026 524.631 L 1053.926 540.796 L 1045.649 540.796 L 1058.07 559.732 L 1042.026 559.732 L 1042.026 564.275 C 1047.541 562.95 1053.155 561.607 1058.88 560.261 L 1063.044 553.297 L 1060.141 553.84 L 1064.285 546.781 L 1062.003 547.324 L 1067.388 538.998 L 1071.942 545.695 L 1069.67 545.695 L 1074.424 552.03 L 1071.111 552.03 L 1074.254 556.709 C 1084.132 554.467 1094.331 552.251 1104.83 550.124 L 1104.83 544.285 L 1093.1 547.805 L 1101.387 534.311 L 1096.553 535.191 L 1103.449 523.751 L 1099.656 524.631 L 1108.634 511.138 L 1116.22 521.991 L 1112.427 521.991 L 1120.364 532.258 L 1114.839 532.258 L 1123.126 544.285 L 1112.427 544.285 L 1112.427 548.614 C 1122.255 546.696 1132.354 544.867 1142.733 543.179 L 1142.733 530.073 L 1125.128 535.616 L 1137.549 514.37 L 1130.302 515.756 L 1140.661 497.744 L 1134.966 499.129 L 1148.428 477.884 L 1159.818 494.973 L 1154.123 494.973 L 1166.023 511.138 L 1157.746 511.138 L 1170.167 530.073 L 1154.123 530.073 L 1154.123 541.403 C 1161.67 540.275 1169.366 539.229 1177.203 538.283 L 1177.203 533.387 L 1170.167 535.559 L 1175.141 527.234 L 1172.239 527.777 L 1176.382 520.718 L 1174.1 521.261 L 1179.485 512.935 L 1184.039 519.632 L 1181.767 519.632 L 1186.521 525.967 L 1183.208 525.967 L 1188.183 533.387 L 1181.767 533.387 L 1181.767 537.746 C 1200.904 535.548 1220.901 533.954 1241.819 533.23 L 1241.819 521.086 L 1224.214 523.27 L 1236.635 505.383 L 1228.217 505.383 L 1239.747 488.757 L 1234.053 490.142 L 1247.514 468.897 Z M 1009.157 572.145 L 1000.33 572.145 L 1000.33 574.189 C 1003.242 573.525 1006.185 572.843 1009.157 572.145 Z M 971.392 580.283 L 967.957 579.223 L 967.957 580.913 C 969.096 580.708 970.241 580.498 971.392 580.283 Z M 1207.72 493.163 L 1215.306 504.016 L 1211.513 504.016 L 1219.45 514.283 L 1213.925 514.283 L 1222.212 526.31 L 1211.513 526.31 L 1211.513 534.23 L 1203.916 535.403 L 1203.916 526.31 L 1192.186 529.83 L 1200.473 516.336 L 1195.639 517.216 L 1202.535 505.776 L 1198.742 506.656 L 1207.72 493.163 Z" fill="#2562B4" style=""/>
  <path fill-rule="evenodd" clip-rule="evenodd" d="M 2054.366 469.781 L 2065.756 486.869 L 2060.061 486.869 L 2071.962 503.034 L 2063.684 503.034 L 2076.106 521.97 L 2060.061 521.97 L 2060.061 533.809 C 2067.638 533.665 2075.335 533.638 2083.142 533.739 L 2083.142 530.676 L 2076.106 532.848 L 2081.081 524.523 L 2078.178 525.066 L 2082.322 518.007 L 2080.04 518.55 L 2085.425 510.224 L 2089.979 516.921 L 2087.707 516.921 L 2092.461 523.256 L 2089.148 523.256 L 2094.123 530.676 L 2087.707 530.676 L 2087.707 533.813 C 2090.66 533.87 2093.632 533.946 2096.625 534.041 L 2096.625 611.781 L 1288.868 611.781 L 1288.868 533.142 C 1295.164 533.688 1301.45 534.261 1307.716 534.857 L 1307.716 527.194 L 1297.376 527.194 L 1305.384 515.167 L 1300.049 515.167 L 1307.716 504.9 L 1304.053 504.9 L 1311.39 494.047 L 1320.068 507.54 L 1316.394 506.66 L 1323.071 518.1 L 1318.396 517.22 L 1326.404 530.714 L 1315.063 527.194 L 1315.063 535.566 C 1327.254 536.763 1339.396 538.046 1351.457 539.396 L 1343.42 538.085 L 1343.42 525.952 L 1327.905 525.952 L 1339.916 507.528 L 1331.909 507.528 L 1343.42 491.8 L 1337.914 491.8 L 1348.925 475.173 L 1361.937 495.844 L 1356.432 494.496 L 1366.441 512.022 L 1359.435 510.673 L 1371.446 531.344 L 1354.43 525.952 L 1354.43 539.731 C 1362.277 540.619 1370.095 541.534 1377.862 542.473 L 1377.862 538.765 L 1371.446 538.765 L 1376.421 531.344 L 1373.107 531.344 L 1377.862 525.009 L 1375.59 525.009 L 1380.144 518.313 L 1385.529 526.638 L 1383.247 526.095 L 1387.391 533.154 L 1384.488 532.611 L 1389.463 540.937 L 1382.426 538.765 L 1382.426 543.026 C 1390.263 543.984 1398.061 544.965 1405.808 545.964 L 1405.808 540.675 L 1395.468 540.675 L 1403.476 528.648 L 1398.141 528.648 L 1405.808 518.381 L 1402.145 518.381 L 1409.481 507.528 L 1418.16 521.021 L 1414.486 520.141 L 1421.162 531.581 L 1416.488 530.701 L 1424.496 544.195 L 1413.155 540.675 L 1413.155 546.917 C 1422.694 548.165 1432.153 549.438 1441.511 550.725 L 1441.511 539.433 L 1425.997 539.433 L 1438.008 521.009 L 1430.001 521.009 L 1441.511 505.281 L 1436.006 505.281 L 1447.017 488.654 L 1460.029 509.325 L 1454.524 507.977 L 1464.533 525.503 L 1457.526 524.154 L 1469.538 544.825 L 1452.522 539.433 L 1452.522 552.251 C 1460.409 553.353 1468.227 554.462 1475.954 555.574 L 1475.954 552.246 L 1469.538 552.246 L 1474.512 544.825 L 1471.199 544.825 L 1475.954 538.49 L 1473.682 538.49 L 1478.236 531.794 L 1483.621 540.119 L 1481.339 539.576 L 1485.483 546.635 L 1482.58 546.092 L 1487.555 554.418 L 1480.518 552.246 L 1480.518 556.23 C 1489.086 557.468 1497.554 558.706 1505.902 559.936 L 1505.902 556.852 L 1495.562 556.852 L 1503.57 544.825 L 1498.235 544.825 L 1505.902 534.559 L 1502.238 534.559 L 1509.575 523.705 L 1518.253 537.199 L 1514.58 536.319 L 1521.256 547.759 L 1516.582 546.879 L 1524.589 560.372 L 1513.249 556.852 L 1513.249 561.02 C 1522.758 562.427 1532.116 563.821 1541.295 565.189 L 1541.305 565.189 L 1541.305 565.189 L 1541.605 565.235 L 1541.605 555.61 L 1526.091 555.61 L 1538.102 537.186 L 1530.094 537.186 L 1541.605 521.458 L 1536.1 521.458 L 1547.11 504.832 L 1560.123 525.503 L 1554.617 524.154 L 1564.627 541.68 L 1557.62 540.332 L 1569.631 561.003 L 1552.616 555.61 L 1552.616 566.874 C 1560.573 568.058 1568.39 569.218 1576.047 570.344 L 1576.047 568.423 L 1569.631 568.423 L 1574.606 561.003 L 1571.293 561.003 L 1576.047 554.668 L 1573.775 554.668 L 1578.33 547.971 L 1583.715 556.297 L 1581.433 555.754 L 1585.576 562.812 L 1582.674 562.27 L 1587.648 570.595 L 1580.612 568.423 L 1580.612 571.013 C 1588.229 572.13 1595.696 573.212 1602.993 574.25 L 1602.993 570.333 L 1592.653 570.333 L 1600.661 558.306 L 1595.326 558.306 L 1602.993 548.04 L 1599.329 548.04 L 1606.666 537.186 L 1615.344 550.68 L 1611.671 549.8 L 1618.347 561.24 L 1613.673 560.36 L 1621.68 573.853 L 1610.34 570.333 L 1610.34 575.287 C 1620.119 576.66 1629.588 577.947 1638.696 579.126 L 1638.696 569.091 L 1623.182 569.091 L 1635.193 550.667 L 1627.185 550.667 L 1638.696 534.939 L 1633.191 534.939 L 1644.201 518.313 L 1657.214 538.984 L 1651.708 537.635 L 1661.718 555.161 L 1654.711 553.813 L 1666.722 574.484 L 1649.706 569.091 L 1649.706 580.517 C 1657.834 581.519 1665.661 582.42 1673.138 583.205 L 1673.138 581.904 L 1666.722 581.904 L 1671.697 574.484 L 1668.384 574.484 L 1673.138 568.149 L 1670.866 568.149 L 1675.421 561.452 L 1680.806 569.778 L 1678.523 569.235 L 1682.667 576.294 L 1679.765 575.751 L 1684.739 584.076 L 1677.703 581.904 L 1677.703 583.672 C 1685.56 584.459 1693.037 585.108 1700.084 585.597 L 1700.084 580.219 L 1689.744 580.219 L 1697.751 568.192 L 1692.416 568.192 L 1700.084 557.926 L 1696.42 557.926 L 1703.757 547.072 L 1712.435 560.566 L 1708.762 559.686 L 1715.438 571.126 L 1710.764 570.246 L 1718.771 583.739 L 1707.431 580.219 L 1707.431 586.055 C 1716.119 586.535 1724.086 586.738 1731.283 586.616 C 1732.774 586.591 1734.276 586.547 1735.787 586.485 L 1735.787 574.484 L 1720.273 574.484 L 1732.284 556.059 L 1724.276 556.059 L 1735.787 540.332 L 1730.282 540.332 L 1741.292 523.705 L 1754.304 544.376 L 1748.799 543.028 L 1758.809 560.553 L 1751.802 559.205 L 1763.813 579.876 L 1746.797 574.484 L 1746.797 585.737 C 1754.314 585.04 1762.122 583.965 1770.229 582.593 L 1770.229 580.107 L 1763.813 580.107 L 1768.788 572.686 L 1765.475 572.686 L 1770.229 566.351 L 1767.957 566.351 L 1772.512 559.654 L 1777.897 567.98 L 1775.614 567.437 L 1779.758 574.496 L 1776.856 573.953 L 1780.869 580.665 C 1786.935 579.496 1793.171 578.19 1799.567 576.778 L 1799.567 573.029 L 1787.836 576.549 L 1796.124 563.056 L 1791.289 563.936 L 1798.186 552.496 L 1794.392 553.376 L 1803.37 539.882 L 1810.958 550.736 L 1807.164 550.736 L 1815.101 561.003 L 1809.576 561.003 L 1817.604 572.651 C 1824.06 571.13 1830.686 569.538 1837.472 567.903 L 1837.472 560.616 L 1819.866 566.158 L 1832.288 544.913 L 1825.041 546.298 L 1835.4 528.286 L 1829.705 529.672 L 1843.168 508.427 L 1854.558 525.515 L 1848.863 525.515 L 1860.764 541.68 L 1852.486 541.68 L 1864.908 560.616 L 1848.863 560.616 L 1848.863 565.159 C 1854.378 563.834 1859.993 562.491 1865.719 561.145 L 1869.883 554.181 L 1866.98 554.724 L 1871.124 547.665 L 1868.842 548.208 L 1874.227 539.882 L 1878.781 546.579 L 1876.509 546.579 L 1881.263 552.914 L 1877.95 552.914 L 1881.093 557.593 C 1890.972 555.351 1901.172 553.135 1911.672 551.008 L 1911.672 545.169 L 1899.941 548.689 L 1908.229 535.195 L 1903.394 536.075 L 1910.291 524.635 L 1906.497 525.515 L 1915.475 512.022 L 1923.063 522.875 L 1919.269 522.875 L 1927.206 533.142 L 1921.681 533.142 L 1929.969 545.169 L 1919.269 545.169 L 1919.269 549.498 C 1929.098 547.58 1939.198 545.751 1949.577 544.063 L 1949.577 530.957 L 1931.971 536.5 L 1944.393 515.254 L 1937.146 516.64 L 1947.505 498.628 L 1941.81 500.013 L 1955.273 478.768 L 1966.663 495.857 L 1960.968 495.857 L 1972.869 512.022 L 1964.591 512.022 L 1977.013 530.957 L 1960.968 530.957 L 1960.968 542.287 C 1968.515 541.159 1976.212 540.113 1984.05 539.167 L 1984.05 534.271 L 1977.013 536.443 L 1981.988 528.118 L 1979.085 528.661 L 1983.229 521.602 L 1980.947 522.145 L 1986.332 513.819 L 1990.886 520.516 L 1988.614 520.516 L 1993.368 526.851 L 1990.055 526.851 L 1995.03 534.271 L 1988.614 534.271 L 1988.614 538.63 C 2007.752 536.432 2027.751 534.838 2048.67 534.114 L 2048.67 521.97 L 2031.064 524.154 L 2043.485 506.267 L 2035.067 506.267 L 2046.598 489.641 L 2040.903 491.026 L 2054.366 469.781 Z M 1815.992 573.029 L 1807.164 573.029 L 1807.164 575.073 C 1810.077 574.409 1813.019 573.727 1815.992 573.029 Z M 1778.227 581.167 L 1774.794 580.107 L 1774.794 581.797 C 1775.925 581.592 1777.076 581.382 1778.227 581.167 Z M 2014.568 494.047 L 2022.155 504.9 L 2018.362 504.9 L 2026.299 515.167 L 2020.774 515.167 L 2029.062 527.194 L 2018.362 527.194 L 2018.362 535.114 L 2010.765 536.287 L 2010.765 527.194 L 1999.034 530.714 L 2007.321 517.22 L 2002.487 518.1 L 2009.383 506.66 L 2005.59 507.54 L 2014.568 494.047 Z" fill="#2562B4" style=""/>
  <path fill-rule="evenodd" clip-rule="evenodd" d="M764.776 458L776.155 477.014H770.466L782.362 495H774.086L786.5 516.069H770.466V529.242C778.038 529.082 785.727 529.052 793.534 529.165V525.757L786.5 528.174L791.466 518.91L788.569 519.514L792.707 511.66L790.431 512.264L795.81 503L800.362 510.451H798.086L802.845 517.5H799.534L804.5 525.757H798.086V529.247C801.041 529.31 804.012 529.395 807 529.5V658.5H0V528.5C6.28874 529.108 12.5677 529.745 18.8333 530.409V521.882H8.5L16.5 508.5H11.1667L18.8333 497.076H15.1667L22.5 485L31.1667 500.014L27.5 499.035L34.1667 511.764L29.5 510.785L37.5 525.799L26.1667 521.882V531.198C35.6487 532.234 45.0971 533.328 54.5 534.471V523.5H39L51 503H43L54.5 485.5H49L60 467L73 490L67.5 488.5L77.5 508L70.5 506.5L82.5 529.5L65.5 523.5V535.832C73.3422 536.819 81.1492 537.838 88.9138 538.882V534.757H82.5L87.4655 526.5H84.1552L88.9138 519.451H86.6379L91.1897 512L96.569 521.264L94.2931 520.66L98.431 528.514L95.5345 527.91L100.5 537.174L93.4655 534.757V539.498C101.302 540.564 109.094 541.656 116.833 542.767V536.882H106.5L114.5 523.5H109.167L116.833 512.076H113.167L120.5 500L129.167 515.014L125.5 514.035L132.167 526.764L127.5 525.785L135.5 540.799L124.167 536.882V543.827C133.699 545.216 143.148 546.632 152.5 548.064V535.5H137L149 515H141L152.5 497.5H147L158 479L171 502L165.5 500.5L175.5 520L168.5 518.5L180.5 541.5L163.5 535.5V549.762C171.381 550.988 179.189 552.223 186.914 553.46V549.757H180.5L185.466 541.5H182.155L186.914 534.451H184.638L189.19 527L194.569 536.264L192.293 535.66L196.431 543.514L193.534 542.91L198.5 552.174L191.466 549.757V554.19C200.03 555.567 208.489 556.945 216.833 558.314V554.882H206.5L214.5 541.5H209.167L216.833 530.076H213.167L220.5 518L229.167 533.014L225.5 532.035L232.167 544.764L227.5 543.785L235.5 558.799L224.167 554.882V559.519C233.668 561.085 243.011 562.635 252.18 564.156L252.195 564.159L252.196 564.159L252.196 564.159L252.197 564.159L252.197 564.159L252.5 564.209V553.5H237L249 533H241L252.5 515.5H247L258 497L271 520L265.5 518.5L275.5 538L268.5 536.5L280.5 559.5L263.5 553.5V566.033C271.45 567.351 279.259 568.641 286.914 569.894V567.757H280.5L285.466 559.5H282.155L286.914 552.451H284.638L289.19 545L294.569 554.264L292.293 553.66L296.431 561.514L293.534 560.91L298.5 570.174L291.466 567.757V570.638C299.083 571.881 306.543 573.085 313.833 574.24V569.882H303.5L311.5 556.5H306.167L313.833 545.076H310.167L317.5 533L326.167 548.014L322.5 547.035L329.167 559.764L324.5 558.785L332.5 573.799L321.167 569.882V575.394C330.944 576.922 340.399 578.354 349.5 579.665V568.5H334L346 548H338L349.5 530.5H344L355 512L368 535L362.5 533.5L372.5 553L365.5 551.5L377.5 574.5L360.5 568.5V581.213C368.625 582.328 376.437 583.331 383.914 584.204V582.757H377.5L382.466 574.5H379.155L383.914 567.451H381.638L386.19 560L391.569 569.264L389.293 568.66L393.431 576.514L390.534 575.91L395.5 585.174L388.466 582.757V584.723C396.323 585.6 403.789 586.321 410.833 586.865V580.882H400.5L408.5 567.5H403.167L410.833 556.076H407.167L414.5 544L423.167 559.014L419.5 558.035L426.167 570.764L421.5 569.785L429.5 584.799L418.167 580.882V587.376C426.849 587.91 434.815 588.135 442 588C443.488 587.972 444.988 587.923 446.5 587.853V574.5H431L443 554H435L446.5 536.5H441L452 518L465 541L459.5 539.5L469.5 559L462.5 557.5L474.5 580.5L457.5 574.5V587.021C465.013 586.246 472.813 585.05 480.914 583.523V580.757H474.5L479.466 572.5H476.155L480.914 565.451H478.638L483.19 558L488.569 567.264L486.293 566.66L490.431 574.514L487.534 573.91L491.537 581.378C497.603 580.077 503.83 578.624 510.224 577.052V572.882L498.5 576.799L506.776 561.785L501.948 562.764L508.845 550.035L505.052 551.014L514.017 536L521.603 548.076H517.81L525.741 559.5H520.224L528.239 572.46C534.694 570.768 541.308 568.997 548.086 567.178V559.069L530.5 565.236L542.914 541.597L535.672 543.139L546.017 523.097L540.328 524.639L553.776 501L565.155 520.014H559.466L571.362 538H563.086L575.5 559.069H559.466V564.125C564.976 562.65 570.591 561.156 576.312 559.658L580.466 551.91L577.569 552.514L581.707 544.66L579.431 545.264L584.81 536L589.362 543.451H587.086L591.845 550.5H588.534L591.665 555.706C601.544 553.212 611.726 550.745 622.224 548.379V541.882L610.5 545.799L618.776 530.785L613.948 531.764L620.845 519.035L617.052 520.014L626.017 505L633.603 517.076H629.81L637.741 528.5H632.224L640.5 541.882H629.81V546.699C639.629 544.565 649.718 542.53 660.086 540.652V526.069L642.5 532.236L654.914 508.597L647.672 510.139L658.017 490.097L652.328 491.639L665.776 468L677.155 487.014H671.466L683.362 505H675.086L687.5 526.069H671.466V538.675C679.01 537.421 686.699 536.257 694.534 535.204V529.757L687.5 532.174L692.466 522.91L689.569 523.514L693.707 515.66L691.431 516.264L696.81 507L701.362 514.451H699.086L703.845 521.5H700.534L705.5 529.757H699.086V534.607C706.34 533.679 713.719 532.847 721.224 532.129V524.882L709.5 528.799L717.776 513.785L712.948 514.764L719.845 502.035L716.052 503.014L725.017 488L732.603 500.076H728.81L736.741 511.5H731.224L739.5 524.882H728.81V531.446C738.684 530.613 748.774 529.979 759.086 529.582V516.069L741.5 518.5L753.914 498.597H745.5L757.017 480.097L751.328 481.639L764.776 458ZM526.628 572.882H517.81V575.155C520.716 574.417 523.655 573.658 526.628 572.882ZM488.898 581.936L485.466 580.757V582.638C486.604 582.41 487.748 582.176 488.898 581.936Z" fill="#F5F5F5"/>
  <path fill-rule="evenodd" clip-rule="evenodd" d="M764.776 458L776.155 477.014H770.466L782.362 495H774.086L786.5 516.069H770.466V529.242C778.038 529.082 785.727 529.052 793.534 529.165V525.757L786.5 528.174L791.466 518.91L788.569 519.514L792.707 511.66L790.431 512.264L795.81 503L800.362 510.451H798.086L802.845 517.5H799.534L804.5 525.757H798.086V529.247C801.041 529.31 804.012 529.395 807 529.5V658.5H0V528.5C6.28874 529.108 12.5677 529.745 18.8333 530.409V521.882H8.5L16.5 508.5H11.1667L18.8333 497.076H15.1667L22.5 485L31.1667 500.014L27.5 499.035L34.1667 511.764L29.5 510.785L37.5 525.799L26.1667 521.882V531.198C35.6487 532.234 45.0971 533.328 54.5 534.471V523.5H39L51 503H43L54.5 485.5H49L60 467L73 490L67.5 488.5L77.5 508L70.5 506.5L82.5 529.5L65.5 523.5V535.832C73.3422 536.819 81.1492 537.838 88.9138 538.882V534.757H82.5L87.4655 526.5H84.1552L88.9138 519.451H86.6379L91.1897 512L96.569 521.264L94.2931 520.66L98.431 528.514L95.5345 527.91L100.5 537.174L93.4655 534.757V539.498C101.302 540.564 109.094 541.656 116.833 542.767V536.882H106.5L114.5 523.5H109.167L116.833 512.076H113.167L120.5 500L129.167 515.014L125.5 514.035L132.167 526.764L127.5 525.785L135.5 540.799L124.167 536.882V543.827C133.699 545.216 143.148 546.632 152.5 548.064V535.5H137L149 515H141L152.5 497.5H147L158 479L171 502L165.5 500.5L175.5 520L168.5 518.5L180.5 541.5L163.5 535.5V549.762C171.381 550.988 179.189 552.223 186.914 553.46V549.757H180.5L185.466 541.5H182.155L186.914 534.451H184.638L189.19 527L194.569 536.264L192.293 535.66L196.431 543.514L193.534 542.91L198.5 552.174L191.466 549.757V554.19C200.03 555.567 208.489 556.945 216.833 558.314V554.882H206.5L214.5 541.5H209.167L216.833 530.076H213.167L220.5 518L229.167 533.014L225.5 532.035L232.167 544.764L227.5 543.785L235.5 558.799L224.167 554.882V559.519C233.668 561.085 243.011 562.635 252.18 564.156L252.195 564.159L252.196 564.159L252.196 564.159L252.197 564.159L252.197 564.159L252.5 564.209V553.5H237L249 533H241L252.5 515.5H247L258 497L271 520L265.5 518.5L275.5 538L268.5 536.5L280.5 559.5L263.5 553.5V566.033C271.45 567.351 279.259 568.641 286.914 569.894V567.757H280.5L285.466 559.5H282.155L286.914 552.451H284.638L289.19 545L294.569 554.264L292.293 553.66L296.431 561.514L293.534 560.91L298.5 570.174L291.466 567.757V570.638C299.083 571.881 306.543 573.085 313.833 574.24V569.882H303.5L311.5 556.5H306.167L313.833 545.076H310.167L317.5 533L326.167 548.014L322.5 547.035L329.167 559.764L324.5 558.785L332.5 573.799L321.167 569.882V575.394C330.944 576.922 340.399 578.354 349.5 579.665V568.5H334L346 548H338L349.5 530.5H344L355 512L368 535L362.5 533.5L372.5 553L365.5 551.5L377.5 574.5L360.5 568.5V581.213C368.625 582.328 376.437 583.331 383.914 584.204V582.757H377.5L382.466 574.5H379.155L383.914 567.451H381.638L386.19 560L391.569 569.264L389.293 568.66L393.431 576.514L390.534 575.91L395.5 585.174L388.466 582.757V584.723C396.323 585.6 403.789 586.321 410.833 586.865V580.882H400.5L408.5 567.5H403.167L410.833 556.076H407.167L414.5 544L423.167 559.014L419.5 558.035L426.167 570.764L421.5 569.785L429.5 584.799L418.167 580.882V587.376C426.849 587.91 434.815 588.135 442 588C443.488 587.972 444.988 587.923 446.5 587.853V574.5H431L443 554H435L446.5 536.5H441L452 518L465 541L459.5 539.5L469.5 559L462.5 557.5L474.5 580.5L457.5 574.5V587.021C465.013 586.246 472.813 585.05 480.914 583.523V580.757H474.5L479.466 572.5H476.155L480.914 565.451H478.638L483.19 558L488.569 567.264L486.293 566.66L490.431 574.514L487.534 573.91L491.537 581.378C497.603 580.077 503.83 578.624 510.224 577.052V572.882L498.5 576.799L506.776 561.785L501.948 562.764L508.845 550.035L505.052 551.014L514.017 536L521.603 548.076H517.81L525.741 559.5H520.224L528.239 572.46C534.694 570.768 541.308 568.997 548.086 567.178V559.069L530.5 565.236L542.914 541.597L535.672 543.139L546.017 523.097L540.328 524.639L553.776 501L565.155 520.014H559.466L571.362 538H563.086L575.5 559.069H559.466V564.125C564.976 562.65 570.591 561.156 576.312 559.658L580.466 551.91L577.569 552.514L581.707 544.66L579.431 545.264L584.81 536L589.362 543.451H587.086L591.845 550.5H588.534L591.665 555.706C601.544 553.212 611.726 550.745 622.224 548.379V541.882L610.5 545.799L618.776 530.785L613.948 531.764L620.845 519.035L617.052 520.014L626.017 505L633.603 517.076H629.81L637.741 528.5H632.224L640.5 541.882H629.81V546.699C639.629 544.565 649.718 542.53 660.086 540.652V526.069L642.5 532.236L654.914 508.597L647.672 510.139L658.017 490.097L652.328 491.639L665.776 468L677.155 487.014H671.466L683.362 505H675.086L687.5 526.069H671.466V538.675C679.01 537.421 686.699 536.257 694.534 535.204V529.757L687.5 532.174L692.466 522.91L689.569 523.514L693.707 515.66L691.431 516.264L696.81 507L701.362 514.451H699.086L703.845 521.5H700.534L705.5 529.757H699.086V534.607C706.34 533.679 713.719 532.847 721.224 532.129V524.882L709.5 528.799L717.776 513.785L712.948 514.764L719.845 502.035L716.052 503.014L725.017 488L732.603 500.076H728.81L736.741 511.5H731.224L739.5 524.882H728.81V531.446C738.684 530.613 748.774 529.979 759.086 529.582V516.069L741.5 518.5L753.914 498.597H745.5L757.017 480.097L751.328 481.639L764.776 458ZM526.628 572.882H517.81V575.155C520.716 574.417 523.655 573.658 526.628 572.882ZM488.898 581.936L485.466 580.757V582.638C486.604 582.41 487.748 582.176 488.898 581.936Z" fill="url(#paint1_linear)"/>
  <path fill-rule="evenodd" clip-rule="evenodd" d="M 1571.788 459.54 L 1583.169 478.412 L 1577.478 478.412 L 1589.369 496.264 L 1581.098 496.264 L 1593.509 517.175 L 1577.478 517.175 L 1577.478 530.25 C 1585.049 530.091 1592.739 530.061 1600.539 530.173 L 1600.539 526.791 L 1593.509 529.19 L 1598.479 519.995 L 1595.579 520.594 L 1599.719 512.799 L 1597.439 513.399 L 1602.819 504.204 L 1607.37 511.599 L 1605.1 511.599 L 1609.85 518.595 L 1606.54 518.595 L 1611.51 526.791 L 1605.1 526.791 L 1605.1 530.255 C 1608.05 530.317 1611.02 530.402 1614.01 530.506 L 1614.01 658.045 L 806.974 658.045 L 806.974 529.513 C 813.263 530.117 819.543 530.749 825.808 531.408 L 825.808 522.945 L 815.475 522.945 L 823.475 509.663 L 818.142 509.663 L 825.808 498.324 L 822.142 498.324 L 829.475 486.338 L 838.143 501.24 L 834.475 500.268 L 841.143 512.902 L 836.475 511.931 L 844.476 526.832 L 833.142 522.945 L 833.142 532.191 C 842.625 533.219 852.073 534.305 861.477 535.44 L 861.477 523.558 L 845.976 523.558 L 857.976 503.211 L 849.976 503.211 L 861.477 485.842 L 855.976 485.842 L 866.977 467.48 L 879.977 490.309 L 874.477 488.82 L 884.478 508.174 L 877.477 506.685 L 889.478 529.513 L 872.477 523.558 L 872.477 536.79 C 880.319 537.77 888.127 538.781 895.892 539.818 L 895.892 535.723 L 889.478 535.723 L 894.444 527.528 L 891.133 527.528 L 895.892 520.532 L 893.616 520.532 L 898.168 513.137 L 903.547 522.331 L 901.271 521.732 L 905.41 529.527 L 902.512 528.928 L 907.479 538.122 L 900.444 535.723 L 900.444 540.429 C 908.281 541.487 916.073 542.571 923.812 543.674 L 923.812 537.833 L 913.479 537.833 L 921.479 524.551 L 916.146 524.551 L 923.812 513.212 L 920.146 513.212 L 927.48 501.226 L 936.147 516.128 L 932.48 515.156 L 939.147 527.79 L 934.48 526.818 L 942.48 541.72 L 931.147 537.833 L 931.147 544.726 C 940.679 546.104 950.129 547.51 959.481 548.931 L 959.481 536.461 L 943.98 536.461 L 955.981 516.114 L 947.98 516.114 L 959.481 498.745 L 953.981 498.745 L 964.981 480.383 L 977.982 503.211 L 972.482 501.723 L 982.482 521.077 L 975.482 519.588 L 987.482 542.416 L 970.481 536.461 L 970.481 550.616 C 978.363 551.833 986.171 553.059 993.896 554.287 L 993.896 550.611 L 987.482 550.611 L 992.448 542.416 L 989.137 542.416 L 993.896 535.42 L 991.62 535.42 L 996.173 528.024 L 1001.553 537.219 L 999.276 536.62 L 1003.413 544.415 L 1000.513 543.815 L 1005.483 553.01 L 998.449 550.611 L 998.449 555.011 C 1007.013 556.378 1015.473 557.746 1023.814 559.104 L 1023.814 555.698 L 1013.483 555.698 L 1021.484 542.416 L 1016.153 542.416 L 1023.814 531.077 L 1020.154 531.077 L 1027.484 519.092 L 1036.154 533.993 L 1032.484 533.022 L 1039.154 545.656 L 1034.484 544.684 L 1042.485 559.586 L 1031.154 555.698 L 1031.154 560.3 C 1040.655 561.855 1049.995 563.393 1059.165 564.903 L 1059.185 564.906 L 1059.185 564.906 L 1059.185 564.906 L 1059.185 564.906 L 1059.185 564.906 L 1059.485 564.955 L 1059.485 554.326 L 1043.985 554.326 L 1055.985 533.98 L 1047.985 533.98 L 1059.485 516.61 L 1053.985 516.61 L 1064.986 498.249 L 1077.986 521.077 L 1072.486 519.588 L 1082.486 538.942 L 1075.486 537.453 L 1087.487 560.281 L 1070.486 554.326 L 1070.486 566.766 C 1078.436 568.074 1086.247 569.354 1093.897 570.598 L 1093.897 568.477 L 1087.487 568.477 L 1092.457 560.281 L 1089.147 560.281 L 1093.897 553.285 L 1091.627 553.285 L 1096.177 545.89 L 1101.557 555.085 L 1099.277 554.485 L 1103.417 562.28 L 1100.517 561.681 L 1105.487 570.876 L 1098.457 568.477 L 1098.457 571.336 C 1106.067 572.57 1113.528 573.765 1120.818 574.911 L 1120.818 570.586 L 1110.488 570.586 L 1118.488 557.304 L 1113.158 557.304 L 1120.818 545.965 L 1117.158 545.965 L 1124.488 533.98 L 1133.159 548.881 L 1129.488 547.91 L 1136.159 560.543 L 1131.489 559.572 L 1139.489 574.474 L 1128.158 570.586 L 1128.158 576.057 C 1137.929 577.573 1147.389 578.994 1156.49 580.296 L 1156.49 569.214 L 1140.989 569.214 L 1152.99 548.867 L 1144.989 548.867 L 1156.49 531.498 L 1150.989 531.498 L 1161.99 513.137 L 1174.99 535.965 L 1169.49 534.476 L 1179.491 553.83 L 1172.49 552.341 L 1184.491 575.169 L 1167.49 569.214 L 1167.49 581.832 C 1175.611 582.939 1183.431 583.934 1190.901 584.801 L 1190.901 583.365 L 1184.491 583.365 L 1189.461 575.169 L 1186.151 575.169 L 1190.901 568.173 L 1188.631 568.173 L 1193.181 560.778 L 1198.562 569.972 L 1196.281 569.373 L 1200.422 577.168 L 1197.521 576.569 L 1202.492 585.763 L 1195.461 583.365 L 1195.461 585.316 C 1203.312 586.186 1210.782 586.902 1217.822 587.442 L 1217.822 581.504 L 1207.492 581.504 L 1215.492 568.222 L 1210.162 568.222 L 1217.822 556.883 L 1214.162 556.883 L 1221.493 544.897 L 1230.163 559.799 L 1226.493 558.827 L 1233.163 571.461 L 1228.493 570.49 L 1236.493 585.391 L 1225.163 581.504 L 1225.163 587.949 C 1233.843 588.479 1241.803 588.702 1248.994 588.568 C 1250.484 588.541 1251.984 588.492 1253.494 588.422 L 1253.494 575.169 L 1237.993 575.169 L 1249.994 554.823 L 1241.993 554.823 L 1253.494 537.453 L 1247.994 537.453 L 1258.994 519.092 L 1271.995 541.92 L 1266.495 540.431 L 1276.495 559.785 L 1269.495 558.296 L 1281.495 581.124 L 1264.494 575.169 L 1264.494 587.597 C 1272.005 586.827 1279.805 585.64 1287.905 584.125 L 1287.905 581.38 L 1281.495 581.38 L 1286.465 573.184 L 1283.155 573.184 L 1287.905 566.188 L 1285.635 566.188 L 1290.186 558.793 L 1295.566 567.987 L 1293.286 567.388 L 1297.426 575.183 L 1294.526 574.584 L 1298.536 581.996 C 1304.596 580.705 1310.827 579.262 1317.217 577.702 L 1317.217 573.563 L 1305.496 577.451 L 1313.777 562.549 L 1308.946 563.521 L 1315.837 550.887 L 1312.047 551.859 L 1321.017 536.957 L 1328.597 548.943 L 1324.807 548.943 L 1332.737 560.281 L 1327.217 560.281 L 1335.238 573.145 C 1341.688 571.465 1348.308 569.707 1355.088 567.902 L 1355.088 559.854 L 1337.498 565.975 L 1349.908 542.512 L 1342.668 544.043 L 1353.018 524.151 L 1347.328 525.681 L 1360.779 502.219 L 1372.159 521.091 L 1366.469 521.091 L 1378.36 538.942 L 1370.089 538.942 L 1382.5 559.854 L 1366.469 559.854 L 1366.469 564.872 C 1371.979 563.408 1377.589 561.925 1383.31 560.438 L 1387.47 552.748 L 1384.57 553.348 L 1388.71 545.552 L 1386.43 546.152 L 1391.81 536.957 L 1396.36 544.352 L 1394.09 544.352 L 1398.84 551.349 L 1395.53 551.349 L 1398.67 556.516 C 1408.541 554.04 1418.731 551.592 1429.222 549.244 L 1429.222 542.795 L 1417.501 546.683 L 1425.782 531.781 L 1420.951 532.753 L 1427.842 520.119 L 1424.052 521.091 L 1433.022 506.189 L 1440.602 518.175 L 1436.812 518.175 L 1444.742 529.513 L 1439.222 529.513 L 1447.503 542.795 L 1436.812 542.795 L 1436.812 547.576 C 1446.633 545.458 1456.723 543.438 1467.093 541.574 L 1467.093 527.1 L 1449.503 533.221 L 1461.913 509.759 L 1454.673 511.289 L 1465.023 491.397 L 1459.333 492.928 L 1472.784 469.466 L 1484.164 488.337 L 1478.474 488.337 L 1490.364 506.189 L 1482.094 506.189 L 1494.505 527.1 L 1478.474 527.1 L 1478.474 539.612 C 1486.014 538.368 1493.705 537.212 1501.535 536.167 L 1501.535 530.761 L 1494.505 533.16 L 1499.475 523.965 L 1496.575 524.564 L 1500.715 516.769 L 1498.435 517.369 L 1503.815 508.174 L 1508.365 515.569 L 1506.095 515.569 L 1510.845 522.566 L 1507.535 522.566 L 1512.505 530.761 L 1506.095 530.761 L 1506.095 535.575 C 1525.216 533.146 1545.197 531.387 1566.098 530.587 L 1566.098 517.175 L 1548.507 519.588 L 1560.918 499.834 L 1552.507 499.834 L 1564.028 481.472 L 1558.337 483.003 L 1571.788 459.54 Z M 1333.628 573.563 L 1324.807 573.563 L 1324.807 575.819 C 1327.717 575.087 1330.657 574.334 1333.628 573.563 Z M 1295.896 582.55 L 1292.466 581.38 L 1292.466 583.246 C 1293.596 583.02 1294.746 582.788 1295.896 582.55 Z M 1532.026 486.338 L 1539.607 498.324 L 1535.816 498.324 L 1543.747 509.663 L 1538.227 509.663 L 1546.507 522.945 L 1535.816 522.945 L 1535.816 531.691 L 1528.226 532.987 L 1528.226 522.945 L 1516.506 526.832 L 1524.786 511.931 L 1519.956 512.902 L 1526.846 500.268 L 1523.056 501.24 L 1532.026 486.338 Z" fill="#F5F5F5" style=""/>
  <path fill-rule="evenodd" clip-rule="evenodd" d="M 1571.048 459.343 L 1582.43 478.206 L 1576.739 478.206 L 1588.63 496.05 L 1580.359 496.05 L 1592.771 516.952 L 1576.739 516.952 L 1576.739 530.021 C 1584.31 529.863 1592.001 529.833 1599.802 529.944 L 1599.802 526.564 L 1592.771 528.962 L 1597.742 519.771 L 1594.842 520.37 L 1598.982 512.578 L 1596.702 513.177 L 1602.082 503.987 L 1606.633 511.378 L 1604.362 511.378 L 1609.114 518.372 L 1605.803 518.372 L 1610.774 526.564 L 1604.362 526.564 L 1604.362 530.026 C 1607.313 530.089 1610.284 530.172 1613.274 530.277 L 1613.274 657.76 L 806.154 657.76 L 806.154 529.285 C 812.444 529.889 818.724 530.52 824.99 531.179 L 824.99 522.719 L 814.656 522.719 L 822.656 509.443 L 817.323 509.443 L 824.99 498.109 L 821.323 498.109 L 828.658 486.129 L 837.326 501.024 L 833.658 500.053 L 840.326 512.682 L 835.658 511.71 L 843.66 526.605 L 832.325 522.719 L 832.325 531.962 C 841.809 532.989 851.258 534.074 860.662 535.208 L 860.662 523.332 L 845.16 523.332 L 857.162 502.995 L 849.16 502.995 L 860.662 485.634 L 855.162 485.634 L 866.163 467.28 L 879.165 490.097 L 873.664 488.61 L 883.666 507.955 L 876.665 506.467 L 888.667 529.285 L 871.664 523.332 L 871.664 536.559 C 879.507 537.538 887.315 538.549 895.081 539.584 L 895.081 535.492 L 888.667 535.492 L 893.633 527.301 L 890.322 527.301 L 895.081 520.307 L 892.805 520.307 L 897.357 512.916 L 902.738 522.107 L 900.461 521.507 L 904.6 529.299 L 901.703 528.7 L 906.669 537.891 L 899.634 535.492 L 899.634 540.196 C 907.471 541.253 915.265 542.337 923.004 543.439 L 923.004 537.601 L 912.67 537.601 L 920.671 524.325 L 915.338 524.325 L 923.004 512.991 L 919.338 512.991 L 926.672 501.011 L 935.34 515.906 L 931.673 514.935 L 938.34 527.563 L 933.673 526.591 L 941.675 541.487 L 930.34 537.601 L 930.34 544.491 C 939.873 545.869 949.323 547.274 958.677 548.695 L 958.677 536.23 L 943.175 536.23 L 955.177 515.892 L 947.175 515.892 L 958.677 498.53 L 953.176 498.53 L 964.177 480.176 L 977.179 502.995 L 971.679 501.506 L 981.68 520.852 L 974.679 519.364 L 986.681 542.182 L 969.679 536.23 L 969.679 550.378 C 977.56 551.595 985.37 552.821 993.096 554.047 L 993.096 550.373 L 986.681 550.373 L 991.648 542.182 L 988.336 542.182 L 993.096 535.188 L 990.819 535.188 L 995.372 527.797 L 1000.753 536.988 L 998.476 536.388 L 1002.613 544.18 L 999.713 543.581 L 1004.684 552.772 L 997.649 550.373 L 997.649 554.772 C 1006.214 556.138 1014.675 557.505 1023.016 558.863 L 1023.016 555.458 L 1012.685 555.458 L 1020.686 542.182 L 1015.355 542.182 L 1023.016 530.848 L 1019.356 530.848 L 1026.687 518.868 L 1035.358 533.764 L 1031.688 532.792 L 1038.358 545.42 L 1033.688 544.449 L 1041.689 559.344 L 1030.358 555.458 L 1030.358 560.058 C 1039.859 561.612 1049.2 563.15 1058.372 564.659 L 1058.392 564.662 L 1058.392 564.662 L 1058.392 564.662 L 1058.392 564.662 L 1058.392 564.662 L 1058.692 564.712 L 1058.692 554.087 L 1043.19 554.087 L 1055.191 533.75 L 1047.19 533.75 L 1058.692 516.387 L 1053.191 516.387 L 1064.192 498.035 L 1077.194 520.852 L 1071.694 519.364 L 1081.696 538.71 L 1074.694 537.222 L 1086.696 560.039 L 1069.694 554.087 L 1069.694 566.521 C 1077.644 567.828 1085.456 569.109 1093.106 570.351 L 1093.106 568.231 L 1086.696 568.231 L 1091.666 560.039 L 1088.356 560.039 L 1093.106 553.047 L 1090.836 553.047 L 1095.387 545.655 L 1100.768 554.845 L 1098.488 554.245 L 1102.628 562.037 L 1099.728 561.438 L 1104.698 570.629 L 1097.668 568.231 L 1097.668 571.09 C 1105.278 572.323 1112.74 573.517 1120.031 574.663 L 1120.031 570.339 L 1109.699 570.339 L 1117.7 557.063 L 1112.37 557.063 L 1120.031 545.73 L 1116.37 545.73 L 1123.701 533.75 L 1132.373 548.645 L 1128.702 547.673 L 1135.373 560.302 L 1130.702 559.33 L 1138.704 574.225 L 1127.372 570.339 L 1127.372 575.807 C 1137.143 577.324 1146.605 578.745 1155.706 580.045 L 1155.706 568.968 L 1140.204 568.968 L 1152.206 548.631 L 1144.204 548.631 L 1155.706 531.27 L 1150.205 531.27 L 1161.207 512.916 L 1174.209 535.733 L 1168.708 534.246 L 1178.709 553.591 L 1171.709 552.103 L 1183.711 574.921 L 1166.708 568.968 L 1166.708 581.581 C 1174.829 582.687 1182.65 583.682 1190.121 584.548 L 1190.121 583.112 L 1183.711 583.112 L 1188.681 574.921 L 1185.371 574.921 L 1190.121 567.928 L 1187.851 567.928 L 1192.401 560.536 L 1197.783 569.726 L 1195.502 569.127 L 1199.643 576.918 L 1196.743 576.32 L 1201.713 585.51 L 1194.682 583.112 L 1194.682 585.063 C 1202.533 585.933 1210.005 586.648 1217.045 587.188 L 1217.045 581.253 L 1206.713 581.253 L 1214.715 567.976 L 1209.385 567.976 L 1217.045 556.643 L 1213.385 556.643 L 1220.715 544.662 L 1229.387 559.557 L 1225.717 558.586 L 1232.387 571.214 L 1227.717 570.244 L 1235.718 585.139 L 1224.387 581.253 L 1224.387 587.694 C 1233.067 588.225 1241.029 588.448 1248.22 588.314 C 1249.71 588.286 1251.211 588.237 1252.721 588.168 L 1252.721 574.921 L 1237.219 574.921 L 1249.22 554.583 L 1241.219 554.583 L 1252.721 537.222 L 1247.219 537.222 L 1258.221 518.868 L 1271.223 541.686 L 1265.723 540.198 L 1275.724 559.543 L 1268.723 558.056 L 1280.725 580.873 L 1263.722 574.921 L 1263.722 587.343 C 1271.233 586.573 1279.034 585.388 1287.136 583.872 L 1287.136 581.128 L 1280.725 581.128 L 1285.695 572.937 L 1282.385 572.937 L 1287.136 565.943 L 1284.865 565.943 L 1289.416 558.552 L 1294.797 567.743 L 1292.516 567.143 L 1296.657 574.935 L 1293.757 574.336 L 1297.767 581.744 C 1303.828 580.454 1310.059 579.012 1316.45 577.452 L 1316.45 573.315 L 1304.728 577.201 L 1313.01 562.306 L 1308.179 563.278 L 1315.07 550.649 L 1311.279 551.621 L 1320.25 536.726 L 1327.832 548.706 L 1324.041 548.706 L 1331.972 560.039 L 1326.452 560.039 L 1334.472 572.897 C 1340.924 571.218 1347.544 569.461 1354.326 567.657 L 1354.326 559.612 L 1336.733 565.73 L 1349.144 542.279 L 1341.904 543.808 L 1352.256 523.925 L 1346.564 525.455 L 1360.016 502.002 L 1371.398 520.866 L 1365.708 520.866 L 1377.599 538.71 L 1369.328 538.71 L 1381.74 559.612 L 1365.708 559.612 L 1365.708 564.628 C 1371.218 563.164 1376.829 561.683 1382.55 560.196 L 1386.71 552.51 L 1383.81 553.109 L 1387.95 545.317 L 1385.67 545.917 L 1391.051 536.726 L 1395.602 544.118 L 1393.332 544.118 L 1398.082 551.111 L 1394.772 551.111 L 1397.912 556.276 C 1407.784 553.801 1417.975 551.354 1428.467 549.006 L 1428.467 542.561 L 1416.745 546.447 L 1425.026 531.552 L 1420.195 532.523 L 1427.086 519.895 L 1423.296 520.866 L 1432.267 505.971 L 1439.848 517.952 L 1436.058 517.952 L 1443.989 529.285 L 1438.468 529.285 L 1446.749 542.561 L 1436.058 542.561 L 1436.058 547.339 C 1445.879 545.223 1455.971 543.204 1466.343 541.341 L 1466.343 526.873 L 1448.749 532.991 L 1461.161 509.539 L 1453.921 511.07 L 1464.272 491.186 L 1458.581 492.716 L 1472.033 469.264 L 1483.415 488.128 L 1477.724 488.128 L 1489.615 505.971 L 1481.345 505.971 L 1493.757 526.873 L 1477.724 526.873 L 1477.724 539.379 C 1485.265 538.136 1492.957 536.981 1500.787 535.936 L 1500.787 530.532 L 1493.757 532.93 L 1498.727 523.739 L 1495.827 524.339 L 1499.967 516.547 L 1497.687 517.146 L 1503.067 507.955 L 1507.619 515.347 L 1505.348 515.347 L 1510.099 522.341 L 1506.789 522.341 L 1511.759 530.532 L 1505.348 530.532 L 1505.348 535.344 C 1524.471 532.916 1544.454 531.158 1565.357 530.359 L 1565.357 516.952 L 1547.764 519.364 L 1560.176 499.619 L 1551.765 499.619 L 1563.287 481.265 L 1557.596 482.795 L 1571.048 459.343 Z M 1332.862 573.315 L 1324.041 573.315 L 1324.041 575.57 C 1326.952 574.839 1329.892 574.086 1332.862 573.315 Z M 1295.127 582.298 L 1291.696 581.128 L 1291.696 582.994 C 1292.826 582.768 1293.977 582.536 1295.127 582.298 Z M 1531.282 486.129 L 1538.863 498.109 L 1535.073 498.109 L 1543.003 509.443 L 1537.483 509.443 L 1545.764 522.719 L 1535.073 522.719 L 1535.073 531.462 L 1527.481 532.757 L 1527.481 522.719 L 1515.759 526.605 L 1524.041 511.71 L 1519.21 512.682 L 1526.101 500.053 L 1522.311 501.024 L 1531.282 486.129 Z" fill="url(#paint2_linear)" style=""/>
  <defs>
    <linearGradient id="paint0_linear" x1="720" y1="4" x2="720" y2="789" gradientUnits="userSpaceOnUse">
      <stop offset="0.2969" stop-color="#0A1A75"/>
      <stop offset="0.9735" stop-color="#1531D0" stop-opacity="0"/>
    </linearGradient>
    <linearGradient id="paint1_linear" x1="403.5" y1="458" x2="402.695" y2="756.211" gradientUnits="userSpaceOnUse">
      <stop offset="0.3799" stop-color="white"/>
      <stop offset="0.6595" stop-color="white" stop-opacity="0"/>
    </linearGradient>
    <linearGradient id="paint2_linear" x1="1210.5" y1="458" x2="1211" y2="839" gradientUnits="userSpaceOnUse" gradientTransform="matrix(1.000149, 0, 0, 0.992085, -0.965393, 4.969147)">
      <stop offset="0.318" stop-color="white"/>
      <stop offset="0.5166" stop-color="white" stop-opacity="0"/>
    </linearGradient>
  </defs>
</svg>