<?xml version="1.0" encoding="utf-8"?>
<svg width="1440" height="596" viewBox="0 7.107 1440 588.893" fill="none" preserveAspectRatio="xMinYMax" xmlns="http://www.w3.org/2000/svg">
  <path d="M0 4H1440V574H0V4Z" fill="#0A1971"/>
  <path d="M0 4H1440V574H0V4Z" fill="url(#paint0_linear)" style="stroke-width: 0.987927; vector-effect: non-scaling-stroke;" transform="matrix(1, 0, 0, 0.9959072772347478, 0, 2.349222867254756)"/>
  <path fill-rule="evenodd" clip-rule="evenodd" d="M440.776 468L452.155 485.088H446.466L458.362 501.253H450.086L462.5 520.189H446.466V532.028C454.038 531.884 461.727 531.857 469.534 531.958V528.895L462.5 531.067L467.466 522.742L464.569 523.285L468.707 516.226L466.431 516.769L471.81 508.443L476.362 515.14H474.086L478.845 521.475H475.534L480.5 528.895H474.086V532.032C477.041 532.089 480.012 532.165 483 532.26V610H-324V531.361C-317.711 531.907 -311.432 532.48 -305.167 533.076V525.413H-315.5L-307.5 513.386H-312.833L-305.167 503.119H-308.833L-301.5 492.266L-292.833 505.759L-296.5 504.879L-289.833 516.319L-294.5 515.439L-286.5 528.933L-297.833 525.413V533.785C-285.65 534.982 -273.521 536.265 -261.474 537.615L-269.5 536.304V524.171H-285L-273 505.747H-281L-269.5 490.019H-275L-264 473.392L-251 494.063L-256.5 492.715L-246.5 510.241L-253.5 508.892L-241.5 529.563L-258.5 524.171V537.95C-250.658 538.838 -242.851 539.753 -235.086 540.692V536.984H-241.5L-236.534 529.563H-239.845L-235.086 523.228H-237.362L-232.81 516.532L-227.431 524.857L-229.707 524.314L-225.569 531.373L-228.466 530.83L-223.5 539.156L-230.534 536.984V541.245C-222.698 542.203 -214.906 543.184 -207.167 544.183V538.894H-217.5L-209.5 526.867H-214.833L-207.167 516.6H-210.833L-203.5 505.747L-194.833 519.24L-198.5 518.36L-191.833 529.8L-196.5 528.92L-188.5 542.414L-199.833 538.894V545.136C-190.301 546.384 -180.852 547.657 -171.5 548.944V537.652H-187L-175 519.228H-183L-171.5 503.5H-177L-166 486.873L-153 507.544L-158.5 506.196L-148.5 523.722L-155.5 522.373L-143.5 543.044L-160.5 537.652V550.47C-152.619 551.572 -144.811 552.681 -137.086 553.793V550.465H-143.5L-138.534 543.044H-141.845L-137.086 536.709H-139.362L-134.81 530.013L-129.431 538.338L-131.707 537.795L-127.569 544.854L-130.466 544.311L-125.5 552.637L-132.534 550.465V554.449C-123.97 555.687 -115.511 556.925 -107.167 558.155V555.071H-117.5L-109.5 543.044H-114.833L-107.167 532.778H-110.833L-103.5 521.924L-94.8333 535.418L-98.5 534.538L-91.8333 545.978L-96.5 545.098L-88.5 558.591L-99.8333 555.071V559.239C-90.3274 560.646 -80.979 562.04 -71.806 563.408L-71.8042 563.408L-71.8038 563.408L-71.5 563.454V553.829H-87L-75 535.405H-83L-71.5 519.677H-77L-66 503.051L-53 523.722L-58.5 522.373L-48.5 539.899L-55.5 538.551L-43.5 559.222L-60.5 553.829V565.093C-52.5495 566.277 -44.7409 567.437 -37.0862 568.563V566.642H-43.5L-38.5345 559.222H-41.8448L-37.0862 552.887H-39.3621L-34.8103 546.19L-29.431 554.516L-31.7069 553.973L-27.569 561.031L-30.4655 560.489L-25.5 568.814L-32.5345 566.642V569.232C-24.9171 570.349 -17.457 571.431 -10.1667 572.469V568.552H-20.5L-12.5 556.525H-17.8333L-10.1667 546.259H-13.8333L-6.5 535.405L2.16666 548.899L-1.5 548.019L5.16666 559.459L0.5 558.579L8.5 572.072L-2.83334 568.552V573.506C6.94424 574.879 16.399 576.166 25.5 577.345V567.31H10L22 548.886H14L25.5 533.158H20L31 516.532L44 537.203L38.5 535.854L48.5 553.38L41.5 552.032L53.5 572.703L36.5 567.31V578.736C44.6248 579.738 52.4375 580.639 59.9138 581.424V580.123H53.5L58.4655 572.703H55.1552L59.9138 566.368H57.6379L62.1897 559.671L67.569 567.997L65.2931 567.454L69.431 574.513L66.5345 573.97L71.5 582.295L64.4655 580.123V581.891C72.3229 582.678 79.7888 583.327 86.8333 583.816V578.438H76.5L84.5 566.411H79.1667L86.8333 556.145H83.1667L90.5 545.291L99.1667 558.785L95.5 557.905L102.167 569.345L97.5 568.465L105.5 581.958L94.1667 578.438V584.274C102.849 584.754 110.815 584.957 118 584.835C119.488 584.81 120.988 584.766 122.5 584.704V572.703H107L119 554.278H111L122.5 538.551H117L128 521.924L141 542.595L135.5 541.247L145.5 558.772L138.5 557.424L150.5 578.095L133.5 572.703V583.956C141.013 583.259 148.813 582.184 156.914 580.812V578.326H150.5L155.466 570.905H152.155L156.914 564.57H154.638L159.19 557.873L164.569 566.199L162.293 565.656L166.431 572.715L163.534 572.172L167.537 578.884C173.603 577.715 179.83 576.409 186.224 574.997V571.248L174.5 574.768L182.776 561.275L177.948 562.155L184.845 550.715L181.052 551.595L190.017 538.101L197.603 548.955H193.81L201.741 559.222H196.224L204.239 570.87C210.694 569.349 217.308 567.757 224.086 566.122V558.835L206.5 564.377L218.914 543.132L211.672 544.517L222.017 526.505L216.328 527.891L229.776 506.646L241.155 523.734H235.466L247.362 539.899H239.086L251.5 558.835H235.466V563.378C240.976 562.053 246.591 560.71 252.312 559.364L256.466 552.4L253.569 552.943L257.707 545.884L255.431 546.427L260.81 538.101L265.362 544.798H263.086L267.845 551.133H264.534L267.665 555.812C277.544 553.57 287.726 551.354 298.224 549.227V543.388L286.5 546.908L294.776 533.414L289.948 534.294L296.845 522.854L293.052 523.734L302.017 510.241L309.603 521.094H305.81L313.741 531.361H308.224L316.5 543.388H305.81V547.717C315.629 545.799 325.718 543.97 336.086 542.282V529.176L318.5 534.719L330.914 513.473L323.672 514.859L334.017 496.847L328.328 498.232L341.776 476.987L353.155 494.076H347.466L359.362 510.241H351.086L363.5 529.176H347.466V540.506C355.01 539.378 362.699 538.332 370.534 537.386V532.49L363.5 534.662L368.466 526.337L365.569 526.88L369.707 519.821L367.431 520.364L372.81 512.038L377.362 518.735H375.086L379.845 525.07H376.534L381.5 532.49H375.086V536.849C394.206 534.651 414.191 533.057 435.086 532.333V520.189L417.5 522.373L429.914 504.486H421.5L433.017 487.86L427.328 489.245L440.776 468ZM202.628 571.248H193.81V573.292C196.716 572.628 199.655 571.946 202.628 571.248ZM164.898 579.386L161.466 578.326V580.016C162.604 579.811 163.748 579.601 164.898 579.386ZM401.017 492.266L408.603 503.119H404.81L412.741 513.386H407.224L415.5 525.413H404.81V533.333L397.224 534.506V525.413L385.5 528.933L393.776 515.439L388.948 516.319L395.845 504.879L392.052 505.759L401.017 492.266Z" fill="#2562B4"/>
  <path fill-rule="evenodd" clip-rule="evenodd" d="M 1247.514 468.897 L 1258.904 485.985 L 1253.209 485.985 L 1265.11 502.15 L 1256.832 502.15 L 1269.253 521.086 L 1253.209 521.086 L 1253.209 532.925 C 1260.786 532.781 1268.482 532.754 1276.289 532.855 L 1276.289 529.792 L 1269.253 531.964 L 1274.227 523.639 L 1271.325 524.182 L 1275.469 517.123 L 1273.187 517.666 L 1278.571 509.34 L 1283.125 516.037 L 1280.853 516.037 L 1285.607 522.372 L 1282.294 522.372 L 1287.269 529.792 L 1280.853 529.792 L 1280.853 532.929 C 1283.806 532.986 1286.778 533.062 1289.771 533.157 L 1289.771 610.897 L 482.069 610.897 L 482.069 532.258 C 488.364 532.804 494.648 533.377 500.919 533.973 L 500.919 526.31 L 490.577 526.31 L 498.584 514.283 L 493.246 514.283 L 500.919 504.016 L 497.25 504.016 L 504.589 493.163 L 513.263 506.656 L 509.593 505.776 L 516.266 517.216 L 511.595 516.336 L 519.602 529.83 L 508.259 526.31 L 508.259 534.682 C 520.453 535.879 532.592 537.162 544.65 538.512 L 536.617 537.201 L 536.617 525.068 L 521.103 525.068 L 533.114 506.644 L 525.107 506.644 L 536.617 490.916 L 531.112 490.916 L 542.122 474.289 L 555.133 494.96 L 549.628 493.612 L 559.637 511.138 L 552.631 509.789 L 564.641 530.46 L 547.626 525.068 L 547.626 538.847 C 555.475 539.735 563.289 540.65 571.061 541.589 L 571.061 537.881 L 564.641 537.881 L 569.611 530.46 L 566.298 530.46 L 571.061 524.125 L 568.783 524.125 L 573.339 517.429 L 578.722 525.754 L 576.444 525.211 L 580.586 532.27 L 577.686 531.727 L 582.657 540.053 L 575.617 537.881 L 575.617 542.142 C 583.459 543.1 591.258 544.081 599.004 545.08 L 599.004 539.791 L 588.662 539.791 L 596.669 527.764 L 591.331 527.764 L 599.004 517.497 L 595.335 517.497 L 602.674 506.644 L 611.349 520.137 L 607.678 519.257 L 614.351 530.697 L 609.68 529.817 L 617.687 543.311 L 606.344 539.791 L 606.344 546.033 C 615.885 547.281 625.342 548.554 634.702 549.841 L 634.702 538.549 L 619.188 538.549 L 631.199 520.125 L 623.192 520.125 L 634.702 504.397 L 629.197 504.397 L 640.207 487.77 L 653.218 508.441 L 647.713 507.093 L 657.722 524.619 L 650.716 523.27 L 662.726 543.941 L 645.711 538.549 L 645.711 551.367 C 653.599 552.469 661.414 553.578 669.146 554.69 L 669.146 551.362 L 662.726 551.362 L 667.697 543.941 L 664.383 543.941 L 669.146 537.606 L 666.868 537.606 L 671.424 530.91 L 676.808 539.235 L 674.53 538.692 L 678.671 545.751 L 675.772 545.208 L 680.742 553.534 L 673.702 551.362 L 673.702 555.346 C 682.273 556.584 690.74 557.822 699.091 559.052 L 699.091 555.968 L 688.749 555.968 L 696.756 543.941 L 691.418 543.941 L 699.091 533.675 L 695.422 533.675 L 702.761 522.821 L 711.436 536.315 L 707.765 535.435 L 714.438 546.875 L 709.767 545.995 L 717.774 559.488 L 706.431 555.968 L 706.431 560.136 C 715.946 561.543 725.302 562.937 734.483 564.305 L 734.485 564.305 L 734.485 564.305 L 734.789 564.351 L 734.789 554.726 L 719.275 554.726 L 731.286 536.302 L 723.279 536.302 L 734.789 520.574 L 729.284 520.574 L 740.294 503.948 L 753.305 524.619 L 747.8 523.27 L 757.809 540.796 L 750.803 539.448 L 762.813 560.119 L 745.798 554.726 L 745.798 565.99 C 753.755 567.174 761.571 568.334 769.233 569.46 L 769.233 567.539 L 762.813 567.539 L 767.784 560.119 L 764.47 560.119 L 769.233 553.784 L 766.955 553.784 L 771.511 547.087 L 776.894 555.413 L 774.616 554.87 L 778.758 561.928 L 775.859 561.386 L 780.829 569.711 L 773.789 567.539 L 773.789 570.129 C 781.412 571.246 788.879 572.328 796.175 573.366 L 796.175 569.449 L 785.833 569.449 L 793.84 557.422 L 788.503 557.422 L 796.175 547.156 L 792.506 547.156 L 799.845 536.302 L 808.52 549.796 L 804.85 548.916 L 811.523 560.356 L 806.851 559.476 L 814.858 572.969 L 803.516 569.449 L 803.516 574.403 C 813.301 575.776 822.764 577.063 831.873 578.242 L 831.873 568.207 L 816.36 568.207 L 828.37 549.783 L 820.363 549.783 L 831.873 534.055 L 826.368 534.055 L 837.378 517.429 L 850.389 538.1 L 844.885 536.751 L 854.893 554.277 L 847.887 552.929 L 859.898 573.6 L 842.883 568.207 L 842.883 579.633 C 851.015 580.635 858.834 581.536 866.317 582.321 L 866.317 581.02 L 859.898 581.02 L 864.868 573.6 L 861.554 573.6 L 866.317 567.265 L 864.039 567.265 L 868.595 560.568 L 873.979 568.894 L 871.701 568.351 L 875.842 575.41 L 872.943 574.867 L 877.913 583.192 L 870.873 581.02 L 870.873 582.788 C 878.737 583.575 886.209 584.224 893.26 584.713 L 893.26 579.335 L 882.918 579.335 L 890.924 567.308 L 885.587 567.308 L 893.26 557.042 L 889.59 557.042 L 896.93 546.188 L 905.604 559.682 L 901.934 558.802 L 908.607 570.242 L 903.936 569.362 L 911.943 582.855 L 900.6 579.335 L 900.6 585.171 C 909.289 585.651 917.262 585.854 924.454 585.732 C 925.943 585.707 927.444 585.663 928.958 585.601 L 928.958 573.6 L 913.444 573.6 L 925.454 555.175 L 917.448 555.175 L 928.958 539.448 L 923.453 539.448 L 934.462 522.821 L 947.474 543.492 L 941.969 542.144 L 951.978 559.669 L 944.971 558.321 L 956.982 578.992 L 939.967 573.6 L 939.967 584.853 C 947.487 584.156 955.293 583.081 963.401 581.709 L 963.401 579.223 L 956.982 579.223 L 961.952 571.802 L 958.638 571.802 L 963.401 565.467 L 961.123 565.467 L 965.679 558.77 L 971.063 567.096 L 968.785 566.553 L 972.927 573.612 L 970.027 573.069 L 974.034 579.781 C 980.105 578.612 986.337 577.306 992.737 575.894 L 992.737 572.145 L 981.003 575.665 L 989.286 562.172 L 984.454 563.052 L 991.357 551.612 L 987.56 552.492 L 996.533 538.998 L 1004.123 549.852 L 1000.33 549.852 L 1008.266 560.119 L 1002.742 560.119 L 1010.769 571.767 C 1017.224 570.246 1023.85 568.654 1030.636 567.019 L 1030.636 559.732 L 1013.031 565.274 L 1025.451 544.029 L 1018.205 545.414 L 1028.564 527.402 L 1022.869 528.788 L 1036.331 507.543 L 1047.721 524.631 L 1042.026 524.631 L 1053.926 540.796 L 1045.649 540.796 L 1058.07 559.732 L 1042.026 559.732 L 1042.026 564.275 C 1047.541 562.95 1053.155 561.607 1058.88 560.261 L 1063.044 553.297 L 1060.141 553.84 L 1064.285 546.781 L 1062.003 547.324 L 1067.388 538.998 L 1071.942 545.695 L 1069.67 545.695 L 1074.424 552.03 L 1071.111 552.03 L 1074.254 556.709 C 1084.132 554.467 1094.331 552.251 1104.83 550.124 L 1104.83 544.285 L 1093.1 547.805 L 1101.387 534.311 L 1096.553 535.191 L 1103.449 523.751 L 1099.656 524.631 L 1108.634 511.138 L 1116.22 521.991 L 1112.427 521.991 L 1120.364 532.258 L 1114.839 532.258 L 1123.126 544.285 L 1112.427 544.285 L 1112.427 548.614 C 1122.255 546.696 1132.354 544.867 1142.733 543.179 L 1142.733 530.073 L 1125.128 535.616 L 1137.549 514.37 L 1130.302 515.756 L 1140.661 497.744 L 1134.966 499.129 L 1148.428 477.884 L 1159.818 494.973 L 1154.123 494.973 L 1166.023 511.138 L 1157.746 511.138 L 1170.167 530.073 L 1154.123 530.073 L 1154.123 541.403 C 1161.67 540.275 1169.366 539.229 1177.203 538.283 L 1177.203 533.387 L 1170.167 535.559 L 1175.141 527.234 L 1172.239 527.777 L 1176.382 520.718 L 1174.1 521.261 L 1179.485 512.935 L 1184.039 519.632 L 1181.767 519.632 L 1186.521 525.967 L 1183.208 525.967 L 1188.183 533.387 L 1181.767 533.387 L 1181.767 537.746 C 1200.904 535.548 1220.901 533.954 1241.819 533.23 L 1241.819 521.086 L 1224.214 523.27 L 1236.635 505.383 L 1228.217 505.383 L 1239.747 488.757 L 1234.053 490.142 L 1247.514 468.897 Z M 1009.157 572.145 L 1000.33 572.145 L 1000.33 574.189 C 1003.242 573.525 1006.185 572.843 1009.157 572.145 Z M 971.392 580.283 L 967.957 579.223 L 967.957 580.913 C 969.096 580.708 970.241 580.498 971.392 580.283 Z M 1207.72 493.163 L 1215.306 504.016 L 1211.513 504.016 L 1219.45 514.283 L 1213.925 514.283 L 1222.212 526.31 L 1211.513 526.31 L 1211.513 534.23 L 1203.916 535.403 L 1203.916 526.31 L 1192.186 529.83 L 1200.473 516.336 L 1195.639 517.216 L 1202.535 505.776 L 1198.742 506.656 L 1207.72 493.163 Z" fill="#2562B4" style=""/>
  <path fill-rule="evenodd" clip-rule="evenodd" d="M 2054.366 469.781 L 2065.756 486.869 L 2060.061 486.869 L 2071.962 503.034 L 2063.684 503.034 L 2076.106 521.97 L 2060.061 521.97 L 2060.061 533.809 C 2067.638 533.665 2075.335 533.638 2083.142 533.739 L 2083.142 530.676 L 2076.106 532.848 L 2081.081 524.523 L 2078.178 525.066 L 2082.322 518.007 L 2080.04 518.55 L 2085.425 510.224 L 2089.979 516.921 L 2087.707 516.921 L 2092.461 523.256 L 2089.148 523.256 L 2094.123 530.676 L 2087.707 530.676 L 2087.707 533.813 C 2090.66 533.87 2093.632 533.946 2096.625 534.041 L 2096.625 611.781 L 1288.868 611.781 L 1288.868 533.142 C 1295.164 533.688 1301.45 534.261 1307.716 534.857 L 1307.716 527.194 L 1297.376 527.194 L 1305.384 515.167 L 1300.049 515.167 L 1307.716 504.9 L 1304.053 504.9 L 1311.39 494.047 L 1320.068 507.54 L 1316.394 506.66 L 1323.071 518.1 L 1318.396 517.22 L 1326.404 530.714 L 1315.063 527.194 L 1315.063 535.566 C 1327.254 536.763 1339.396 538.046 1351.457 539.396 L 1343.42 538.085 L 1343.42 525.952 L 1327.905 525.952 L 1339.916 507.528 L 1331.909 507.528 L 1343.42 491.8 L 1337.914 491.8 L 1348.925 475.173 L 1361.937 495.844 L 1356.432 494.496 L 1366.441 512.022 L 1359.435 510.673 L 1371.446 531.344 L 1354.43 525.952 L 1354.43 539.731 C 1362.277 540.619 1370.095 541.534 1377.862 542.473 L 1377.862 538.765 L 1371.446 538.765 L 1376.421 531.344 L 1373.107 531.344 L 1377.862 525.009 L 1375.59 525.009 L 1380.144 518.313 L 1385.529 526.638 L 1383.247 526.095 L 1387.391 533.154 L 1384.488 532.611 L 1389.463 540.937 L 1382.426 538.765 L 1382.426 543.026 C 1390.263 543.984 1398.061 544.965 1405.808 545.964 L 1405.808 540.675 L 1395.468 540.675 L 1403.476 528.648 L 1398.141 528.648 L 1405.808 518.381 L 1402.145 518.381 L 1409.481 507.528 L 1418.16 521.021 L 1414.486 520.141 L 1421.162 531.581 L 1416.488 530.701 L 1424.496 544.195 L 1413.155 540.675 L 1413.155 546.917 C 1422.694 548.165 1432.153 549.438 1441.511 550.725 L 1441.511 539.433 L 1425.997 539.433 L 1438.008 521.009 L 1430.001 521.009 L 1441.511 505.281 L 1436.006 505.281 L 1447.017 488.654 L 1460.029 509.325 L 1454.524 507.977 L 1464.533 525.503 L 1457.526 524.154 L 1469.538 544.825 L 1452.522 539.433 L 1452.522 552.251 C 1460.409 553.353 1468.227 554.462 1475.954 555.574 L 1475.954 552.246 L 1469.538 552.246 L 1474.512 544.825 L 1471.199 544.825 L 1475.954 538.49 L 1473.682 538.49 L 1478.236 531.794 L 1483.621 540.119 L 1481.339 539.576 L 1485.483 546.635 L 1482.58 546.092 L 1487.555 554.418 L 1480.518 552.246 L 1480.518 556.23 C 1489.086 557.468 1497.554 558.706 1505.902 559.936 L 1505.902 556.852 L 1495.562 556.852 L 1503.57 544.825 L 1498.235 544.825 L 1505.902 534.559 L 1502.238 534.559 L 1509.575 523.705 L 1518.253 537.199 L 1514.58 536.319 L 1521.256 547.759 L 1516.582 546.879 L 1524.589 560.372 L 1513.249 556.852 L 1513.249 561.02 C 1522.758 562.427 1532.116 563.821 1541.295 565.189 L 1541.305 565.189 L 1541.305 565.189 L 1541.605 565.235 L 1541.605 555.61 L 1526.091 555.61 L 1538.102 537.186 L 1530.094 537.186 L 1541.605 521.458 L 1536.1 521.458 L 1547.11 504.832 L 1560.123 525.503 L 1554.617 524.154 L 1564.627 541.68 L 1557.62 540.332 L 1569.631 561.003 L 1552.616 555.61 L 1552.616 566.874 C 1560.573 568.058 1568.39 569.218 1576.047 570.344 L 1576.047 568.423 L 1569.631 568.423 L 1574.606 561.003 L 1571.293 561.003 L 1576.047 554.668 L 1573.775 554.668 L 1578.33 547.971 L 1583.715 556.297 L 1581.433 555.754 L 1585.576 562.812 L 1582.674 562.27 L 1587.648 570.595 L 1580.612 568.423 L 1580.612 571.013 C 1588.229 572.13 1595.696 573.212 1602.993 574.25 L 1602.993 570.333 L 1592.653 570.333 L 1600.661 558.306 L 1595.326 558.306 L 1602.993 548.04 L 1599.329 548.04 L 1606.666 537.186 L 1615.344 550.68 L 1611.671 549.8 L 1618.347 561.24 L 1613.673 560.36 L 1621.68 573.853 L 1610.34 570.333 L 1610.34 575.287 C 1620.119 576.66 1629.588 577.947 1638.696 579.126 L 1638.696 569.091 L 1623.182 569.091 L 1635.193 550.667 L 1627.185 550.667 L 1638.696 534.939 L 1633.191 534.939 L 1644.201 518.313 L 1657.214 538.984 L 1651.708 537.635 L 1661.718 555.161 L 1654.711 553.813 L 1666.722 574.484 L 1649.706 569.091 L 1649.706 580.517 C 1657.834 581.519 1665.661 582.42 1673.138 583.205 L 1673.138 581.904 L 1666.722 581.904 L 1671.697 574.484 L 1668.384 574.484 L 1673.138 568.149 L 1670.866 568.149 L 1675.421 561.452 L 1680.806 569.778 L 1678.523 569.235 L 1682.667 576.294 L 1679.765 575.751 L 1684.739 584.076 L 1677.703 581.904 L 1677.703 583.672 C 1685.56 584.459 1693.037 585.108 1700.084 585.597 L 1700.084 580.219 L 1689.744 580.219 L 1697.751 568.192 L 1692.416 568.192 L 1700.084 557.926 L 1696.42 557.926 L 1703.757 547.072 L 1712.435 560.566 L 1708.762 559.686 L 1715.438 571.126 L 1710.764 570.246 L 1718.771 583.739 L 1707.431 580.219 L 1707.431 586.055 C 1716.119 586.535 1724.086 586.738 1731.283 586.616 C 1732.774 586.591 1734.276 586.547 1735.787 586.485 L 1735.787 574.484 L 1720.273 574.484 L 1732.284 556.059 L 1724.276 556.059 L 1735.787 540.332 L 1730.282 540.332 L 1741.292 523.705 L 1754.304 544.376 L 1748.799 543.028 L 1758.809 560.553 L 1751.802 559.205 L 1763.813 579.876 L 1746.797 574.484 L 1746.797 585.737 C 1754.314 585.04 1762.122 583.965 1770.229 582.593 L 1770.229 580.107 L 1763.813 580.107 L 1768.788 572.686 L 1765.475 572.686 L 1770.229 566.351 L 1767.957 566.351 L 1772.512 559.654 L 1777.897 567.98 L 1775.614 567.437 L 1779.758 574.496 L 1776.856 573.953 L 1780.869 580.665 C 1786.935 579.496 1793.171 578.19 1799.567 576.778 L 1799.567 573.029 L 1787.836 576.549 L 1796.124 563.056 L 1791.289 563.936 L 1798.186 552.496 L 1794.392 553.376 L 1803.37 539.882 L 1810.958 550.736 L 1807.164 550.736 L 1815.101 561.003 L 1809.576 561.003 L 1817.604 572.651 C 1824.06 571.13 1830.686 569.538 1837.472 567.903 L 1837.472 560.616 L 1819.866 566.158 L 1832.288 544.913 L 1825.041 546.298 L 1835.4 528.286 L 1829.705 529.672 L 1843.168 508.427 L 1854.558 525.515 L 1848.863 525.515 L 1860.764 541.68 L 1852.486 541.68 L 1864.908 560.616 L 1848.863 560.616 L 1848.863 565.159 C 1854.378 563.834 1859.993 562.491 1865.719 561.145 L 1869.883 554.181 L 1866.98 554.724 L 1871.124 547.665 L 1868.842 548.208 L 1874.227 539.882 L 1878.781 546.579 L 1876.509 546.579 L 1881.263 552.914 L 1877.95 552.914 L 1881.093 557.593 C 1890.972 555.351 1901.172 553.135 1911.672 551.008 L 1911.672 545.169 L 1899.941 548.689 L 1908.229 535.195 L 1903.394 536.075 L 1910.291 524.635 L 1906.497 525.515 L 1915.475 512.022 L 1923.063 522.875 L 1919.269 522.875 L 1927.206 533.142 L 1921.681 533.142 L 1929.969 545.169 L 1919.269 545.169 L 1919.269 549.498 C 1929.098 547.58 1939.198 545.751 1949.577 544.063 L 1949.577 530.957 L 1931.971 536.5 L 1944.393 515.254 L 1937.146 516.64 L 1947.505 498.628 L 1941.81 500.013 L 1955.273 478.768 L 1966.663 495.857 L 1960.968 495.857 L 1972.869 512.022 L 1964.591 512.022 L 1977.013 530.957 L 1960.968 530.957 L 1960.968 542.287 C 1968.515 541.159 1976.212 540.113 1984.05 539.167 L 1984.05 534.271 L 1977.013 536.443 L 1981.988 528.118 L 1979.085 528.661 L 1983.229 521.602 L 1980.947 522.145 L 1986.332 513.819 L 1990.886 520.516 L 1988.614 520.516 L 1993.368 526.851 L 1990.055 526.851 L 1995.03 534.271 L 1988.614 534.271 L 1988.614 538.63 C 2007.752 536.432 2027.751 534.838 2048.67 534.114 L 2048.67 521.97 L 2031.064 524.154 L 2043.485 506.267 L 2035.067 506.267 L 2046.598 489.641 L 2040.903 491.026 L 2054.366 469.781 Z M 1815.992 573.029 L 1807.164 573.029 L 1807.164 575.073 C 1810.077 574.409 1813.019 573.727 1815.992 573.029 Z M 1778.227 581.167 L 1774.794 580.107 L 1774.794 581.797 C 1775.925 581.592 1777.076 581.382 1778.227 581.167 Z M 2014.568 494.047 L 2022.155 504.9 L 2018.362 504.9 L 2026.299 515.167 L 2020.774 515.167 L 2029.062 527.194 L 2018.362 527.194 L 2018.362 535.114 L 2010.765 536.287 L 2010.765 527.194 L 1999.034 530.714 L 2007.321 517.22 L 2002.487 518.1 L 2009.383 506.66 L 2005.59 507.54 L 2014.568 494.047 Z" fill="#2562B4" style=""/>
  <path fill-rule="evenodd" clip-rule="evenodd" d="M764.776 458L776.155 477.014H770.466L782.362 495H774.086L786.5 516.069H770.466V529.242C778.038 529.082 785.727 529.052 793.534 529.165V525.757L786.5 528.174L791.466 518.91L788.569 519.514L792.707 511.66L790.431 512.264L795.81 503L800.362 510.451H798.086L802.845 517.5H799.534L804.5 525.757H798.086V529.247C801.041 529.31 804.012 529.395 807 529.5V658.5H0V528.5C6.28874 529.108 12.5677 529.745 18.8333 530.409V521.882H8.5L16.5 508.5H11.1667L18.8333 497.076H15.1667L22.5 485L31.1667 500.014L27.5 499.035L34.1667 511.764L29.5 510.785L37.5 525.799L26.1667 521.882V531.198C35.6487 532.234 45.0971 533.328 54.5 534.471V523.5H39L51 503H43L54.5 485.5H49L60 467L73 490L67.5 488.5L77.5 508L70.5 506.5L82.5 529.5L65.5 523.5V535.832C73.3422 536.819 81.1492 537.838 88.9138 538.882V534.757H82.5L87.4655 526.5H84.1552L88.9138 519.451H86.6379L91.1897 512L96.569 521.264L94.2931 520.66L98.431 528.514L95.5345 527.91L100.5 537.174L93.4655 534.757V539.498C101.302 540.564 109.094 541.656 116.833 542.767V536.882H106.5L114.5 523.5H109.167L116.833 512.076H113.167L120.5 500L129.167 515.014L125.5 514.035L132.167 526.764L127.5 525.785L135.5 540.799L124.167 536.882V543.827C133.699 545.216 143.148 546.632 152.5 548.064V535.5H137L149 515H141L152.5 497.5H147L158 479L171 502L165.5 500.5L175.5 520L168.5 518.5L180.5 541.5L163.5 535.5V549.762C171.381 550.988 179.189 552.223 186.914 553.46V549.757H180.5L185.466 541.5H182.155L186.914 534.451H184.638L189.19 527L194.569 536.264L192.293 535.66L196.431 543.514L193.534 542.91L198.5 552.174L191.466 549.757V554.19C200.03 555.567 208.489 556.945 216.833 558.314V554.882H206.5L214.5 541.5H209.167L216.833 530.076H213.167L220.5 518L229.167 533.014L225.5 532.035L232.167 544.764L227.5 543.785L235.5 558.799L224.167 554.882V559.519C233.668 561.085 243.011 562.635 252.18 564.156L252.195 564.159L252.196 564.159L252.196 564.159L252.197 564.159L252.197 564.159L252.5 564.209V553.5H237L249 533H241L252.5 515.5H247L258 497L271 520L265.5 518.5L275.5 538L268.5 536.5L280.5 559.5L263.5 553.5V566.033C271.45 567.351 279.259 568.641 286.914 569.894V567.757H280.5L285.466 559.5H282.155L286.914 552.451H284.638L289.19 545L294.569 554.264L292.293 553.66L296.431 561.514L293.534 560.91L298.5 570.174L291.466 567.757V570.638C299.083 571.881 306.543 573.085 313.833 574.24V569.882H303.5L311.5 556.5H306.167L313.833 545.076H310.167L317.5 533L326.167 548.014L322.5 547.035L329.167 559.764L324.5 558.785L332.5 573.799L321.167 569.882V575.394C330.944 576.922 340.399 578.354 349.5 579.665V568.5H334L346 548H338L349.5 530.5H344L355 512L368 535L362.5 533.5L372.5 553L365.5 551.5L377.5 574.5L360.5 568.5V581.213C368.625 582.328 376.437 583.331 383.914 584.204V582.757H377.5L382.466 574.5H379.155L383.914 567.451H381.638L386.19 560L391.569 569.264L389.293 568.66L393.431 576.514L390.534 575.91L395.5 585.174L388.466 582.757V584.723C396.323 585.6 403.789 586.321 410.833 586.865V580.882H400.5L408.5 567.5H403.167L410.833 556.076H407.167L414.5 544L423.167 559.014L419.5 558.035L426.167 570.764L421.5 569.785L429.5 584.799L418.167 580.882V587.376C426.849 587.91 434.815 588.135 442 588C443.488 587.972 444.988 587.923 446.5 587.853V574.5H431L443 554H435L446.5 536.5H441L452 518L465 541L459.5 539.5L469.5 559L462.5 557.5L474.5 580.5L457.5 574.5V587.021C465.013 586.246 472.813 585.05 480.914 583.523V580.757H474.5L479.466 572.5H476.155L480.914 565.451H478.638L483.19 558L488.569 567.264L486.293 566.66L490.431 574.514L487.534 573.91L491.537 581.378C497.603 580.077 503.83 578.624 510.224 577.052V572.882L498.5 576.799L506.776 561.785L501.948 562.764L508.845 550.035L505.052 551.014L514.017 536L521.603 548.076H517.81L525.741 559.5H520.224L528.239 572.46C534.694 570.768 541.308 568.997 548.086 567.178V559.069L530.5 565.236L542.914 541.597L535.672 543.139L546.017 523.097L540.328 524.639L553.776 501L565.155 520.014H559.466L571.362 538H563.086L575.5 559.069H559.466V564.125C564.976 562.65 570.591 561.156 576.312 559.658L580.466 551.91L577.569 552.514L581.707 544.66L579.431 545.264L584.81 536L589.362 543.451H587.086L591.845 550.5H588.534L591.665 555.706C601.544 553.212 611.726 550.745 622.224 548.379V541.882L610.5 545.799L618.776 530.785L613.948 531.764L620.845 519.035L617.052 520.014L626.017 505L633.603 517.076H629.81L637.741 528.5H632.224L640.5 541.882H629.81V546.699C639.629 544.565 649.718 542.53 660.086 540.652V526.069L642.5 532.236L654.914 508.597L647.672 510.139L658.017 490.097L652.328 491.639L665.776 468L677.155 487.014H671.466L683.362 505H675.086L687.5 526.069H671.466V538.675C679.01 537.421 686.699 536.257 694.534 535.204V529.757L687.5 532.174L692.466 522.91L689.569 523.514L693.707 515.66L691.431 516.264L696.81 507L701.362 514.451H699.086L703.845 521.5H700.534L705.5 529.757H699.086V534.607C706.34 533.679 713.719 532.847 721.224 532.129V524.882L709.5 528.799L717.776 513.785L712.948 514.764L719.845 502.035L716.052 503.014L725.017 488L732.603 500.076H728.81L736.741 511.5H731.224L739.5 524.882H728.81V531.446C738.684 530.613 748.774 529.979 759.086 529.582V516.069L741.5 518.5L753.914 498.597H745.5L757.017 480.097L751.328 481.639L764.776 458ZM526.628 572.882H517.81V575.155C520.716 574.417 523.655 573.658 526.628 572.882ZM488.898 581.936L485.466 580.757V582.638C486.604 582.41 487.748 582.176 488.898 581.936Z" fill="#F5F5F5"/>
  <path fill-rule="evenodd" clip-rule="evenodd" d="M764.776 458L776.155 477.014H770.466L782.362 495H774.086L786.5 516.069H770.466V529.242C778.038 529.082 785.727 529.052 793.534 529.165V525.757L786.5 528.174L791.466 518.91L788.569 519.514L792.707 511.66L790.431 512.264L795.81 503L800.362 510.451H798.086L802.845 517.5H799.534L804.5 525.757H798.086V529.247C801.041 529.31 804.012 529.395 807 529.5V658.5H0V528.5C6.28874 529.108 12.5677 529.745 18.8333 530.409V521.882H8.5L16.5 508.5H11.1667L18.8333 497.076H15.1667L22.5 485L31.1667 500.014L27.5 499.035L34.1667 511.764L29.5 510.785L37.5 525.799L26.1667 521.882V531.198C35.6487 532.234 45.0971 533.328 54.5 534.471V523.5H39L51 503H43L54.5 485.5H49L60 467L73 490L67.5 488.5L77.5 508L70.5 506.5L82.5 529.5L65.5 523.5V535.832C73.3422 536.819 81.1492 537.838 88.9138 538.882V534.757H82.5L87.4655 526.5H84.1552L88.9138 519.451H86.6379L91.1897 512L96.569 521.264L94.2931 520.66L98.431 528.514L95.5345 527.91L100.5 537.174L93.4655 534.757V539.498C101.302 540.564 109.094 541.656 116.833 542.767V536.882H106.5L114.5 523.5H109.167L116.833 512.076H113.167L120.5 500L129.167 515.014L125.5 514.035L132.167 526.764L127.5 525.785L135.5 540.799L124.167 536.882V543.827C133.699 545.216 143.148 546.632 152.5 548.064V535.5H137L149 515H141L152.5 497.5H147L158 479L171 502L165.5 500.5L175.5 520L168.5 518.5L180.5 541.5L163.5 535.5V549.762C171.381 550.988 179.189 552.223 186.914 553.46V549.757H180.5L185.466 541.5H182.155L186.914 534.451H184.638L189.19 527L194.569 536.264L192.293 535.66L196.431 543.514L193.534 542.91L198.5 552.174L191.466 549.757V554.19C200.03 555.567 208.489 556.945 216.833 558.314V554.882H206.5L214.5 541.5H209.167L216.833 530.076H213.167L220.5 518L229.167 533.014L225.5 532.035L232.167 544.764L227.5 543.785L235.5 558.799L224.167 554.882V559.519C233.668 561.085 243.011 562.635 252.18 564.156L252.195 564.159L252.196 564.159L252.196 564.159L252.197 564.159L252.197 564.159L252.5 564.209V553.5H237L249 533H241L252.5 515.5H247L258 497L271 520L265.5 518.5L275.5 538L268.5 536.5L280.5 559.5L263.5 553.5V566.033C271.45 567.351 279.259 568.641 286.914 569.894V567.757H280.5L285.466 559.5H282.155L286.914 552.451H284.638L289.19 545L294.569 554.264L292.293 553.66L296.431 561.514L293.534 560.91L298.5 570.174L291.466 567.757V570.638C299.083 571.881 306.543 573.085 313.833 574.24V569.882H303.5L311.5 556.5H306.167L313.833 545.076H310.167L317.5 533L326.167 548.014L322.5 547.035L329.167 559.764L324.5 558.785L332.5 573.799L321.167 569.882V575.394C330.944 576.922 340.399 578.354 349.5 579.665V568.5H334L346 548H338L349.5 530.5H344L355 512L368 535L362.5 533.5L372.5 553L365.5 551.5L377.5 574.5L360.5 568.5V581.213C368.625 582.328 376.437 583.331 383.914 584.204V582.757H377.5L382.466 574.5H379.155L383.914 567.451H381.638L386.19 560L391.569 569.264L389.293 568.66L393.431 576.514L390.534 575.91L395.5 585.174L388.466 582.757V584.723C396.323 585.6 403.789 586.321 410.833 586.865V580.882H400.5L408.5 567.5H403.167L410.833 556.076H407.167L414.5 544L423.167 559.014L419.5 558.035L426.167 570.764L421.5 569.785L429.5 584.799L418.167 580.882V587.376C426.849 587.91 434.815 588.135 442 588C443.488 587.972 444.988 587.923 446.5 587.853V574.5H431L443 554H435L446.5 536.5H441L452 518L465 541L459.5 539.5L469.5 559L462.5 557.5L474.5 580.5L457.5 574.5V587.021C465.013 586.246 472.813 585.05 480.914 583.523V580.757H474.5L479.466 572.5H476.155L480.914 565.451H478.638L483.19 558L488.569 567.264L486.293 566.66L490.431 574.514L487.534 573.91L491.537 581.378C497.603 580.077 503.83 578.624 510.224 577.052V572.882L498.5 576.799L506.776 561.785L501.948 562.764L508.845 550.035L505.052 551.014L514.017 536L521.603 548.076H517.81L525.741 559.5H520.224L528.239 572.46C534.694 570.768 541.308 568.997 548.086 567.178V559.069L530.5 565.236L542.914 541.597L535.672 543.139L546.017 523.097L540.328 524.639L553.776 501L565.155 520.014H559.466L571.362 538H563.086L575.5 559.069H559.466V564.125C564.976 562.65 570.591 561.156 576.312 559.658L580.466 551.91L577.569 552.514L581.707 544.66L579.431 545.264L584.81 536L589.362 543.451H587.086L591.845 550.5H588.534L591.665 555.706C601.544 553.212 611.726 550.745 622.224 548.379V541.882L610.5 545.799L618.776 530.785L613.948 531.764L620.845 519.035L617.052 520.014L626.017 505L633.603 517.076H629.81L637.741 528.5H632.224L640.5 541.882H629.81V546.699C639.629 544.565 649.718 542.53 660.086 540.652V526.069L642.5 532.236L654.914 508.597L647.672 510.139L658.017 490.097L652.328 491.639L665.776 468L677.155 487.014H671.466L683.362 505H675.086L687.5 526.069H671.466V538.675C679.01 537.421 686.699 536.257 694.534 535.204V529.757L687.5 532.174L692.466 522.91L689.569 523.514L693.707 515.66L691.431 516.264L696.81 507L701.362 514.451H699.086L703.845 521.5H700.534L705.5 529.757H699.086V534.607C706.34 533.679 713.719 532.847 721.224 532.129V524.882L709.5 528.799L717.776 513.785L712.948 514.764L719.845 502.035L716.052 503.014L725.017 488L732.603 500.076H728.81L736.741 511.5H731.224L739.5 524.882H728.81V531.446C738.684 530.613 748.774 529.979 759.086 529.582V516.069L741.5 518.5L753.914 498.597H745.5L757.017 480.097L751.328 481.639L764.776 458ZM526.628 572.882H517.81V575.155C520.716 574.417 523.655 573.658 526.628 572.882ZM488.898 581.936L485.466 580.757V582.638C486.604 582.41 487.748 582.176 488.898 581.936Z" fill="url(#paint1_linear)"/>
  <path fill-rule="evenodd" clip-rule="evenodd" d="M 1571.529 459.581 L 1582.91 478.453 L 1577.219 478.453 L 1589.11 496.305 L 1580.839 496.305 L 1593.25 517.216 L 1577.219 517.216 L 1577.219 530.291 C 1584.79 530.132 1592.48 530.102 1600.28 530.214 L 1600.28 526.832 L 1593.25 529.231 L 1598.22 520.036 L 1595.32 520.635 L 1599.46 512.84 L 1597.18 513.44 L 1602.56 504.245 L 1607.111 511.64 L 1604.841 511.64 L 1609.591 518.636 L 1606.281 518.636 L 1611.251 526.832 L 1604.841 526.832 L 1604.841 530.296 C 1607.791 530.358 1610.761 530.443 1613.751 530.547 L 1613.751 658.086 L 806.715 658.086 L 806.715 529.554 C 813.004 530.158 819.284 530.79 825.549 531.449 L 825.549 522.986 L 815.216 522.986 L 823.216 509.704 L 817.883 509.704 L 825.549 498.365 L 821.883 498.365 L 829.216 486.379 L 837.884 501.281 L 834.216 500.309 L 840.884 512.943 L 836.216 511.972 L 844.217 526.873 L 832.883 522.986 L 832.883 532.232 C 842.366 533.26 851.814 534.346 861.218 535.481 L 861.218 523.599 L 845.717 523.599 L 857.717 503.252 L 849.717 503.252 L 861.218 485.883 L 855.717 485.883 L 866.718 467.521 L 879.718 490.35 L 874.218 488.861 L 884.219 508.215 L 877.218 506.726 L 889.219 529.554 L 872.218 523.599 L 872.218 536.831 C 880.06 537.811 887.868 538.822 895.633 539.859 L 895.633 535.764 L 889.219 535.764 L 894.185 527.569 L 890.874 527.569 L 895.633 520.573 L 893.357 520.573 L 897.909 513.178 L 903.288 522.372 L 901.012 521.773 L 905.151 529.568 L 902.253 528.969 L 907.22 538.163 L 900.185 535.764 L 900.185 540.47 C 908.022 541.528 915.814 542.612 923.553 543.715 L 923.553 537.874 L 913.22 537.874 L 921.22 524.592 L 915.887 524.592 L 923.553 513.253 L 919.887 513.253 L 927.221 501.267 L 935.888 516.169 L 932.221 515.197 L 938.888 527.831 L 934.221 526.859 L 942.221 541.761 L 930.888 537.874 L 930.888 544.767 C 940.42 546.145 949.87 547.551 959.222 548.972 L 959.222 536.502 L 943.721 536.502 L 955.722 516.155 L 947.721 516.155 L 959.222 498.786 L 953.722 498.786 L 964.722 480.424 L 977.723 503.252 L 972.223 501.764 L 982.223 521.118 L 975.223 519.629 L 987.223 542.457 L 970.222 536.502 L 970.222 550.657 C 978.104 551.874 985.912 553.1 993.637 554.328 L 993.637 550.652 L 987.223 550.652 L 992.189 542.457 L 988.878 542.457 L 993.637 535.461 L 991.361 535.461 L 995.914 528.065 L 1001.294 537.26 L 999.017 536.661 L 1003.154 544.456 L 1000.254 543.856 L 1005.224 553.051 L 998.19 550.652 L 998.19 555.052 C 1006.754 556.419 1015.214 557.787 1023.555 559.145 L 1023.555 555.739 L 1013.224 555.739 L 1021.225 542.457 L 1015.894 542.457 L 1023.555 531.118 L 1019.895 531.118 L 1027.225 519.133 L 1035.895 534.034 L 1032.225 533.063 L 1038.895 545.697 L 1034.225 544.725 L 1042.226 559.627 L 1030.895 555.739 L 1030.895 560.341 C 1040.396 561.896 1049.736 563.434 1058.906 564.944 L 1058.926 564.947 L 1058.926 564.947 L 1058.926 564.947 L 1058.926 564.947 L 1058.926 564.947 L 1059.226 564.996 L 1059.226 554.367 L 1043.726 554.367 L 1055.726 534.021 L 1047.726 534.021 L 1059.226 516.651 L 1053.726 516.651 L 1064.727 498.29 L 1077.727 521.118 L 1072.227 519.629 L 1082.227 538.983 L 1075.227 537.494 L 1087.228 560.322 L 1070.227 554.367 L 1070.227 566.807 C 1078.177 568.115 1085.988 569.395 1093.638 570.639 L 1093.638 568.518 L 1087.228 568.518 L 1092.198 560.322 L 1088.888 560.322 L 1093.638 553.326 L 1091.368 553.326 L 1095.918 545.931 L 1101.298 555.126 L 1099.018 554.526 L 1103.158 562.321 L 1100.258 561.722 L 1105.228 570.917 L 1098.198 568.518 L 1098.198 571.377 C 1105.808 572.611 1113.269 573.806 1120.559 574.952 L 1120.559 570.627 L 1110.229 570.627 L 1118.229 557.345 L 1112.899 557.345 L 1120.559 546.006 L 1116.899 546.006 L 1124.229 534.021 L 1132.9 548.922 L 1129.229 547.951 L 1135.9 560.584 L 1131.23 559.613 L 1139.23 574.515 L 1127.899 570.627 L 1127.899 576.098 C 1137.67 577.614 1147.13 579.035 1156.231 580.337 L 1156.231 569.255 L 1140.73 569.255 L 1152.731 548.908 L 1144.73 548.908 L 1156.231 531.539 L 1150.73 531.539 L 1161.731 513.178 L 1174.731 536.006 L 1169.231 534.517 L 1179.232 553.871 L 1172.231 552.382 L 1184.232 575.21 L 1167.231 569.255 L 1167.231 581.873 C 1175.352 582.98 1183.172 583.975 1190.642 584.842 L 1190.642 583.406 L 1184.232 583.406 L 1189.202 575.21 L 1185.892 575.21 L 1190.642 568.214 L 1188.372 568.214 L 1192.922 560.819 L 1198.303 570.013 L 1196.022 569.414 L 1200.163 577.209 L 1197.262 576.61 L 1202.233 585.804 L 1195.202 583.406 L 1195.202 585.357 C 1203.053 586.227 1210.523 586.943 1217.563 587.483 L 1217.563 581.545 L 1207.233 581.545 L 1215.233 568.263 L 1209.903 568.263 L 1217.563 556.924 L 1213.903 556.924 L 1221.234 544.938 L 1229.904 559.84 L 1226.234 558.868 L 1232.904 571.502 L 1228.234 570.531 L 1236.234 585.432 L 1224.904 581.545 L 1224.904 587.99 C 1233.584 588.52 1241.544 588.743 1248.735 588.609 C 1250.225 588.582 1251.725 588.533 1253.235 588.463 L 1253.235 575.21 L 1237.734 575.21 L 1249.735 554.864 L 1241.734 554.864 L 1253.235 537.494 L 1247.735 537.494 L 1258.735 519.133 L 1271.736 541.961 L 1266.236 540.472 L 1276.236 559.826 L 1269.236 558.337 L 1281.236 581.165 L 1264.235 575.21 L 1264.235 587.638 C 1271.746 586.868 1279.546 585.681 1287.646 584.166 L 1287.646 581.421 L 1281.236 581.421 L 1286.206 573.225 L 1282.896 573.225 L 1287.646 566.229 L 1285.376 566.229 L 1289.927 558.834 L 1295.307 568.028 L 1293.027 567.429 L 1297.167 575.224 L 1294.267 574.625 L 1298.277 582.037 C 1304.337 580.746 1310.568 579.303 1316.958 577.743 L 1316.958 573.604 L 1305.237 577.492 L 1313.518 562.59 L 1308.687 563.562 L 1315.578 550.928 L 1311.788 551.9 L 1320.758 536.998 L 1328.338 548.984 L 1324.548 548.984 L 1332.478 560.322 L 1326.958 560.322 L 1334.979 573.186 C 1341.429 571.506 1348.049 569.748 1354.829 567.943 L 1354.829 559.895 L 1337.239 566.016 L 1349.649 542.553 L 1342.409 544.084 L 1352.759 524.192 L 1347.069 525.722 L 1360.52 502.26 L 1371.9 521.132 L 1366.21 521.132 L 1378.101 538.983 L 1369.83 538.983 L 1382.241 559.895 L 1366.21 559.895 L 1366.21 564.913 C 1371.72 563.449 1377.33 561.966 1383.051 560.479 L 1387.211 552.789 L 1384.311 553.389 L 1388.451 545.593 L 1386.171 546.193 L 1391.551 536.998 L 1396.101 544.393 L 1393.831 544.393 L 1398.581 551.39 L 1395.271 551.39 L 1398.411 556.557 C 1408.282 554.081 1418.472 551.633 1428.963 549.285 L 1428.963 542.836 L 1417.242 546.724 L 1425.523 531.822 L 1420.692 532.794 L 1427.583 520.16 L 1423.793 521.132 L 1432.763 506.23 L 1440.343 518.216 L 1436.553 518.216 L 1444.483 529.554 L 1438.963 529.554 L 1447.244 542.836 L 1436.553 542.836 L 1436.553 547.617 C 1446.374 545.499 1456.464 543.479 1466.834 541.615 L 1466.834 527.141 L 1449.244 533.262 L 1461.654 509.8 L 1454.414 511.33 L 1464.764 491.438 L 1459.074 492.969 L 1472.525 469.507 L 1483.905 488.378 L 1478.215 488.378 L 1490.105 506.23 L 1481.835 506.23 L 1494.246 527.141 L 1478.215 527.141 L 1478.215 539.653 C 1485.755 538.409 1493.446 537.253 1501.276 536.208 L 1501.276 530.802 L 1494.246 533.201 L 1499.216 524.006 L 1496.316 524.605 L 1500.456 516.81 L 1498.176 517.41 L 1503.556 508.215 L 1508.106 515.61 L 1505.836 515.61 L 1510.586 522.607 L 1507.276 522.607 L 1512.246 530.802 L 1505.836 530.802 L 1505.836 535.616 C 1524.957 533.187 1544.938 531.428 1565.839 530.628 L 1565.839 517.216 L 1548.248 519.629 L 1560.659 499.875 L 1552.248 499.875 L 1563.769 481.513 L 1558.078 483.044 L 1571.529 459.581 Z M 1333.369 573.604 L 1324.548 573.604 L 1324.548 575.86 C 1327.458 575.128 1330.398 574.375 1333.369 573.604 Z M 1295.637 582.591 L 1292.207 581.421 L 1292.207 583.287 C 1293.337 583.061 1294.487 582.829 1295.637 582.591 Z M 1531.767 486.379 L 1539.348 498.365 L 1535.557 498.365 L 1543.488 509.704 L 1537.968 509.704 L 1546.248 522.986 L 1535.557 522.986 L 1535.557 531.732 L 1527.967 533.028 L 1527.967 522.986 L 1516.247 526.873 L 1524.527 511.972 L 1519.697 512.943 L 1526.587 500.309 L 1522.797 501.281 L 1531.767 486.379 Z" fill="#F5F5F5" style=""/>
  <path fill-rule="evenodd" clip-rule="evenodd" d="M 1571.584 459.603 L 1582.966 478.466 L 1577.275 478.466 L 1589.166 496.31 L 1580.895 496.31 L 1593.307 517.212 L 1577.275 517.212 L 1577.275 530.281 C 1584.846 530.123 1592.537 530.093 1600.338 530.204 L 1600.338 526.824 L 1593.307 529.222 L 1598.278 520.031 L 1595.378 520.63 L 1599.518 512.838 L 1597.238 513.437 L 1602.618 504.247 L 1607.169 511.638 L 1604.898 511.638 L 1609.65 518.632 L 1606.339 518.632 L 1611.31 526.824 L 1604.898 526.824 L 1604.898 530.286 C 1607.849 530.349 1610.82 530.432 1613.81 530.537 L 1613.81 658.02 L 806.69 658.02 L 806.69 529.545 C 812.98 530.149 819.26 530.78 825.526 531.439 L 825.526 522.979 L 815.192 522.979 L 823.192 509.703 L 817.859 509.703 L 825.526 498.369 L 821.859 498.369 L 829.194 486.389 L 837.862 501.284 L 834.194 500.313 L 840.862 512.942 L 836.194 511.97 L 844.196 526.865 L 832.861 522.979 L 832.861 532.222 C 842.345 533.249 851.794 534.334 861.198 535.468 L 861.198 523.592 L 845.696 523.592 L 857.698 503.255 L 849.696 503.255 L 861.198 485.894 L 855.698 485.894 L 866.699 467.54 L 879.701 490.357 L 874.2 488.87 L 884.202 508.215 L 877.201 506.727 L 889.203 529.545 L 872.2 523.592 L 872.2 536.819 C 880.043 537.798 887.851 538.809 895.617 539.844 L 895.617 535.752 L 889.203 535.752 L 894.169 527.561 L 890.858 527.561 L 895.617 520.567 L 893.341 520.567 L 897.893 513.176 L 903.274 522.367 L 900.997 521.767 L 905.136 529.559 L 902.239 528.96 L 907.205 538.151 L 900.17 535.752 L 900.17 540.456 C 908.007 541.513 915.801 542.597 923.54 543.699 L 923.54 537.861 L 913.206 537.861 L 921.207 524.585 L 915.874 524.585 L 923.54 513.251 L 919.874 513.251 L 927.208 501.271 L 935.876 516.166 L 932.209 515.195 L 938.876 527.823 L 934.209 526.851 L 942.211 541.747 L 930.876 537.861 L 930.876 544.751 C 940.409 546.129 949.859 547.534 959.213 548.955 L 959.213 536.49 L 943.711 536.49 L 955.713 516.152 L 947.711 516.152 L 959.213 498.79 L 953.712 498.79 L 964.713 480.436 L 977.715 503.255 L 972.215 501.766 L 982.216 521.112 L 975.215 519.624 L 987.217 542.442 L 970.215 536.49 L 970.215 550.638 C 978.096 551.855 985.906 553.081 993.632 554.307 L 993.632 550.633 L 987.217 550.633 L 992.184 542.442 L 988.872 542.442 L 993.632 535.448 L 991.355 535.448 L 995.908 528.057 L 1001.289 537.248 L 999.012 536.648 L 1003.149 544.44 L 1000.249 543.841 L 1005.22 553.032 L 998.185 550.633 L 998.185 555.032 C 1006.75 556.398 1015.211 557.765 1023.552 559.123 L 1023.552 555.718 L 1013.221 555.718 L 1021.222 542.442 L 1015.891 542.442 L 1023.552 531.108 L 1019.892 531.108 L 1027.223 519.128 L 1035.894 534.024 L 1032.224 533.052 L 1038.894 545.68 L 1034.224 544.709 L 1042.225 559.604 L 1030.894 555.718 L 1030.894 560.318 C 1040.395 561.872 1049.736 563.41 1058.908 564.919 L 1058.928 564.922 L 1058.928 564.922 L 1058.928 564.922 L 1058.928 564.922 L 1058.928 564.922 L 1059.228 564.972 L 1059.228 554.347 L 1043.726 554.347 L 1055.727 534.01 L 1047.726 534.01 L 1059.228 516.647 L 1053.727 516.647 L 1064.728 498.295 L 1077.73 521.112 L 1072.23 519.624 L 1082.232 538.97 L 1075.23 537.482 L 1087.232 560.299 L 1070.23 554.347 L 1070.23 566.781 C 1078.18 568.088 1085.992 569.369 1093.642 570.611 L 1093.642 568.491 L 1087.232 568.491 L 1092.202 560.299 L 1088.892 560.299 L 1093.642 553.307 L 1091.372 553.307 L 1095.923 545.915 L 1101.304 555.105 L 1099.024 554.505 L 1103.164 562.297 L 1100.264 561.698 L 1105.234 570.889 L 1098.204 568.491 L 1098.204 571.35 C 1105.814 572.583 1113.276 573.777 1120.567 574.923 L 1120.567 570.599 L 1110.235 570.599 L 1118.236 557.323 L 1112.906 557.323 L 1120.567 545.99 L 1116.906 545.99 L 1124.237 534.01 L 1132.909 548.905 L 1129.238 547.933 L 1135.909 560.562 L 1131.238 559.59 L 1139.24 574.485 L 1127.908 570.599 L 1127.908 576.067 C 1137.679 577.584 1147.141 579.005 1156.242 580.305 L 1156.242 569.228 L 1140.74 569.228 L 1152.742 548.891 L 1144.74 548.891 L 1156.242 531.53 L 1150.741 531.53 L 1161.743 513.176 L 1174.745 535.993 L 1169.244 534.506 L 1179.245 553.851 L 1172.245 552.363 L 1184.247 575.181 L 1167.244 569.228 L 1167.244 581.841 C 1175.365 582.947 1183.186 583.942 1190.657 584.808 L 1190.657 583.372 L 1184.247 583.372 L 1189.217 575.181 L 1185.907 575.181 L 1190.657 568.188 L 1188.387 568.188 L 1192.937 560.796 L 1198.319 569.986 L 1196.038 569.387 L 1200.179 577.178 L 1197.279 576.58 L 1202.249 585.77 L 1195.218 583.372 L 1195.218 585.323 C 1203.069 586.193 1210.541 586.908 1217.581 587.448 L 1217.581 581.513 L 1207.249 581.513 L 1215.251 568.236 L 1209.921 568.236 L 1217.581 556.903 L 1213.921 556.903 L 1221.251 544.922 L 1229.923 559.817 L 1226.253 558.846 L 1232.923 571.474 L 1228.253 570.504 L 1236.254 585.399 L 1224.923 581.513 L 1224.923 587.954 C 1233.603 588.485 1241.565 588.708 1248.756 588.574 C 1250.246 588.546 1251.747 588.497 1253.257 588.428 L 1253.257 575.181 L 1237.755 575.181 L 1249.756 554.843 L 1241.755 554.843 L 1253.257 537.482 L 1247.755 537.482 L 1258.757 519.128 L 1271.759 541.946 L 1266.259 540.458 L 1276.26 559.803 L 1269.259 558.316 L 1281.261 581.133 L 1264.258 575.181 L 1264.258 587.603 C 1271.769 586.833 1279.57 585.648 1287.672 584.132 L 1287.672 581.388 L 1281.261 581.388 L 1286.231 573.197 L 1282.921 573.197 L 1287.672 566.203 L 1285.401 566.203 L 1289.952 558.812 L 1295.333 568.003 L 1293.052 567.403 L 1297.193 575.195 L 1294.293 574.596 L 1298.303 582.004 C 1304.364 580.714 1310.595 579.272 1316.986 577.712 L 1316.986 573.575 L 1305.264 577.461 L 1313.546 562.566 L 1308.715 563.538 L 1315.606 550.909 L 1311.815 551.881 L 1320.786 536.986 L 1328.368 548.966 L 1324.577 548.966 L 1332.508 560.299 L 1326.988 560.299 L 1335.008 573.157 C 1341.46 571.478 1348.08 569.721 1354.862 567.917 L 1354.862 559.872 L 1337.269 565.99 L 1349.68 542.539 L 1342.44 544.068 L 1352.792 524.185 L 1347.1 525.715 L 1360.552 502.262 L 1371.934 521.126 L 1366.244 521.126 L 1378.135 538.97 L 1369.864 538.97 L 1382.276 559.872 L 1366.244 559.872 L 1366.244 564.888 C 1371.754 563.424 1377.365 561.943 1383.086 560.456 L 1387.246 552.77 L 1384.346 553.369 L 1388.486 545.577 L 1386.206 546.177 L 1391.587 536.986 L 1396.138 544.378 L 1393.868 544.378 L 1398.618 551.371 L 1395.308 551.371 L 1398.448 556.536 C 1408.32 554.061 1418.511 551.614 1429.003 549.266 L 1429.003 542.821 L 1417.281 546.707 L 1425.562 531.812 L 1420.731 532.783 L 1427.622 520.155 L 1423.832 521.126 L 1432.803 506.231 L 1440.384 518.212 L 1436.594 518.212 L 1444.525 529.545 L 1439.004 529.545 L 1447.285 542.821 L 1436.594 542.821 L 1436.594 547.599 C 1446.415 545.483 1456.507 543.464 1466.879 541.601 L 1466.879 527.133 L 1449.285 533.251 L 1461.697 509.799 L 1454.457 511.33 L 1464.808 491.446 L 1459.117 492.976 L 1472.569 469.524 L 1483.951 488.388 L 1478.26 488.388 L 1490.151 506.231 L 1481.881 506.231 L 1494.293 527.133 L 1478.26 527.133 L 1478.26 539.639 C 1485.801 538.396 1493.493 537.241 1501.323 536.196 L 1501.323 530.792 L 1494.293 533.19 L 1499.263 523.999 L 1496.363 524.599 L 1500.503 516.807 L 1498.223 517.406 L 1503.603 508.215 L 1508.155 515.607 L 1505.884 515.607 L 1510.635 522.601 L 1507.325 522.601 L 1512.295 530.792 L 1505.884 530.792 L 1505.884 535.604 C 1525.007 533.176 1544.99 531.418 1565.893 530.619 L 1565.893 517.212 L 1548.3 519.624 L 1560.712 499.879 L 1552.301 499.879 L 1563.823 481.525 L 1558.132 483.055 L 1571.584 459.603 Z M 1333.398 573.575 L 1324.577 573.575 L 1324.577 575.83 C 1327.488 575.099 1330.428 574.346 1333.398 573.575 Z M 1295.663 582.558 L 1292.232 581.388 L 1292.232 583.254 C 1293.362 583.028 1294.513 582.796 1295.663 582.558 Z M 1531.818 486.389 L 1539.399 498.369 L 1535.609 498.369 L 1543.539 509.703 L 1538.019 509.703 L 1546.3 522.979 L 1535.609 522.979 L 1535.609 531.722 L 1528.017 533.017 L 1528.017 522.979 L 1516.295 526.865 L 1524.577 511.97 L 1519.746 512.942 L 1526.637 500.313 L 1522.847 501.284 L 1531.818 486.389 Z" fill="url(#paint2_linear)" style=""/>
  <defs>
    <linearGradient id="paint0_linear" x1="720" y1="4" x2="720" y2="789" gradientUnits="userSpaceOnUse">
      <stop offset="0.2969" stop-color="#0A1A75"/>
      <stop offset="0.9735" stop-color="#1531D0" stop-opacity="0"/>
    </linearGradient>
    <linearGradient id="paint1_linear" x1="403.5" y1="458" x2="402.695" y2="756.211" gradientUnits="userSpaceOnUse">
      <stop offset="0.3799" stop-color="white"/>
      <stop offset="0.6595" stop-color="white" stop-opacity="0"/>
    </linearGradient>
    <linearGradient id="paint2_linear" x1="1210.5" y1="458" x2="1211" y2="839" gradientUnits="userSpaceOnUse" gradientTransform="matrix(1.000149, 0, 0, 0.992085, -0.429886, 5.228286)">
      <stop offset="0.318" stop-color="white"/>
      <stop offset="0.5166" stop-color="white" stop-opacity="0"/>
    </linearGradient>
  </defs>
</svg>