<?xml version="1.0" encoding="utf-8"?>
<svg width="1440" height="596" fill="none" viewBox="87.274 3.885 337.674 28.947" preserveAspectRatio="xMinYMin" xmlns="http://www.w3.org/2000/svg">
  <path d="M 0 4 L 1440 4 L 1440 37.429 L -0.2 37.4 L 0 4 Z" fill="#0A1971" style=""/>
  <path fill-rule="evenodd" clip-rule="evenodd" d="M629.03 7.40173C625.057 7.64982 621.012 7.77428 616.958 7.77428C606.583 9.8468 597.459 10.2548 589.644 9.5414C583.282 9.59837 576.089 9.01661 568.025 7.60147C563.971 7.60147 559.925 7.47758 555.953 7.23063C552.957 11.8246 543.273 15.7435 529.675 17.8646C517.059 19.833 502.363 20.0514 489.253 18.4999C482.877 24.1022 468.713 28.8093 449.221 30.9936C426.672 33.5207 402.576 32.0466 385.093 27.7482C374.843 25.4973 367.056 22.4234 362.37 18.9458C348.936 20.6791 333.677 20.513 320.64 18.4695C307.043 16.3386 297.358 12.4017 294.362 7.7865C290.39 8.03459 286.345 8.15905 282.291 8.15905C271.915 10.2316 262.792 10.6396 254.977 9.92618C248.614 9.98317 241.422 9.4014 233.357 7.98626C229.304 7.98626 225.258 7.86236 221.286 7.61541C218.29 12.2094 208.605 16.1283 195.008 18.2494C181.413 20.3705 165.401 20.4595 151.563 18.4914C139.039 29.0913 100.922 34.5642 66.426 30.716C31.9298 26.8679 14.1188 15.1546 26.6422 4.5555C-3.57585 4.26199 -27.4456 -3.42353 -26.9937 -12.7122C-26.5391 -22.0016 -1.92789 -29.4626 28.3064 -29.4776H233.357C235.676 -29.4776 237.965 -29.4378 240.217 -29.3603C249.386 -29.8098 259.907 -29.6891 269.85 -29.5751C274.158 -29.5257 278.357 -29.4776 282.291 -29.4776H351.299C355.063 -29.7278 358.969 -29.8604 362.974 -29.8624H568.025C570.344 -29.8624 572.632 -29.8226 574.884 -29.7451C584.054 -30.1945 594.575 -30.0739 604.517 -29.9599C608.825 -29.9105 613.024 -29.8624 616.958 -29.8624H822.008C852.242 -29.8473 876.853 -22.3519 877.308 -13.0196C877.76 -3.68812 853.89 4.03284 823.672 4.32771C836.195 14.9757 818.385 26.743 783.888 30.6089C749.392 34.4748 711.276 28.9766 698.752 18.3278C684.914 20.3051 668.903 20.2157 655.308 18.0848C641.71 15.9538 632.025 12.0169 629.03 7.40173Z" fill="white"/>
  <path fill-rule="evenodd" clip-rule="evenodd" d="M1311.72 7.40173C1307.74 7.64982 1303.7 7.77428 1299.64 7.77428C1289.27 9.8468 1280.15 10.2548 1272.33 9.5414C1265.97 9.59838 1258.78 9.01661 1250.71 7.60147C1246.66 7.60147 1242.61 7.47758 1238.64 7.23063C1235.64 11.8246 1225.96 15.7435 1212.36 17.8646C1199.75 19.833 1185.05 20.0514 1171.94 18.4999C1165.56 24.1022 1151.4 28.8093 1131.91 30.9936C1109.36 33.5208 1085.26 32.0465 1067.78 27.7477C1057.53 25.4968 1049.74 22.4231 1045.06 18.9457C1031.62 20.6791 1016.36 20.513 1003.33 18.4695C989.729 16.3386 980.044 12.4017 977.048 7.7865C973.076 8.03459 969.03 8.15905 964.977 8.15905C954.601 10.2316 945.478 10.6396 937.663 9.92618C931.3 9.98317 924.108 9.40141 916.043 7.98626C911.989 7.98626 907.944 7.86237 903.972 7.61541C900.976 12.2094 891.291 16.1283 877.693 18.2494C864.098 20.3706 848.087 20.4595 834.248 18.4914C821.725 29.0913 783.608 34.5642 749.112 30.716C714.616 26.8679 696.805 15.1546 709.328 4.55551C679.11 4.26199 655.24 -3.42352 655.692 -12.7122C656.147 -22.0016 680.758 -29.4626 710.992 -29.4776H916.043C918.362 -29.4776 920.651 -29.4378 922.903 -29.3603C932.072 -29.8098 942.593 -29.6891 952.536 -29.5751C956.844 -29.5257 961.043 -29.4776 964.977 -29.4776H1033.98C1037.75 -29.7278 1041.66 -29.8604 1045.66 -29.8624H1250.71C1253.03 -29.8624 1255.32 -29.8226 1257.57 -29.7451C1266.74 -30.1945 1277.26 -30.0739 1287.2 -29.9599C1291.51 -29.9105 1295.71 -29.8624 1299.64 -29.8624H1504.69C1534.93 -29.8473 1559.54 -22.3519 1559.99 -13.0196C1560.45 -3.68812 1536.58 4.03284 1506.36 4.32771C1518.88 14.9757 1501.07 26.743 1466.57 30.6089C1432.08 34.4748 1393.96 28.9766 1381.44 18.3278C1367.6 20.3051 1351.59 20.2157 1337.99 18.0848C1324.4 15.9538 1314.71 12.0169 1311.72 7.40173Z" fill="white"/>
</svg>