<?xml version="1.0" encoding="utf-8"?>
<svg width="816" height="319" viewBox="0 0 816 319" fill="none" xmlns="http://www.w3.org/2000/svg">
  <g clip-path="url(#clip0)">
    <rect width="816" height="319" fill="#0A1971" style=""/>
    <rect width="816" height="319" fill="url(#paint0_linear)" style=""/>
    <path fill-rule="evenodd" clip-rule="evenodd" d="M 389.673 201 L 396.787 212.887 L 393.23 212.887 L 400.667 224.131 L 395.494 224.131 L 403.254 237.302 L 393.23 237.302 L 393.23 245.537 C 397.964 245.437 402.771 245.419 407.652 245.489 L 407.652 243.359 L 403.254 244.869 L 406.359 239.078 L 404.548 239.456 L 407.135 234.546 L 405.712 234.923 L 409.075 229.132 L 411.92 233.79 L 410.497 233.79 L 413.472 238.197 L 411.403 238.197 L 414.507 243.359 L 410.497 243.359 L 410.497 245.54 C 412.344 245.58 414.202 245.633 416.07 245.699 L 416.07 326.344 L -88.43 326.344 L -88.43 245.073 C -84.498 245.454 -80.573 245.852 -76.656 246.267 L -76.656 240.936 L -83.116 240.936 L -78.115 232.57 L -81.449 232.57 L -76.656 225.429 L -78.948 225.429 L -74.364 217.879 L -68.946 227.265 L -71.238 226.653 L -67.07 234.611 L -69.988 233.999 L -64.986 243.385 L -72.072 240.936 L -72.072 246.76 C -66.144 247.408 -60.237 248.092 -54.359 248.806 L -54.359 241.948 L -64.049 241.948 L -56.547 229.132 L -61.548 229.132 L -54.359 218.192 L -57.797 218.192 L -50.92 206.626 L -42.793 221.005 L -46.232 220.067 L -39.98 232.258 L -44.356 231.32 L -36.854 245.699 L -47.482 241.948 L -47.482 249.657 C -42.58 250.274 -37.699 250.911 -32.845 251.564 L -32.845 248.985 L -36.854 248.985 L -33.75 243.823 L -35.82 243.823 L -32.845 239.417 L -34.268 239.417 L -31.422 234.758 L -28.059 240.55 L -29.482 240.172 L -26.895 245.082 L -28.706 244.704 L -25.602 250.496 L -29.999 248.985 L -29.999 251.949 C -25.1 252.615 -20.229 253.298 -15.391 253.992 L -15.391 250.313 L -21.851 250.313 L -16.85 241.948 L -20.184 241.948 L -15.391 234.806 L -17.683 234.806 L -13.099 227.257 L -7.681 236.643 L -9.973 236.03 L -5.805 243.988 L -8.723 243.376 L -3.721 252.762 L -10.806 250.313 L -10.806 254.655 C -4.847 255.524 1.06 256.409 6.906 257.304 L 6.906 249.45 L -2.784 249.45 L 4.718 236.634 L -0.283 236.634 L 6.906 225.694 L 3.468 225.694 L 10.345 214.128 L 18.472 228.507 L 15.033 227.569 L 21.285 239.76 L 16.909 238.822 L 24.411 253.2 L 13.783 249.45 L 13.783 258.365 C 18.71 259.132 23.591 259.904 28.42 260.677 L 28.42 258.362 L 24.411 258.362 L 27.515 253.2 L 25.445 253.2 L 28.42 248.794 L 26.998 248.794 L 29.843 244.136 L 33.206 249.927 L 31.783 249.549 L 34.37 254.459 L 32.559 254.082 L 35.663 259.873 L 31.266 258.362 L 31.266 261.134 C 36.62 261.994 41.908 262.856 47.125 263.712 L 47.125 261.566 L 40.665 261.566 L 45.666 253.2 L 42.332 253.2 L 47.125 246.059 L 44.832 246.059 L 49.417 238.509 L 54.835 247.895 L 52.543 247.283 L 56.71 255.241 L 53.793 254.629 L 58.794 264.015 L 51.709 261.566 L 51.709 264.465 C 57.65 265.444 63.493 266.413 69.226 267.365 L 69.231 267.365 L 69.231 267.365 L 69.231 267.365 L 69.231 267.365 L 69.232 267.366 L 69.422 267.397 L 69.422 260.702 L 59.732 260.702 L 67.234 247.887 L 62.233 247.887 L 69.422 236.946 L 65.984 236.946 L 72.86 225.381 L 80.987 239.76 L 77.549 238.822 L 83.8 251.012 L 79.424 250.075 L 86.926 264.453 L 76.299 260.702 L 76.299 268.537 C 81.269 269.361 86.15 270.168 90.936 270.951 L 90.936 269.615 L 86.926 269.615 L 90.03 264.453 L 87.961 264.453 L 90.936 260.047 L 89.513 260.047 L 92.358 255.388 L 95.721 261.18 L 94.298 260.802 L 96.885 265.712 L 95.075 265.335 L 98.179 271.126 L 93.781 269.615 L 93.781 271.416 C 98.543 272.193 103.207 272.946 107.764 273.668 L 107.764 270.944 L 101.305 270.944 L 106.306 262.578 L 102.972 262.578 L 107.764 255.436 L 105.472 255.436 L 110.057 247.887 L 115.475 257.273 L 113.182 256.66 L 117.35 264.618 L 114.433 264.006 L 119.434 273.392 L 112.349 270.944 L 112.349 274.389 C 118.461 275.345 124.372 276.24 130.062 277.06 L 130.062 270.08 L 120.372 270.08 L 127.874 257.264 L 122.872 257.264 L 130.062 246.324 L 126.623 246.324 L 133.5 234.758 L 141.627 249.137 L 138.189 248.199 L 144.44 260.39 L 140.064 259.452 L 147.566 273.831 L 136.938 270.08 L 136.938 278.027 C 142.018 278.724 146.902 279.351 151.576 279.897 L 151.576 278.992 L 147.566 278.992 L 150.67 273.831 L 148.601 273.831 L 151.576 269.424 L 150.153 269.424 L 152.998 264.766 L 156.361 270.557 L 154.938 270.179 L 157.525 275.09 L 155.715 274.712 L 158.819 280.503 L 154.421 278.992 L 154.421 280.222 C 159.333 280.769 164.001 281.221 168.404 281.561 L 168.404 277.82 L 161.945 277.82 L 166.946 269.454 L 163.612 269.454 L 168.404 262.313 L 166.112 262.313 L 170.697 254.763 L 176.115 264.149 L 173.822 263.537 L 177.99 271.495 L 175.073 270.883 L 180.074 280.269 L 172.989 277.82 L 172.989 281.88 C 178.417 282.214 183.397 282.354 187.888 282.27 C 188.819 282.253 189.756 282.222 190.702 282.178 L 190.702 273.831 L 181.012 273.831 L 188.514 261.015 L 183.512 261.015 L 190.702 250.075 L 187.263 250.075 L 194.14 238.509 L 202.267 252.888 L 198.829 251.95 L 205.08 264.141 L 200.704 263.203 L 208.206 277.581 L 197.578 273.831 L 197.578 281.658 C 202.275 281.174 207.151 280.426 212.216 279.472 L 212.216 277.742 L 208.206 277.742 L 211.31 272.58 L 209.241 272.58 L 212.216 268.174 L 210.793 268.174 L 213.638 263.515 L 217.001 269.307 L 215.579 268.929 L 218.165 273.839 L 216.355 273.462 L 218.857 278.13 C 222.649 277.317 226.542 276.408 230.539 275.426 L 230.539 272.819 L 223.21 275.268 L 228.383 265.882 L 225.365 266.494 L 229.677 258.536 L 227.306 259.148 L 232.91 249.762 L 237.653 257.312 L 235.282 257.312 L 240.24 264.453 L 236.791 264.453 L 241.801 272.556 C 245.837 271.498 249.971 270.39 254.209 269.253 L 254.209 264.184 L 243.215 268.039 L 250.975 253.261 L 246.448 254.225 L 252.915 241.696 L 249.358 242.66 L 257.766 227.882 L 264.88 239.768 L 261.323 239.768 L 268.76 251.012 L 263.586 251.012 L 271.347 264.184 L 261.323 264.184 L 261.323 267.345 C 264.767 266.423 268.278 265.489 271.854 264.552 L 274.451 259.708 L 272.64 260.086 L 275.227 255.176 L 273.804 255.553 L 277.167 249.762 L 280.013 254.42 L 278.59 254.42 L 281.565 258.827 L 279.495 258.827 L 281.452 262.081 C 287.628 260.522 293.994 258.98 300.556 257.501 L 300.556 253.439 L 293.227 255.888 L 298.401 246.502 L 295.383 247.114 L 299.694 239.156 L 297.323 239.768 L 302.928 230.382 L 307.67 237.932 L 305.299 237.932 L 310.257 245.073 L 306.808 245.073 L 311.982 253.439 L 305.299 253.439 L 305.299 256.451 C 311.437 255.116 317.744 253.845 324.226 252.671 L 324.226 243.554 L 313.232 247.409 L 320.993 232.631 L 316.466 233.595 L 322.933 221.066 L 319.376 222.03 L 327.783 207.252 L 334.897 219.138 L 331.34 219.138 L 338.777 230.382 L 333.603 230.382 L 341.364 243.554 L 331.34 243.554 L 331.34 251.435 C 336.057 250.651 340.863 249.923 345.762 249.264 L 345.762 245.859 L 341.364 247.37 L 344.468 241.579 L 342.657 241.956 L 345.244 237.046 L 343.821 237.424 L 347.184 231.633 L 350.03 236.291 L 348.607 236.291 L 351.582 240.697 L 349.513 240.697 L 352.617 245.859 L 348.607 245.859 L 348.607 248.891 C 353.142 248.311 357.755 247.791 362.447 247.342 L 362.447 242.812 L 355.117 245.26 L 360.291 235.874 L 357.273 236.486 L 361.584 228.529 L 359.213 229.141 L 364.818 219.755 L 369.561 227.304 L 367.189 227.304 L 372.147 234.446 L 368.698 234.446 L 373.872 242.812 L 367.189 242.812 L 367.189 246.915 C 373.362 246.394 379.67 245.998 386.116 245.75 L 386.116 237.302 L 375.122 238.822 L 382.883 226.38 L 377.623 226.38 L 384.823 214.814 L 381.266 215.778 L 389.673 201 Z M 240.794 272.819 L 235.282 272.819 L 235.282 274.24 C 237.098 273.779 238.936 273.304 240.794 272.819 Z M 217.207 278.479 L 215.061 277.742 L 215.061 278.918 C 215.773 278.775 216.488 278.629 217.207 278.479 Z" fill="#F5F5F5"/>
    <path fill-rule="evenodd" clip-rule="evenodd" d="M 389.673 201 L 396.787 212.887 L 393.23 212.887 L 400.667 224.131 L 395.494 224.131 L 403.254 237.302 L 393.23 237.302 L 393.23 245.537 C 397.964 245.437 402.771 245.419 407.652 245.489 L 407.652 243.359 L 403.254 244.869 L 406.359 239.078 L 404.548 239.456 L 407.135 234.546 L 405.712 234.923 L 409.075 229.132 L 411.92 233.79 L 410.497 233.79 L 413.472 238.197 L 411.403 238.197 L 414.507 243.359 L 410.497 243.359 L 410.497 245.54 C 412.344 245.58 414.202 245.633 416.07 245.699 L 416.07 326.344 L -88.43 326.344 L -88.43 245.073 C -84.498 245.454 -80.573 245.852 -76.656 246.267 L -76.656 240.936 L -83.116 240.936 L -78.115 232.57 L -81.449 232.57 L -76.656 225.429 L -78.948 225.429 L -74.364 217.879 L -68.946 227.265 L -71.238 226.653 L -67.07 234.611 L -69.988 233.999 L -64.986 243.385 L -72.072 240.936 L -72.072 246.76 C -66.144 247.408 -60.237 248.092 -54.359 248.806 L -54.359 241.948 L -64.049 241.948 L -56.547 229.132 L -61.548 229.132 L -54.359 218.192 L -57.797 218.192 L -50.92 206.626 L -42.793 221.005 L -46.232 220.067 L -39.98 232.258 L -44.356 231.32 L -36.854 245.699 L -47.482 241.948 L -47.482 249.657 C -42.58 250.274 -37.699 250.911 -32.845 251.564 L -32.845 248.985 L -36.854 248.985 L -33.75 243.823 L -35.82 243.823 L -32.845 239.417 L -34.268 239.417 L -31.422 234.758 L -28.059 240.55 L -29.482 240.172 L -26.895 245.082 L -28.706 244.704 L -25.602 250.496 L -29.999 248.985 L -29.999 251.949 C -25.1 252.615 -20.229 253.298 -15.391 253.992 L -15.391 250.313 L -21.851 250.313 L -16.85 241.948 L -20.184 241.948 L -15.391 234.806 L -17.683 234.806 L -13.099 227.257 L -7.681 236.643 L -9.973 236.03 L -5.805 243.988 L -8.723 243.376 L -3.721 252.762 L -10.806 250.313 L -10.806 254.655 C -4.847 255.524 1.06 256.409 6.906 257.304 L 6.906 249.45 L -2.784 249.45 L 4.718 236.634 L -0.283 236.634 L 6.906 225.694 L 3.468 225.694 L 10.345 214.128 L 18.472 228.507 L 15.033 227.569 L 21.285 239.76 L 16.909 238.822 L 24.411 253.2 L 13.783 249.45 L 13.783 258.365 C 18.71 259.132 23.591 259.904 28.42 260.677 L 28.42 258.362 L 24.411 258.362 L 27.515 253.2 L 25.445 253.2 L 28.42 248.794 L 26.998 248.794 L 29.843 244.136 L 33.206 249.927 L 31.783 249.549 L 34.37 254.459 L 32.559 254.082 L 35.663 259.873 L 31.266 258.362 L 31.266 261.134 C 36.62 261.994 41.908 262.856 47.125 263.712 L 47.125 261.566 L 40.665 261.566 L 45.666 253.2 L 42.332 253.2 L 47.125 246.059 L 44.832 246.059 L 49.417 238.509 L 54.835 247.895 L 52.543 247.283 L 56.71 255.241 L 53.793 254.629 L 58.794 264.015 L 51.709 261.566 L 51.709 264.465 C 57.65 265.444 63.493 266.413 69.226 267.365 L 69.231 267.365 L 69.231 267.365 L 69.231 267.365 L 69.231 267.365 L 69.232 267.366 L 69.422 267.397 L 69.422 260.702 L 59.732 260.702 L 67.234 247.887 L 62.233 247.887 L 69.422 236.946 L 65.984 236.946 L 72.86 225.381 L 80.987 239.76 L 77.549 238.822 L 83.8 251.012 L 79.424 250.075 L 86.926 264.453 L 76.299 260.702 L 76.299 268.537 C 81.269 269.361 86.15 270.168 90.936 270.951 L 90.936 269.615 L 86.926 269.615 L 90.03 264.453 L 87.961 264.453 L 90.936 260.047 L 89.513 260.047 L 92.358 255.388 L 95.721 261.18 L 94.298 260.802 L 96.885 265.712 L 95.075 265.335 L 98.179 271.126 L 93.781 269.615 L 93.781 271.416 C 98.543 272.193 103.207 272.946 107.764 273.668 L 107.764 270.944 L 101.305 270.944 L 106.306 262.578 L 102.972 262.578 L 107.764 255.436 L 105.472 255.436 L 110.057 247.887 L 115.475 257.273 L 113.182 256.66 L 117.35 264.618 L 114.433 264.006 L 119.434 273.392 L 112.349 270.944 L 112.349 274.389 C 118.461 275.345 124.372 276.24 130.062 277.06 L 130.062 270.08 L 120.372 270.08 L 127.874 257.264 L 122.872 257.264 L 130.062 246.324 L 126.623 246.324 L 133.5 234.758 L 141.627 249.137 L 138.189 248.199 L 144.44 260.39 L 140.064 259.452 L 147.566 273.831 L 136.938 270.08 L 136.938 278.027 C 142.018 278.724 146.902 279.351 151.576 279.897 L 151.576 278.992 L 147.566 278.992 L 150.67 273.831 L 148.601 273.831 L 151.576 269.424 L 150.153 269.424 L 152.998 264.766 L 156.361 270.557 L 154.938 270.179 L 157.525 275.09 L 155.715 274.712 L 158.819 280.503 L 154.421 278.992 L 154.421 280.222 C 159.333 280.769 164.001 281.221 168.404 281.561 L 168.404 277.82 L 161.945 277.82 L 166.946 269.454 L 163.612 269.454 L 168.404 262.313 L 166.112 262.313 L 170.697 254.763 L 176.115 264.149 L 173.822 263.537 L 177.99 271.495 L 175.073 270.883 L 180.074 280.269 L 172.989 277.82 L 172.989 281.88 C 178.417 282.214 183.397 282.354 187.888 282.27 C 188.819 282.253 189.756 282.222 190.702 282.178 L 190.702 273.831 L 181.012 273.831 L 188.514 261.015 L 183.512 261.015 L 190.702 250.075 L 187.263 250.075 L 194.14 238.509 L 202.267 252.888 L 198.829 251.95 L 205.08 264.141 L 200.704 263.203 L 208.206 277.581 L 197.578 273.831 L 197.578 281.658 C 202.275 281.174 207.151 280.426 212.216 279.472 L 212.216 277.742 L 208.206 277.742 L 211.31 272.58 L 209.241 272.58 L 212.216 268.174 L 210.793 268.174 L 213.638 263.515 L 217.001 269.307 L 215.579 268.929 L 218.165 273.839 L 216.355 273.462 L 218.857 278.13 C 222.649 277.317 226.542 276.408 230.539 275.426 L 230.539 272.819 L 223.21 275.268 L 228.383 265.882 L 225.365 266.494 L 229.677 258.536 L 227.306 259.148 L 232.91 249.762 L 237.653 257.312 L 235.282 257.312 L 240.24 264.453 L 236.791 264.453 L 241.801 272.556 C 245.837 271.498 249.971 270.39 254.209 269.253 L 254.209 264.184 L 243.215 268.039 L 250.975 253.261 L 246.448 254.225 L 252.915 241.696 L 249.358 242.66 L 257.766 227.882 L 264.88 239.768 L 261.323 239.768 L 268.76 251.012 L 263.586 251.012 L 271.347 264.184 L 261.323 264.184 L 261.323 267.345 C 264.767 266.423 268.278 265.489 271.854 264.552 L 274.451 259.708 L 272.64 260.086 L 275.227 255.176 L 273.804 255.553 L 277.167 249.762 L 280.013 254.42 L 278.59 254.42 L 281.565 258.827 L 279.495 258.827 L 281.452 262.081 C 287.628 260.522 293.994 258.98 300.556 257.501 L 300.556 253.439 L 293.227 255.888 L 298.401 246.502 L 295.383 247.114 L 299.694 239.156 L 297.323 239.768 L 302.928 230.382 L 307.67 237.932 L 305.299 237.932 L 310.257 245.073 L 306.808 245.073 L 311.982 253.439 L 305.299 253.439 L 305.299 256.451 C 311.437 255.116 317.744 253.845 324.226 252.671 L 324.226 243.554 L 313.232 247.409 L 320.993 232.631 L 316.466 233.595 L 322.933 221.066 L 319.376 222.03 L 327.783 207.252 L 334.897 219.138 L 331.34 219.138 L 338.777 230.382 L 333.603 230.382 L 341.364 243.554 L 331.34 243.554 L 331.34 251.435 C 336.057 250.651 340.863 249.923 345.762 249.264 L 345.762 245.859 L 341.364 247.37 L 344.468 241.579 L 342.657 241.956 L 345.244 237.046 L 343.821 237.424 L 347.184 231.633 L 350.03 236.291 L 348.607 236.291 L 351.582 240.697 L 349.513 240.697 L 352.617 245.859 L 348.607 245.859 L 348.607 248.891 C 353.142 248.311 357.755 247.791 362.447 247.342 L 362.447 242.812 L 355.117 245.26 L 360.291 235.874 L 357.273 236.486 L 361.584 228.529 L 359.213 229.141 L 364.818 219.755 L 369.561 227.304 L 367.189 227.304 L 372.147 234.446 L 368.698 234.446 L 373.872 242.812 L 367.189 242.812 L 367.189 246.915 C 373.362 246.394 379.67 245.998 386.116 245.75 L 386.116 237.302 L 375.122 238.822 L 382.883 226.38 L 377.623 226.38 L 384.823 214.814 L 381.266 215.778 L 389.673 201 Z M 240.794 272.819 L 235.282 272.819 L 235.282 274.24 C 237.098 273.779 238.936 273.304 240.794 272.819 Z M 217.207 278.479 L 215.061 277.742 L 215.061 278.918 C 215.773 278.775 216.488 278.629 217.207 278.479 Z" fill="url(#paint1_linear)"/>
    <path fill-rule="evenodd" clip-rule="evenodd" d="M 892.884 201.702 L 899.998 213.589 L 896.441 213.589 L 903.878 224.833 L 898.705 224.833 L 906.465 238.004 L 896.441 238.004 L 896.441 246.239 C 901.175 246.139 905.982 246.121 910.863 246.191 L 910.863 244.061 L 906.465 245.571 L 909.57 239.78 L 907.759 240.158 L 910.346 235.248 L 908.923 235.625 L 912.286 229.834 L 915.131 234.492 L 913.708 234.492 L 916.683 238.899 L 914.614 238.899 L 917.718 244.061 L 913.708 244.061 L 913.708 246.242 C 915.555 246.282 917.413 246.335 919.281 246.401 L 919.281 326.733 L 414.781 326.733 L 414.781 245.775 C 418.712 246.156 422.638 246.554 426.555 246.969 L 426.555 241.638 L 420.095 241.638 L 425.096 233.272 L 421.762 233.272 L 426.555 226.131 L 424.263 226.131 L 428.847 218.581 L 434.265 227.967 L 431.973 227.355 L 436.14 235.313 L 433.223 234.701 L 438.224 244.087 L 431.139 241.638 L 431.139 247.462 C 437.067 248.11 442.974 248.794 448.852 249.508 L 448.852 242.024 L 439.162 242.024 L 446.664 229.209 L 441.663 229.209 L 448.852 218.269 L 445.414 218.269 L 452.29 206.703 L 460.417 221.082 L 456.979 220.144 L 463.231 232.335 L 458.854 231.397 L 466.356 245.775 L 455.729 242.024 L 455.729 250.359 C 460.631 250.976 465.512 251.613 470.366 252.266 L 470.366 249.687 L 466.356 249.687 L 469.46 244.525 L 467.391 244.525 L 470.366 240.119 L 468.943 240.119 L 471.789 235.46 L 475.152 241.252 L 473.729 240.874 L 476.316 245.784 L 474.505 245.406 L 477.609 251.198 L 473.211 249.687 L 473.211 252.651 C 478.11 253.317 482.981 254 487.82 254.694 L 487.82 251.015 L 481.36 251.015 L 486.361 242.65 L 483.027 242.65 L 487.82 235.508 L 485.528 235.508 L 490.112 227.959 L 495.53 237.345 L 493.238 236.732 L 497.406 244.69 L 494.488 244.078 L 499.489 253.464 L 492.404 251.015 L 492.404 255.357 C 498.363 256.226 504.271 257.111 510.117 258.006 L 510.117 250.152 L 500.427 250.152 L 507.929 237.336 L 502.928 237.336 L 510.117 226.396 L 506.679 226.396 L 513.555 214.83 L 521.682 229.209 L 518.244 228.271 L 524.496 240.462 L 520.12 239.524 L 527.621 253.902 L 516.994 250.152 L 516.994 259.067 C 521.921 259.834 526.802 260.606 531.631 261.379 L 531.631 259.064 L 527.621 259.064 L 530.726 253.902 L 528.656 253.902 L 531.631 249.496 L 530.208 249.496 L 533.054 244.838 L 536.417 250.629 L 534.994 250.251 L 537.581 255.161 L 535.77 254.784 L 538.874 260.575 L 534.477 259.064 L 534.477 261.836 C 539.83 262.696 545.119 263.558 550.335 264.414 L 550.335 262.268 L 543.875 262.268 L 548.877 253.902 L 545.543 253.902 L 550.335 246.761 L 548.043 246.761 L 552.628 239.211 L 558.046 248.597 L 555.753 247.985 L 559.921 255.943 L 557.004 255.331 L 562.005 264.717 L 554.92 262.268 L 554.92 265.167 C 560.837 266.142 566.656 267.108 572.366 268.055 L 572.435 268.066 L 572.44 268.067 L 572.442 268.067 L 572.442 268.068 L 572.442 268.068 L 572.633 268.099 L 572.633 261.404 L 562.943 261.404 L 570.445 248.589 L 565.443 248.589 L 572.633 237.648 L 569.194 237.648 L 576.071 226.083 L 584.198 240.462 L 580.76 239.524 L 587.011 251.714 L 582.635 250.777 L 590.137 265.155 L 579.509 261.404 L 579.509 269.239 C 584.48 270.063 589.361 270.87 594.147 271.653 L 594.147 270.317 L 590.137 270.317 L 593.241 265.155 L 591.172 265.155 L 594.147 260.749 L 592.724 260.749 L 595.569 256.09 L 598.932 261.882 L 597.509 261.504 L 600.096 266.414 L 598.286 266.037 L 601.39 271.828 L 596.992 270.317 L 596.992 272.118 C 601.754 272.895 606.418 273.648 610.975 274.37 L 610.975 271.646 L 604.516 271.646 L 609.517 263.28 L 606.183 263.28 L 610.975 256.138 L 608.683 256.138 L 613.268 248.589 L 618.686 257.975 L 616.393 257.362 L 620.561 265.32 L 617.644 264.708 L 622.645 274.094 L 615.56 271.646 L 615.56 275.091 C 621.672 276.047 627.583 276.942 633.273 277.762 L 633.273 270.782 L 623.583 270.782 L 631.085 257.966 L 626.083 257.966 L 633.273 247.026 L 629.834 247.026 L 636.711 235.46 L 644.838 249.839 L 641.4 248.901 L 647.651 261.092 L 643.275 260.154 L 650.777 274.533 L 640.149 270.782 L 640.149 278.729 C 645.229 279.426 650.113 280.053 654.787 280.599 L 654.787 279.694 L 650.777 279.694 L 653.881 274.533 L 651.812 274.533 L 654.787 270.126 L 653.364 270.126 L 656.209 265.468 L 659.572 271.259 L 658.149 270.881 L 660.736 275.792 L 658.926 275.414 L 662.03 281.205 L 657.632 279.694 L 657.632 280.924 C 662.544 281.471 667.212 281.923 671.615 282.263 L 671.615 278.522 L 665.156 278.522 L 670.157 270.156 L 666.823 270.156 L 671.615 263.015 L 669.323 263.015 L 673.908 255.465 L 679.326 264.851 L 677.033 264.239 L 681.201 272.197 L 678.284 271.585 L 683.285 280.971 L 676.2 278.522 L 676.2 282.582 C 681.628 282.916 686.608 283.056 691.099 282.972 C 692.03 282.955 692.967 282.924 693.913 282.88 L 693.913 274.533 L 684.223 274.533 L 691.725 261.717 L 686.723 261.717 L 693.913 250.777 L 690.474 250.777 L 697.351 239.211 L 705.478 253.59 L 702.04 252.652 L 708.291 264.843 L 703.915 263.905 L 711.417 278.283 L 700.789 274.533 L 700.789 282.36 C 705.486 281.876 710.362 281.128 715.427 280.174 L 715.427 278.444 L 711.417 278.444 L 714.521 273.282 L 712.452 273.282 L 715.427 268.876 L 714.004 268.876 L 716.849 264.217 L 720.212 270.009 L 718.79 269.631 L 721.376 274.541 L 719.566 274.164 L 722.068 278.832 C 725.86 278.019 729.753 277.11 733.75 276.128 L 733.75 273.521 L 726.421 275.97 L 731.594 266.584 L 728.576 267.196 L 732.888 259.238 L 730.517 259.85 L 736.121 250.464 L 740.864 258.014 L 738.493 258.014 L 743.451 265.155 L 740.002 265.155 L 745.012 273.258 C 749.048 272.2 753.182 271.092 757.42 269.955 L 757.42 264.886 L 746.426 268.741 L 754.186 253.963 L 749.659 254.927 L 756.126 242.398 L 752.569 243.362 L 760.977 228.584 L 768.091 240.47 L 764.534 240.47 L 771.971 251.714 L 766.797 251.714 L 774.558 264.886 L 764.534 264.886 L 764.534 268.047 C 767.978 267.125 771.489 266.191 775.065 265.254 L 777.662 260.41 L 775.851 260.788 L 778.438 255.878 L 777.015 256.255 L 780.378 250.464 L 783.224 255.122 L 781.801 255.122 L 784.776 259.529 L 782.706 259.529 L 784.663 262.783 C 790.839 261.224 797.205 259.682 803.767 258.203 L 803.767 254.141 L 796.438 256.59 L 801.612 247.204 L 798.594 247.816 L 802.905 239.858 L 800.534 240.47 L 806.139 231.084 L 810.881 238.634 L 808.51 238.634 L 813.468 245.775 L 810.019 245.775 L 815.193 254.141 L 808.51 254.141 L 808.51 257.153 C 814.648 255.818 820.955 254.547 827.437 253.373 L 827.437 244.256 L 816.443 248.111 L 824.204 233.333 L 819.677 234.297 L 826.144 221.768 L 822.587 222.732 L 830.994 207.954 L 838.108 219.84 L 834.551 219.84 L 841.988 231.084 L 836.814 231.084 L 844.575 244.256 L 834.551 244.256 L 834.551 252.137 C 839.268 251.353 844.074 250.625 848.973 249.966 L 848.973 246.561 L 844.575 248.072 L 847.679 242.281 L 845.868 242.658 L 848.455 237.748 L 847.032 238.126 L 850.395 232.335 L 853.241 236.993 L 851.818 236.993 L 854.793 241.399 L 852.724 241.399 L 855.828 246.561 L 851.818 246.561 L 851.818 249.593 C 863.771 248.064 876.265 246.956 889.327 246.452 L 889.327 238.004 L 878.333 239.524 L 886.094 227.082 L 880.834 227.082 L 888.034 215.516 L 884.477 216.48 L 892.884 201.702 Z M 744.005 273.521 L 738.493 273.521 L 738.493 274.942 C 740.309 274.481 742.147 274.006 744.005 273.521 Z M 720.418 279.181 L 718.272 278.444 L 718.272 279.62 C 718.984 279.477 719.699 279.331 720.418 279.181 Z M 868.029 218.581 L 872.772 226.131 L 870.4 226.131 L 875.358 233.272 L 871.909 233.272 L 877.083 241.638 L 870.4 241.638 L 870.4 247.147 L 865.658 247.963 L 865.658 241.638 L 858.328 244.087 L 863.502 234.701 L 860.484 235.313 L 864.795 227.355 L 862.424 227.967 L 868.029 218.581 Z" fill="#F5F5F5" style=""/>
    <path fill-rule="evenodd" clip-rule="evenodd" d="M 892.938 201.591 L 900.052 213.478 L 896.495 213.478 L 903.932 224.722 L 898.759 224.722 L 906.519 237.893 L 896.495 237.893 L 896.495 246.128 C 901.229 246.028 906.036 246.01 910.917 246.08 L 910.917 243.95 L 906.519 245.46 L 909.624 239.669 L 907.813 240.047 L 910.4 235.137 L 908.977 235.514 L 912.34 229.723 L 915.185 234.381 L 913.762 234.381 L 916.737 238.788 L 914.668 238.788 L 917.772 243.95 L 913.762 243.95 L 913.762 246.131 C 915.609 246.171 917.467 246.224 919.335 246.29 L 919.335 326.622 L 414.835 326.622 L 414.835 245.664 C 418.766 246.045 422.692 246.443 426.609 246.858 L 426.609 241.527 L 420.149 241.527 L 425.15 233.161 L 421.816 233.161 L 426.609 226.02 L 424.317 226.02 L 428.901 218.47 L 434.319 227.856 L 432.027 227.244 L 436.194 235.202 L 433.277 234.59 L 438.278 243.976 L 431.193 241.527 L 431.193 247.351 C 437.121 247.999 443.028 248.683 448.906 249.397 L 448.906 241.913 L 439.216 241.913 L 446.718 229.098 L 441.717 229.098 L 448.906 218.158 L 445.468 218.158 L 452.344 206.592 L 460.471 220.971 L 457.033 220.033 L 463.285 232.224 L 458.908 231.286 L 466.41 245.664 L 455.783 241.913 L 455.783 250.248 C 460.685 250.865 465.566 251.502 470.42 252.155 L 470.42 249.576 L 466.41 249.576 L 469.514 244.414 L 467.445 244.414 L 470.42 240.008 L 468.997 240.008 L 471.843 235.349 L 475.206 241.141 L 473.783 240.763 L 476.37 245.673 L 474.559 245.295 L 477.663 251.087 L 473.265 249.576 L 473.265 252.54 C 478.164 253.206 483.035 253.889 487.874 254.583 L 487.874 250.904 L 481.414 250.904 L 486.415 242.539 L 483.081 242.539 L 487.874 235.397 L 485.582 235.397 L 490.166 227.848 L 495.584 237.234 L 493.292 236.621 L 497.46 244.579 L 494.542 243.967 L 499.543 253.353 L 492.458 250.904 L 492.458 255.246 C 498.417 256.115 504.325 257 510.171 257.895 L 510.171 250.041 L 500.481 250.041 L 507.983 237.225 L 502.982 237.225 L 510.171 226.285 L 506.733 226.285 L 513.609 214.719 L 521.736 229.098 L 518.298 228.16 L 524.55 240.351 L 520.174 239.413 L 527.675 253.791 L 517.048 250.041 L 517.048 258.956 C 521.975 259.723 526.856 260.495 531.685 261.268 L 531.685 258.953 L 527.675 258.953 L 530.78 253.791 L 528.71 253.791 L 531.685 249.385 L 530.262 249.385 L 533.108 244.727 L 536.471 250.518 L 535.048 250.14 L 537.635 255.05 L 535.824 254.673 L 538.928 260.464 L 534.531 258.953 L 534.531 261.725 C 539.884 262.585 545.173 263.447 550.389 264.303 L 550.389 262.157 L 543.929 262.157 L 548.931 253.791 L 545.597 253.791 L 550.389 246.65 L 548.097 246.65 L 552.682 239.1 L 558.1 248.486 L 555.807 247.874 L 559.975 255.832 L 557.058 255.22 L 562.059 264.606 L 554.974 262.157 L 554.974 265.056 C 560.891 266.031 566.71 266.997 572.42 267.944 L 572.489 267.955 L 572.494 267.956 L 572.496 267.956 L 572.496 267.957 L 572.496 267.957 L 572.687 267.988 L 572.687 261.293 L 562.997 261.293 L 570.499 248.478 L 565.497 248.478 L 572.687 237.537 L 569.248 237.537 L 576.125 225.972 L 584.252 240.351 L 580.814 239.413 L 587.065 251.603 L 582.689 250.666 L 590.191 265.044 L 579.563 261.293 L 579.563 269.128 C 584.534 269.952 589.415 270.759 594.201 271.542 L 594.201 270.206 L 590.191 270.206 L 593.295 265.044 L 591.226 265.044 L 594.201 260.638 L 592.778 260.638 L 595.623 255.979 L 598.986 261.771 L 597.563 261.393 L 600.15 266.303 L 598.34 265.926 L 601.444 271.717 L 597.046 270.206 L 597.046 272.007 C 601.808 272.784 606.472 273.537 611.029 274.259 L 611.029 271.535 L 604.57 271.535 L 609.571 263.169 L 606.237 263.169 L 611.029 256.027 L 608.737 256.027 L 613.322 248.478 L 618.74 257.864 L 616.447 257.251 L 620.615 265.209 L 617.698 264.597 L 622.699 273.983 L 615.614 271.535 L 615.614 274.98 C 621.726 275.936 627.637 276.831 633.327 277.651 L 633.327 270.671 L 623.637 270.671 L 631.139 257.855 L 626.137 257.855 L 633.327 246.915 L 629.888 246.915 L 636.765 235.349 L 644.892 249.728 L 641.454 248.79 L 647.705 260.981 L 643.329 260.043 L 650.831 274.422 L 640.203 270.671 L 640.203 278.618 C 645.283 279.315 650.167 279.942 654.841 280.488 L 654.841 279.583 L 650.831 279.583 L 653.935 274.422 L 651.866 274.422 L 654.841 270.015 L 653.418 270.015 L 656.263 265.357 L 659.626 271.148 L 658.203 270.77 L 660.79 275.681 L 658.98 275.303 L 662.084 281.094 L 657.686 279.583 L 657.686 280.813 C 662.598 281.36 667.266 281.812 671.669 282.152 L 671.669 278.411 L 665.21 278.411 L 670.211 270.045 L 666.877 270.045 L 671.669 262.904 L 669.377 262.904 L 673.962 255.354 L 679.38 264.74 L 677.087 264.128 L 681.255 272.086 L 678.338 271.474 L 683.339 280.86 L 676.254 278.411 L 676.254 282.471 C 681.682 282.805 686.662 282.945 691.153 282.861 C 692.084 282.844 693.021 282.813 693.967 282.769 L 693.967 274.422 L 684.277 274.422 L 691.779 261.606 L 686.777 261.606 L 693.967 250.666 L 690.528 250.666 L 697.405 239.1 L 705.532 253.479 L 702.094 252.541 L 708.345 264.732 L 703.969 263.794 L 711.471 278.172 L 700.843 274.422 L 700.843 282.249 C 705.54 281.765 710.416 281.017 715.481 280.063 L 715.481 278.333 L 711.471 278.333 L 714.575 273.171 L 712.506 273.171 L 715.481 268.765 L 714.058 268.765 L 716.903 264.106 L 720.266 269.898 L 718.844 269.52 L 721.43 274.43 L 719.62 274.053 L 722.122 278.721 C 725.914 277.908 729.807 276.999 733.804 276.017 L 733.804 273.41 L 726.475 275.859 L 731.648 266.473 L 728.63 267.085 L 732.942 259.127 L 730.571 259.739 L 736.175 250.353 L 740.918 257.903 L 738.547 257.903 L 743.505 265.044 L 740.056 265.044 L 745.066 273.147 C 749.102 272.089 753.236 270.981 757.474 269.844 L 757.474 264.775 L 746.48 268.63 L 754.24 253.852 L 749.713 254.816 L 756.18 242.287 L 752.623 243.251 L 761.031 228.473 L 768.145 240.359 L 764.588 240.359 L 772.025 251.603 L 766.851 251.603 L 774.612 264.775 L 764.588 264.775 L 764.588 267.936 C 768.032 267.014 771.543 266.08 775.119 265.143 L 777.716 260.299 L 775.905 260.677 L 778.492 255.767 L 777.069 256.144 L 780.432 250.353 L 783.278 255.011 L 781.855 255.011 L 784.83 259.418 L 782.76 259.418 L 784.717 262.672 C 790.893 261.113 797.259 259.571 803.821 258.092 L 803.821 254.03 L 796.492 256.479 L 801.666 247.093 L 798.648 247.705 L 802.959 239.747 L 800.588 240.359 L 806.193 230.973 L 810.935 238.523 L 808.564 238.523 L 813.522 245.664 L 810.073 245.664 L 815.247 254.03 L 808.564 254.03 L 808.564 257.042 C 814.702 255.707 821.009 254.436 827.491 253.262 L 827.491 244.145 L 816.497 248 L 824.258 233.222 L 819.731 234.186 L 826.198 221.657 L 822.641 222.621 L 831.048 207.843 L 838.162 219.729 L 834.605 219.729 L 842.042 230.973 L 836.868 230.973 L 844.629 244.145 L 834.605 244.145 L 834.605 252.026 C 839.322 251.242 844.128 250.514 849.027 249.855 L 849.027 246.45 L 844.629 247.961 L 847.733 242.17 L 845.922 242.547 L 848.509 237.637 L 847.086 238.015 L 850.449 232.224 L 853.295 236.882 L 851.872 236.882 L 854.847 241.288 L 852.778 241.288 L 855.882 246.45 L 851.872 246.45 L 851.872 249.482 C 863.825 247.953 876.319 246.845 889.381 246.341 L 889.381 237.893 L 878.387 239.413 L 886.148 226.971 L 880.888 226.971 L 888.088 215.405 L 884.531 216.369 L 892.938 201.591 Z M 744.059 273.41 L 738.547 273.41 L 738.547 274.831 C 740.363 274.37 742.201 273.895 744.059 273.41 Z M 720.472 279.07 L 718.326 278.333 L 718.326 279.509 C 719.038 279.366 719.753 279.22 720.472 279.07 Z M 868.083 218.47 L 872.826 226.02 L 870.454 226.02 L 875.412 233.161 L 871.963 233.161 L 877.137 241.527 L 870.454 241.527 L 870.454 247.036 L 865.712 247.852 L 865.712 241.527 L 858.382 243.976 L 863.556 234.59 L 860.538 235.202 L 864.849 227.244 L 862.478 227.856 L 868.083 218.47 Z" fill="url(#paint2_linear)" style=""/>
  </g>
  <defs>
    <linearGradient id="paint0_linear" x1="408" y1="0" x2="408" y2="439.325" gradientUnits="userSpaceOnUse">
      <stop offset="0.2969" stop-color="#0A1A75"/>
      <stop offset="0.9735" stop-color="#1531D0" stop-opacity="0"/>
    </linearGradient>
    <linearGradient id="paint1_linear" x1="187.25" y1="201" x2="186.747" y2="387.428" gradientUnits="userSpaceOnUse" gradientTransform="matrix(1, 0, 0, 1, -23.429909, 0)">
      <stop offset="0.3799" stop-color="white"/>
      <stop offset="0.6595" stop-color="white" stop-opacity="0"/>
    </linearGradient>
    <linearGradient id="paint2_linear" x1="691.75" y1="201" x2="692.063" y2="439.184" gradientUnits="userSpaceOnUse" gradientTransform="matrix(1, 0, 0, 1, -24.664928, 0.590634)">
      <stop offset="0.318" stop-color="white"/>
      <stop offset="0.5166" stop-color="white" stop-opacity="0"/>
    </linearGradient>
    <clipPath id="clip0">
      <rect width="816" height="319" fill="white"/>
    </clipPath>
  </defs>
</svg>