<?xml version="1.0" encoding="utf-8"?>
<svg width="816" height="319" viewBox="0 0 816 319" fill="none" xmlns="http://www.w3.org/2000/svg">
  <g clip-path="url(#clip0)">
    <rect width="816" height="319" fill="#0A1971"/>
    <rect width="816" height="319" fill="url(#paint0_linear)"/>
    <path fill-rule="evenodd" clip-rule="evenodd" d="M413.103 201L420.217 212.887H416.66L424.097 224.131H418.924L426.684 237.302H416.66V245.537C421.394 245.437 426.201 245.419 431.082 245.489V243.359L426.684 244.869L429.789 239.078L427.978 239.456L430.565 234.546L429.142 234.923L432.505 229.132L435.35 233.79H433.927L436.902 238.197H434.833L437.937 243.359H433.927V245.54C435.774 245.58 437.632 245.633 439.5 245.699V326.344H-65V245.073C-61.0686 245.454 -57.1433 245.852 -53.2262 246.267V240.936H-59.6862L-54.6849 232.57H-58.0191L-53.2262 225.429H-55.5185L-50.934 217.879L-45.516 227.265L-47.8082 226.653L-43.6405 234.611L-46.5579 233.999L-41.5567 243.385L-48.6418 240.936V246.76C-42.714 247.408 -36.8073 248.092 -30.9291 248.806V241.948H-40.619L-33.1171 229.132H-38.1183L-30.9291 218.192H-34.3674L-27.4907 206.626L-19.3637 221.005L-22.802 220.067L-16.5505 232.258L-20.9266 231.32L-13.4247 245.699L-24.0524 241.948V249.657C-19.1498 250.274 -14.2692 250.911 -9.41511 251.564V248.985H-13.4247L-10.3205 243.823H-12.39L-9.41511 239.417H-10.8379L-7.99234 234.758L-4.62944 240.55L-6.0522 240.172L-3.46535 245.082L-5.27615 244.704L-2.17193 250.496L-6.56957 248.985V251.949C-1.6706 252.615 3.20042 253.298 8.03893 253.992V250.313H1.57899L6.58023 241.948H3.24607L8.03893 234.806H5.7467L10.3312 227.257L15.7492 236.643L13.4569 236.03L17.6246 243.988L14.7072 243.376L19.7085 252.762L12.6234 250.313V254.655C18.5825 255.524 24.4896 256.409 30.3361 257.304V249.45H20.6462L28.1481 236.634H23.1468L30.3361 225.694H26.8978L33.7745 214.128L41.9015 228.507L38.4631 227.569L44.7147 239.76L40.3386 238.822L47.8405 253.2L37.2128 249.45V258.365C42.1399 259.132 47.0208 259.904 51.8501 260.677V258.362H47.8405L50.9447 253.2H48.8752L51.8501 248.794H50.4273L53.2728 244.136L56.6357 249.927L55.213 249.549L57.7998 254.459L55.989 254.082L59.0932 259.873L54.6956 258.362V261.134C60.0495 261.994 65.3382 262.856 70.5544 263.712V261.566H64.0945L69.0957 253.2H65.7616L70.5544 246.059H68.2622L72.8466 238.509L78.2647 247.895L75.9724 247.283L80.1401 255.241L77.2227 254.629L82.224 264.015L75.1389 261.566V264.465C81.08 265.444 86.9226 266.413 92.6556 267.365L92.6606 267.365L92.6609 267.365L92.661 267.365L92.6611 267.365L92.6614 267.366L92.8516 267.397V260.702H83.1617L90.6636 247.887H85.6623L92.8516 236.946H89.4133L96.29 225.381L104.417 239.76L100.979 238.822L107.23 251.012L102.854 250.075L110.356 264.453L99.7283 260.702V268.537C104.699 269.361 109.58 270.168 114.366 270.951V269.615H110.356L113.46 264.453H111.391L114.366 260.047H112.943L115.788 255.388L119.151 261.18L117.728 260.802L120.315 265.712L118.505 265.335L121.609 271.126L117.211 269.615V271.416C121.973 272.193 126.637 272.946 131.194 273.668V270.944H124.735L129.736 262.578H126.402L131.194 255.436H128.902L133.487 247.887L138.905 257.273L136.612 256.66L140.78 264.618L137.863 264.006L142.864 273.392L135.779 270.944V274.389C141.891 275.345 147.802 276.24 153.492 277.06V270.08H143.802L151.304 257.264H146.302L153.492 246.324H150.053L156.93 234.758L165.057 249.137L161.619 248.199L167.87 260.39L163.494 259.452L170.996 273.831L160.368 270.08V278.027C165.448 278.724 170.332 279.351 175.006 279.897V278.992H170.996L174.1 273.831H172.031L175.006 269.424H173.583L176.428 264.766L179.791 270.557L178.368 270.179L180.955 275.09L179.145 274.712L182.249 280.503L177.851 278.992V280.222C182.763 280.769 187.431 281.221 191.834 281.561V277.82H185.375L190.376 269.454H187.042L191.834 262.313H189.542L194.127 254.763L199.545 264.149L197.252 263.537L201.42 271.495L198.503 270.883L203.504 280.269L196.419 277.82V281.88C201.847 282.214 206.827 282.354 211.318 282.27C212.249 282.253 213.186 282.222 214.132 282.178V273.831H204.442L211.944 261.015H206.942L214.132 250.075H210.693L217.57 238.509L225.697 252.888L222.259 251.95L228.51 264.141L224.134 263.203L231.636 277.581L221.008 273.831V281.658C225.705 281.174 230.581 280.426 235.646 279.472V277.742H231.636L234.74 272.58H232.671L235.646 268.174H234.223L237.068 263.515L240.431 269.307L239.009 268.929L241.595 273.839L239.785 273.462L242.287 278.13C246.079 277.317 249.972 276.408 253.969 275.426V272.819L246.64 275.268L251.813 265.882L248.795 266.494L253.107 258.536L250.736 259.148L256.34 249.762L261.083 257.312H258.712L263.67 264.453H260.221L265.231 272.556C269.267 271.498 273.401 270.39 277.639 269.253V264.184L266.645 268.039L274.405 253.261L269.878 254.225L276.345 241.696L272.788 242.66L281.196 227.882L288.31 239.768H284.753L292.19 251.012H287.016L294.777 264.184H284.753V267.345C288.197 266.423 291.708 265.489 295.284 264.552L297.881 259.708L296.07 260.086L298.657 255.176L297.234 255.553L300.597 249.762L303.443 254.42H302.02L304.995 258.827H302.925L304.882 262.081C311.058 260.522 317.424 258.98 323.986 257.501V253.439L316.657 255.888L321.831 246.502L318.813 247.114L323.124 239.156L320.753 239.768L326.358 230.382L331.1 237.932H328.729L333.687 245.073H330.238L335.412 253.439H328.729V256.451C334.867 255.116 341.174 253.845 347.656 252.671V243.554L336.662 247.409L344.423 232.631L339.896 233.595L346.363 221.066L342.806 222.03L351.213 207.252L358.327 219.138H354.77L362.207 230.382H357.033L364.794 243.554H354.77V251.435C359.487 250.651 364.293 249.923 369.192 249.264V245.859L364.794 247.37L367.898 241.579L366.087 241.956L368.674 237.046L367.251 237.424L370.614 231.633L373.46 236.291H372.037L375.012 240.697H372.943L376.047 245.859H372.037V248.891C376.572 248.311 381.185 247.791 385.877 247.342V242.812L378.547 245.26L383.721 235.874L380.703 236.486L385.014 228.529L382.643 229.141L388.248 219.755L392.991 227.304H390.619L395.577 234.446H392.128L397.302 242.812H390.619V246.915C396.792 246.394 403.1 245.998 409.546 245.75V237.302L398.552 238.822L406.313 226.38H401.053L408.253 214.814L404.696 215.778L413.103 201ZM264.224 272.819H258.712V274.24C260.528 273.779 262.366 273.304 264.224 272.819ZM240.637 278.479L238.491 277.742V278.918C239.203 278.775 239.918 278.629 240.637 278.479Z" fill="#F5F5F5"/>
    <path fill-rule="evenodd" clip-rule="evenodd" d="M413.103 201L420.217 212.887H416.66L424.097 224.131H418.924L426.684 237.302H416.66V245.537C421.394 245.437 426.201 245.419 431.082 245.489V243.359L426.684 244.869L429.789 239.078L427.978 239.456L430.565 234.546L429.142 234.923L432.505 229.132L435.35 233.79H433.927L436.902 238.197H434.833L437.937 243.359H433.927V245.54C435.774 245.58 437.632 245.633 439.5 245.699V326.344H-65V245.073C-61.0686 245.454 -57.1433 245.852 -53.2262 246.267V240.936H-59.6862L-54.6849 232.57H-58.0191L-53.2262 225.429H-55.5185L-50.934 217.879L-45.516 227.265L-47.8082 226.653L-43.6405 234.611L-46.5579 233.999L-41.5567 243.385L-48.6418 240.936V246.76C-42.714 247.408 -36.8073 248.092 -30.9291 248.806V241.948H-40.619L-33.1171 229.132H-38.1183L-30.9291 218.192H-34.3674L-27.4907 206.626L-19.3637 221.005L-22.802 220.067L-16.5505 232.258L-20.9266 231.32L-13.4247 245.699L-24.0524 241.948V249.657C-19.1498 250.274 -14.2692 250.911 -9.41511 251.564V248.985H-13.4247L-10.3205 243.823H-12.39L-9.41511 239.417H-10.8379L-7.99234 234.758L-4.62944 240.55L-6.0522 240.172L-3.46535 245.082L-5.27615 244.704L-2.17193 250.496L-6.56957 248.985V251.949C-1.6706 252.615 3.20042 253.298 8.03893 253.992V250.313H1.57899L6.58023 241.948H3.24607L8.03893 234.806H5.7467L10.3312 227.257L15.7492 236.643L13.4569 236.03L17.6246 243.988L14.7072 243.376L19.7085 252.762L12.6234 250.313V254.655C18.5825 255.524 24.4896 256.409 30.3361 257.304V249.45H20.6462L28.1481 236.634H23.1468L30.3361 225.694H26.8978L33.7745 214.128L41.9015 228.507L38.4631 227.569L44.7147 239.76L40.3386 238.822L47.8405 253.2L37.2128 249.45V258.365C42.1399 259.132 47.0208 259.904 51.8501 260.677V258.362H47.8405L50.9447 253.2H48.8752L51.8501 248.794H50.4273L53.2728 244.136L56.6357 249.927L55.213 249.549L57.7998 254.459L55.989 254.082L59.0932 259.873L54.6956 258.362V261.134C60.0495 261.994 65.3382 262.856 70.5544 263.712V261.566H64.0945L69.0957 253.2H65.7616L70.5544 246.059H68.2622L72.8466 238.509L78.2647 247.895L75.9724 247.283L80.1401 255.241L77.2227 254.629L82.224 264.015L75.1389 261.566V264.465C81.08 265.444 86.9226 266.413 92.6556 267.365L92.6606 267.365L92.6609 267.365L92.661 267.365L92.6611 267.365L92.6614 267.366L92.8516 267.397V260.702H83.1617L90.6636 247.887H85.6623L92.8516 236.946H89.4133L96.29 225.381L104.417 239.76L100.979 238.822L107.23 251.012L102.854 250.075L110.356 264.453L99.7283 260.702V268.537C104.699 269.361 109.58 270.168 114.366 270.951V269.615H110.356L113.46 264.453H111.391L114.366 260.047H112.943L115.788 255.388L119.151 261.18L117.728 260.802L120.315 265.712L118.505 265.335L121.609 271.126L117.211 269.615V271.416C121.973 272.193 126.637 272.946 131.194 273.668V270.944H124.735L129.736 262.578H126.402L131.194 255.436H128.902L133.487 247.887L138.905 257.273L136.612 256.66L140.78 264.618L137.863 264.006L142.864 273.392L135.779 270.944V274.389C141.891 275.345 147.802 276.24 153.492 277.06V270.08H143.802L151.304 257.264H146.302L153.492 246.324H150.053L156.93 234.758L165.057 249.137L161.619 248.199L167.87 260.39L163.494 259.452L170.996 273.831L160.368 270.08V278.027C165.448 278.724 170.332 279.351 175.006 279.897V278.992H170.996L174.1 273.831H172.031L175.006 269.424H173.583L176.428 264.766L179.791 270.557L178.368 270.179L180.955 275.09L179.145 274.712L182.249 280.503L177.851 278.992V280.222C182.763 280.769 187.431 281.221 191.834 281.561V277.82H185.375L190.376 269.454H187.042L191.834 262.313H189.542L194.127 254.763L199.545 264.149L197.252 263.537L201.42 271.495L198.503 270.883L203.504 280.269L196.419 277.82V281.88C201.847 282.214 206.827 282.354 211.318 282.27C212.249 282.253 213.186 282.222 214.132 282.178V273.831H204.442L211.944 261.015H206.942L214.132 250.075H210.693L217.57 238.509L225.697 252.888L222.259 251.95L228.51 264.141L224.134 263.203L231.636 277.581L221.008 273.831V281.658C225.705 281.174 230.581 280.426 235.646 279.472V277.742H231.636L234.74 272.58H232.671L235.646 268.174H234.223L237.068 263.515L240.431 269.307L239.009 268.929L241.595 273.839L239.785 273.462L242.287 278.13C246.079 277.317 249.972 276.408 253.969 275.426V272.819L246.64 275.268L251.813 265.882L248.795 266.494L253.107 258.536L250.736 259.148L256.34 249.762L261.083 257.312H258.712L263.67 264.453H260.221L265.231 272.556C269.267 271.498 273.401 270.39 277.639 269.253V264.184L266.645 268.039L274.405 253.261L269.878 254.225L276.345 241.696L272.788 242.66L281.196 227.882L288.31 239.768H284.753L292.19 251.012H287.016L294.777 264.184H284.753V267.345C288.197 266.423 291.708 265.489 295.284 264.552L297.881 259.708L296.07 260.086L298.657 255.176L297.234 255.553L300.597 249.762L303.443 254.42H302.02L304.995 258.827H302.925L304.882 262.081C311.058 260.522 317.424 258.98 323.986 257.501V253.439L316.657 255.888L321.831 246.502L318.813 247.114L323.124 239.156L320.753 239.768L326.358 230.382L331.1 237.932H328.729L333.687 245.073H330.238L335.412 253.439H328.729V256.451C334.867 255.116 341.174 253.845 347.656 252.671V243.554L336.662 247.409L344.423 232.631L339.896 233.595L346.363 221.066L342.806 222.03L351.213 207.252L358.327 219.138H354.77L362.207 230.382H357.033L364.794 243.554H354.77V251.435C359.487 250.651 364.293 249.923 369.192 249.264V245.859L364.794 247.37L367.898 241.579L366.087 241.956L368.674 237.046L367.251 237.424L370.614 231.633L373.46 236.291H372.037L375.012 240.697H372.943L376.047 245.859H372.037V248.891C376.572 248.311 381.185 247.791 385.877 247.342V242.812L378.547 245.26L383.721 235.874L380.703 236.486L385.014 228.529L382.643 229.141L388.248 219.755L392.991 227.304H390.619L395.577 234.446H392.128L397.302 242.812H390.619V246.915C396.792 246.394 403.1 245.998 409.546 245.75V237.302L398.552 238.822L406.313 226.38H401.053L408.253 214.814L404.696 215.778L413.103 201ZM264.224 272.819H258.712V274.24C260.528 273.779 262.366 273.304 264.224 272.819ZM240.637 278.479L238.491 277.742V278.918C239.203 278.775 239.918 278.629 240.637 278.479Z" fill="url(#paint1_linear)"/>
    <path fill-rule="evenodd" clip-rule="evenodd" d="M 916.314 201.702 L 923.428 213.589 L 919.871 213.589 L 927.308 224.833 L 922.135 224.833 L 929.895 238.004 L 919.871 238.004 L 919.871 246.239 C 924.605 246.139 929.412 246.121 934.293 246.191 L 934.293 244.061 L 929.895 245.571 L 933 239.78 L 931.189 240.158 L 933.776 235.248 L 932.353 235.625 L 935.716 229.834 L 938.561 234.492 L 937.138 234.492 L 940.113 238.899 L 938.044 238.899 L 941.148 244.061 L 937.138 244.061 L 937.138 246.242 C 938.985 246.282 940.843 246.335 942.711 246.401 L 942.711 326.733 L 438.211 326.733 L 438.211 245.775 C 442.142 246.156 446.068 246.554 449.985 246.969 L 449.985 241.638 L 443.525 241.638 L 448.526 233.272 L 445.192 233.272 L 449.985 226.131 L 447.693 226.131 L 452.277 218.581 L 457.695 227.967 L 455.403 227.355 L 459.57 235.313 L 456.653 234.701 L 461.654 244.087 L 454.569 241.638 L 454.569 247.462 C 460.497 248.11 466.404 248.794 472.282 249.508 L 472.282 242.024 L 462.592 242.024 L 470.094 229.209 L 465.093 229.209 L 472.282 218.269 L 468.844 218.269 L 475.72 206.703 L 483.847 221.082 L 480.409 220.144 L 486.661 232.335 L 482.284 231.397 L 489.786 245.775 L 479.159 242.024 L 479.159 250.359 C 484.061 250.976 488.942 251.613 493.796 252.266 L 493.796 249.687 L 489.786 249.687 L 492.89 244.525 L 490.821 244.525 L 493.796 240.119 L 492.373 240.119 L 495.219 235.46 L 498.582 241.252 L 497.159 240.874 L 499.746 245.784 L 497.935 245.406 L 501.039 251.198 L 496.641 249.687 L 496.641 252.651 C 501.54 253.317 506.411 254 511.25 254.694 L 511.25 251.015 L 504.79 251.015 L 509.791 242.65 L 506.457 242.65 L 511.25 235.508 L 508.958 235.508 L 513.542 227.959 L 518.96 237.345 L 516.668 236.732 L 520.836 244.69 L 517.918 244.078 L 522.919 253.464 L 515.834 251.015 L 515.834 255.357 C 521.793 256.226 527.701 257.111 533.547 258.006 L 533.547 250.152 L 523.857 250.152 L 531.359 237.336 L 526.358 237.336 L 533.547 226.396 L 530.109 226.396 L 536.985 214.83 L 545.112 229.209 L 541.674 228.271 L 547.926 240.462 L 543.55 239.524 L 551.051 253.902 L 540.424 250.152 L 540.424 259.067 C 545.351 259.834 550.232 260.606 555.061 261.379 L 555.061 259.064 L 551.051 259.064 L 554.156 253.902 L 552.086 253.902 L 555.061 249.496 L 553.638 249.496 L 556.484 244.838 L 559.847 250.629 L 558.424 250.251 L 561.011 255.161 L 559.2 254.784 L 562.304 260.575 L 557.907 259.064 L 557.907 261.836 C 563.26 262.696 568.549 263.558 573.765 264.414 L 573.765 262.268 L 567.305 262.268 L 572.307 253.902 L 568.973 253.902 L 573.765 246.761 L 571.473 246.761 L 576.058 239.211 L 581.476 248.597 L 579.183 247.985 L 583.351 255.943 L 580.434 255.331 L 585.435 264.717 L 578.35 262.268 L 578.35 265.167 C 584.267 266.142 590.086 267.108 595.796 268.055 L 595.865 268.066 L 595.87 268.067 L 595.872 268.067 L 595.872 268.068 L 595.872 268.068 L 596.063 268.099 L 596.063 261.404 L 586.373 261.404 L 593.875 248.589 L 588.873 248.589 L 596.063 237.648 L 592.624 237.648 L 599.501 226.083 L 607.628 240.462 L 604.19 239.524 L 610.441 251.714 L 606.065 250.777 L 613.567 265.155 L 602.939 261.404 L 602.939 269.239 C 607.91 270.063 612.791 270.87 617.577 271.653 L 617.577 270.317 L 613.567 270.317 L 616.671 265.155 L 614.602 265.155 L 617.577 260.749 L 616.154 260.749 L 618.999 256.09 L 622.362 261.882 L 620.939 261.504 L 623.526 266.414 L 621.716 266.037 L 624.82 271.828 L 620.422 270.317 L 620.422 272.118 C 625.184 272.895 629.848 273.648 634.405 274.37 L 634.405 271.646 L 627.946 271.646 L 632.947 263.28 L 629.613 263.28 L 634.405 256.138 L 632.113 256.138 L 636.698 248.589 L 642.116 257.975 L 639.823 257.362 L 643.991 265.32 L 641.074 264.708 L 646.075 274.094 L 638.99 271.646 L 638.99 275.091 C 645.102 276.047 651.013 276.942 656.703 277.762 L 656.703 270.782 L 647.013 270.782 L 654.515 257.966 L 649.513 257.966 L 656.703 247.026 L 653.264 247.026 L 660.141 235.46 L 668.268 249.839 L 664.83 248.901 L 671.081 261.092 L 666.705 260.154 L 674.207 274.533 L 663.579 270.782 L 663.579 278.729 C 668.659 279.426 673.543 280.053 678.217 280.599 L 678.217 279.694 L 674.207 279.694 L 677.311 274.533 L 675.242 274.533 L 678.217 270.126 L 676.794 270.126 L 679.639 265.468 L 683.002 271.259 L 681.579 270.881 L 684.166 275.792 L 682.356 275.414 L 685.46 281.205 L 681.062 279.694 L 681.062 280.924 C 685.974 281.471 690.642 281.923 695.045 282.263 L 695.045 278.522 L 688.586 278.522 L 693.587 270.156 L 690.253 270.156 L 695.045 263.015 L 692.753 263.015 L 697.338 255.465 L 702.756 264.851 L 700.463 264.239 L 704.631 272.197 L 701.714 271.585 L 706.715 280.971 L 699.63 278.522 L 699.63 282.582 C 705.058 282.916 710.038 283.056 714.529 282.972 C 715.46 282.955 716.397 282.924 717.343 282.88 L 717.343 274.533 L 707.653 274.533 L 715.155 261.717 L 710.153 261.717 L 717.343 250.777 L 713.904 250.777 L 720.781 239.211 L 728.908 253.59 L 725.47 252.652 L 731.721 264.843 L 727.345 263.905 L 734.847 278.283 L 724.219 274.533 L 724.219 282.36 C 728.916 281.876 733.792 281.128 738.857 280.174 L 738.857 278.444 L 734.847 278.444 L 737.951 273.282 L 735.882 273.282 L 738.857 268.876 L 737.434 268.876 L 740.279 264.217 L 743.642 270.009 L 742.22 269.631 L 744.806 274.541 L 742.996 274.164 L 745.498 278.832 C 749.29 278.019 753.183 277.11 757.18 276.128 L 757.18 273.521 L 749.851 275.97 L 755.024 266.584 L 752.006 267.196 L 756.318 259.238 L 753.947 259.85 L 759.551 250.464 L 764.294 258.014 L 761.923 258.014 L 766.881 265.155 L 763.432 265.155 L 768.442 273.258 C 772.478 272.2 776.612 271.092 780.85 269.955 L 780.85 264.886 L 769.856 268.741 L 777.616 253.963 L 773.089 254.927 L 779.556 242.398 L 775.999 243.362 L 784.407 228.584 L 791.521 240.47 L 787.964 240.47 L 795.401 251.714 L 790.227 251.714 L 797.988 264.886 L 787.964 264.886 L 787.964 268.047 C 791.408 267.125 794.919 266.191 798.495 265.254 L 801.092 260.41 L 799.281 260.788 L 801.868 255.878 L 800.445 256.255 L 803.808 250.464 L 806.654 255.122 L 805.231 255.122 L 808.206 259.529 L 806.136 259.529 L 808.093 262.783 C 814.269 261.224 820.635 259.682 827.197 258.203 L 827.197 254.141 L 819.868 256.59 L 825.042 247.204 L 822.024 247.816 L 826.335 239.858 L 823.964 240.47 L 829.569 231.084 L 834.311 238.634 L 831.94 238.634 L 836.898 245.775 L 833.449 245.775 L 838.623 254.141 L 831.94 254.141 L 831.94 257.153 C 838.078 255.818 844.385 254.547 850.867 253.373 L 850.867 244.256 L 839.873 248.111 L 847.634 233.333 L 843.107 234.297 L 849.574 221.768 L 846.017 222.732 L 854.424 207.954 L 861.538 219.84 L 857.981 219.84 L 865.418 231.084 L 860.244 231.084 L 868.005 244.256 L 857.981 244.256 L 857.981 252.137 C 862.698 251.353 867.504 250.625 872.403 249.966 L 872.403 246.561 L 868.005 248.072 L 871.109 242.281 L 869.298 242.658 L 871.885 237.748 L 870.462 238.126 L 873.825 232.335 L 876.671 236.993 L 875.248 236.993 L 878.223 241.399 L 876.154 241.399 L 879.258 246.561 L 875.248 246.561 L 875.248 249.593 C 887.201 248.064 899.695 246.956 912.757 246.452 L 912.757 238.004 L 901.763 239.524 L 909.524 227.082 L 904.264 227.082 L 911.464 215.516 L 907.907 216.48 L 916.314 201.702 Z M 767.435 273.521 L 761.923 273.521 L 761.923 274.942 C 763.739 274.481 765.577 274.006 767.435 273.521 Z M 743.848 279.181 L 741.702 278.444 L 741.702 279.62 C 742.414 279.477 743.129 279.331 743.848 279.181 Z M 891.459 218.581 L 896.202 226.131 L 893.83 226.131 L 898.788 233.272 L 895.339 233.272 L 900.513 241.638 L 893.83 241.638 L 893.83 247.147 L 889.088 247.963 L 889.088 241.638 L 881.758 244.087 L 886.932 234.701 L 883.914 235.313 L 888.225 227.355 L 885.854 227.967 L 891.459 218.581 Z" fill="#F5F5F5" style=""/>
    <path fill-rule="evenodd" clip-rule="evenodd" d="M 916.368 201.591 L 923.482 213.478 L 919.925 213.478 L 927.362 224.722 L 922.189 224.722 L 929.949 237.893 L 919.925 237.893 L 919.925 246.128 C 924.659 246.028 929.466 246.01 934.347 246.08 L 934.347 243.95 L 929.949 245.46 L 933.054 239.669 L 931.243 240.047 L 933.83 235.137 L 932.407 235.514 L 935.77 229.723 L 938.615 234.381 L 937.192 234.381 L 940.167 238.788 L 938.098 238.788 L 941.202 243.95 L 937.192 243.95 L 937.192 246.131 C 939.039 246.171 940.897 246.224 942.765 246.29 L 942.765 326.622 L 438.265 326.622 L 438.265 245.664 C 442.196 246.045 446.122 246.443 450.039 246.858 L 450.039 241.527 L 443.579 241.527 L 448.58 233.161 L 445.246 233.161 L 450.039 226.02 L 447.747 226.02 L 452.331 218.47 L 457.749 227.856 L 455.457 227.244 L 459.624 235.202 L 456.707 234.59 L 461.708 243.976 L 454.623 241.527 L 454.623 247.351 C 460.551 247.999 466.458 248.683 472.336 249.397 L 472.336 241.913 L 462.646 241.913 L 470.148 229.098 L 465.147 229.098 L 472.336 218.158 L 468.898 218.158 L 475.774 206.592 L 483.901 220.971 L 480.463 220.033 L 486.715 232.224 L 482.338 231.286 L 489.84 245.664 L 479.213 241.913 L 479.213 250.248 C 484.115 250.865 488.996 251.502 493.85 252.155 L 493.85 249.576 L 489.84 249.576 L 492.944 244.414 L 490.875 244.414 L 493.85 240.008 L 492.427 240.008 L 495.273 235.349 L 498.636 241.141 L 497.213 240.763 L 499.8 245.673 L 497.989 245.295 L 501.093 251.087 L 496.695 249.576 L 496.695 252.54 C 501.594 253.206 506.465 253.889 511.304 254.583 L 511.304 250.904 L 504.844 250.904 L 509.845 242.539 L 506.511 242.539 L 511.304 235.397 L 509.012 235.397 L 513.596 227.848 L 519.014 237.234 L 516.722 236.621 L 520.89 244.579 L 517.972 243.967 L 522.973 253.353 L 515.888 250.904 L 515.888 255.246 C 521.847 256.115 527.755 257 533.601 257.895 L 533.601 250.041 L 523.911 250.041 L 531.413 237.225 L 526.412 237.225 L 533.601 226.285 L 530.163 226.285 L 537.039 214.719 L 545.166 229.098 L 541.728 228.16 L 547.98 240.351 L 543.604 239.413 L 551.105 253.791 L 540.478 250.041 L 540.478 258.956 C 545.405 259.723 550.286 260.495 555.115 261.268 L 555.115 258.953 L 551.105 258.953 L 554.21 253.791 L 552.14 253.791 L 555.115 249.385 L 553.692 249.385 L 556.538 244.727 L 559.901 250.518 L 558.478 250.14 L 561.065 255.05 L 559.254 254.673 L 562.358 260.464 L 557.961 258.953 L 557.961 261.725 C 563.314 262.585 568.603 263.447 573.819 264.303 L 573.819 262.157 L 567.359 262.157 L 572.361 253.791 L 569.027 253.791 L 573.819 246.65 L 571.527 246.65 L 576.112 239.1 L 581.53 248.486 L 579.237 247.874 L 583.405 255.832 L 580.488 255.22 L 585.489 264.606 L 578.404 262.157 L 578.404 265.056 C 584.321 266.031 590.14 266.997 595.85 267.944 L 595.919 267.955 L 595.924 267.956 L 595.926 267.956 L 595.926 267.957 L 595.926 267.957 L 596.117 267.988 L 596.117 261.293 L 586.427 261.293 L 593.929 248.478 L 588.927 248.478 L 596.117 237.537 L 592.678 237.537 L 599.555 225.972 L 607.682 240.351 L 604.244 239.413 L 610.495 251.603 L 606.119 250.666 L 613.621 265.044 L 602.993 261.293 L 602.993 269.128 C 607.964 269.952 612.845 270.759 617.631 271.542 L 617.631 270.206 L 613.621 270.206 L 616.725 265.044 L 614.656 265.044 L 617.631 260.638 L 616.208 260.638 L 619.053 255.979 L 622.416 261.771 L 620.993 261.393 L 623.58 266.303 L 621.77 265.926 L 624.874 271.717 L 620.476 270.206 L 620.476 272.007 C 625.238 272.784 629.902 273.537 634.459 274.259 L 634.459 271.535 L 628 271.535 L 633.001 263.169 L 629.667 263.169 L 634.459 256.027 L 632.167 256.027 L 636.752 248.478 L 642.17 257.864 L 639.877 257.251 L 644.045 265.209 L 641.128 264.597 L 646.129 273.983 L 639.044 271.535 L 639.044 274.98 C 645.156 275.936 651.067 276.831 656.757 277.651 L 656.757 270.671 L 647.067 270.671 L 654.569 257.855 L 649.567 257.855 L 656.757 246.915 L 653.318 246.915 L 660.195 235.349 L 668.322 249.728 L 664.884 248.79 L 671.135 260.981 L 666.759 260.043 L 674.261 274.422 L 663.633 270.671 L 663.633 278.618 C 668.713 279.315 673.597 279.942 678.271 280.488 L 678.271 279.583 L 674.261 279.583 L 677.365 274.422 L 675.296 274.422 L 678.271 270.015 L 676.848 270.015 L 679.693 265.357 L 683.056 271.148 L 681.633 270.77 L 684.22 275.681 L 682.41 275.303 L 685.514 281.094 L 681.116 279.583 L 681.116 280.813 C 686.028 281.36 690.696 281.812 695.099 282.152 L 695.099 278.411 L 688.64 278.411 L 693.641 270.045 L 690.307 270.045 L 695.099 262.904 L 692.807 262.904 L 697.392 255.354 L 702.81 264.74 L 700.517 264.128 L 704.685 272.086 L 701.768 271.474 L 706.769 280.86 L 699.684 278.411 L 699.684 282.471 C 705.112 282.805 710.092 282.945 714.583 282.861 C 715.514 282.844 716.451 282.813 717.397 282.769 L 717.397 274.422 L 707.707 274.422 L 715.209 261.606 L 710.207 261.606 L 717.397 250.666 L 713.958 250.666 L 720.835 239.1 L 728.962 253.479 L 725.524 252.541 L 731.775 264.732 L 727.399 263.794 L 734.901 278.172 L 724.273 274.422 L 724.273 282.249 C 728.97 281.765 733.846 281.017 738.911 280.063 L 738.911 278.333 L 734.901 278.333 L 738.005 273.171 L 735.936 273.171 L 738.911 268.765 L 737.488 268.765 L 740.333 264.106 L 743.696 269.898 L 742.274 269.52 L 744.86 274.43 L 743.05 274.053 L 745.552 278.721 C 749.344 277.908 753.237 276.999 757.234 276.017 L 757.234 273.41 L 749.905 275.859 L 755.078 266.473 L 752.06 267.085 L 756.372 259.127 L 754.001 259.739 L 759.605 250.353 L 764.348 257.903 L 761.977 257.903 L 766.935 265.044 L 763.486 265.044 L 768.496 273.147 C 772.532 272.089 776.666 270.981 780.904 269.844 L 780.904 264.775 L 769.91 268.63 L 777.67 253.852 L 773.143 254.816 L 779.61 242.287 L 776.053 243.251 L 784.461 228.473 L 791.575 240.359 L 788.018 240.359 L 795.455 251.603 L 790.281 251.603 L 798.042 264.775 L 788.018 264.775 L 788.018 267.936 C 791.462 267.014 794.973 266.08 798.549 265.143 L 801.146 260.299 L 799.335 260.677 L 801.922 255.767 L 800.499 256.144 L 803.862 250.353 L 806.708 255.011 L 805.285 255.011 L 808.26 259.418 L 806.19 259.418 L 808.147 262.672 C 814.323 261.113 820.689 259.571 827.251 258.092 L 827.251 254.03 L 819.922 256.479 L 825.096 247.093 L 822.078 247.705 L 826.389 239.747 L 824.018 240.359 L 829.623 230.973 L 834.365 238.523 L 831.994 238.523 L 836.952 245.664 L 833.503 245.664 L 838.677 254.03 L 831.994 254.03 L 831.994 257.042 C 838.132 255.707 844.439 254.436 850.921 253.262 L 850.921 244.145 L 839.927 248 L 847.688 233.222 L 843.161 234.186 L 849.628 221.657 L 846.071 222.621 L 854.478 207.843 L 861.592 219.729 L 858.035 219.729 L 865.472 230.973 L 860.298 230.973 L 868.059 244.145 L 858.035 244.145 L 858.035 252.026 C 862.752 251.242 867.558 250.514 872.457 249.855 L 872.457 246.45 L 868.059 247.961 L 871.163 242.17 L 869.352 242.547 L 871.939 237.637 L 870.516 238.015 L 873.879 232.224 L 876.725 236.882 L 875.302 236.882 L 878.277 241.288 L 876.208 241.288 L 879.312 246.45 L 875.302 246.45 L 875.302 249.482 C 887.255 247.953 899.749 246.845 912.811 246.341 L 912.811 237.893 L 901.817 239.413 L 909.578 226.971 L 904.318 226.971 L 911.518 215.405 L 907.961 216.369 L 916.368 201.591 Z M 767.489 273.41 L 761.977 273.41 L 761.977 274.831 C 763.793 274.37 765.631 273.895 767.489 273.41 Z M 743.902 279.07 L 741.756 278.333 L 741.756 279.509 C 742.468 279.366 743.183 279.22 743.902 279.07 Z M 891.513 218.47 L 896.256 226.02 L 893.884 226.02 L 898.842 233.161 L 895.393 233.161 L 900.567 241.527 L 893.884 241.527 L 893.884 247.036 L 889.142 247.852 L 889.142 241.527 L 881.812 243.976 L 886.986 234.59 L 883.968 235.202 L 888.279 227.244 L 885.908 227.856 L 891.513 218.47 Z" fill="url(#paint2_linear)" style=""/>
  </g>
  <defs>
    <linearGradient id="paint0_linear" x1="408" y1="0" x2="408" y2="439.325" gradientUnits="userSpaceOnUse">
      <stop offset="0.2969" stop-color="#0A1A75"/>
      <stop offset="0.9735" stop-color="#1531D0" stop-opacity="0"/>
    </linearGradient>
    <linearGradient id="paint1_linear" x1="187.25" y1="201" x2="186.747" y2="387.428" gradientUnits="userSpaceOnUse">
      <stop offset="0.3799" stop-color="white"/>
      <stop offset="0.6595" stop-color="white" stop-opacity="0"/>
    </linearGradient>
    <linearGradient id="paint2_linear" x1="691.75" y1="201" x2="692.063" y2="439.184" gradientUnits="userSpaceOnUse" gradientTransform="matrix(1, 0, 0, 1, -1.23502, 0.590634)">
      <stop offset="0.318" stop-color="white"/>
      <stop offset="0.5166" stop-color="white" stop-opacity="0"/>
    </linearGradient>
    <clipPath id="clip0">
      <rect width="816" height="319" fill="white"/>
    </clipPath>
  </defs>
</svg>