<svg width="134" height="165" viewBox="0 0 134 165" fill="none" xmlns="http://www.w3.org/2000/svg">
<path fill-rule="evenodd" clip-rule="evenodd" d="M102.276 44.8233C102.302 49.0397 101.498 53.22 99.9097 57.1257L99.8317 57.094L58.1541 155.33L46.3091 150.304L88.0471 51.9264L88.0776 51.9393C88.943 49.6969 89.38 47.3109 89.3647 44.9053C89.3487 42.3844 88.8363 39.8914 87.8568 37.5685C86.8773 35.2456 85.4499 33.1384 83.6561 31.3672C81.8622 29.596 79.737 28.1955 77.4019 27.2456C75.0668 26.2957 72.5674 25.815 70.0465 25.831C67.5256 25.847 65.0326 26.3594 62.7097 27.3389C60.3868 28.3184 58.2796 29.7458 56.5084 31.5397C52.2244 35.8411 46.2666 54.4853 47.2415 55.2073L36.0783 50.4712C35.9874 48.4536 42.7552 27.2687 47.321 22.4683C50.2835 19.4679 53.808 17.0805 57.6931 15.4422C61.5783 13.8039 65.7481 12.9469 69.9645 12.9201C74.1809 12.8933 78.3612 13.6973 82.2669 15.2861C86.1726 16.8748 89.7271 19.2174 92.7274 22.1798C95.7278 25.1423 98.1153 28.6668 99.7536 32.5519C101.392 36.4371 102.249 40.6069 102.276 44.8233ZM47.2889 55.2274C47.2716 55.2246 47.2558 55.2179 47.2415 55.2073L47.2889 55.2274Z" fill="white"/>
<path d="M50.6629 140.416C53.9943 142.943 55.6262 146.894 58.3315 155.333L63.5467 143.245C60.7392 134.859 59.1088 130.807 55.7594 128.729L50.6629 140.416Z" fill="#D50A0A"/>
<path d="M60.8524 116.162C64.6495 118.742 66.1729 122.637 68.5209 131.078L73.7361 118.99C71.4027 110.521 69.7285 107.229 65.9488 104.474L60.8524 116.162Z" fill="#D50A0A"/>
<path d="M71.1625 91.8895C75.1945 95.2192 76.7702 98.7333 78.831 106.806L84.0462 94.7182C82.5605 88.4386 80.6037 84.7121 76.2589 80.202L71.1625 91.8895Z" fill="#D50A0A"/>
<path d="M81.2442 67.53C84.9292 71.123 86.5322 74.6343 88.9128 82.4464L94.128 70.3586C92.7052 64.0854 90.6473 61.0388 86.3407 55.8424L81.2442 67.53Z" fill="#D50A0A"/>
<path d="M50.7261 42.7865C47.3364 39.5068 45.8512 36.1584 43.631 28.6239C41.3815 33.5757 40.37 36.2614 38.9286 40.9199C40.2643 47.0053 43.1433 50.373 47.1104 55.1896C48.0174 50.0019 48.7559 47.2505 50.7261 42.7865Z" fill="#D50A0A"/>
<path d="M99.7599 57.5315L99.7715 57.5625C101.626 53.3404 102.626 48.3333 102.196 42.4465C96.2357 36.2841 91.8853 34.1385 83.4904 31.1372C87.4117 35.4161 88.9352 38.9794 89.3236 43.5397C95.9869 47.4561 97.702 52.0362 99.7599 57.5315Z" fill="#D50A0A"/>
<path d="M97.5748 28.3889L97.6067 28.3979C95.2962 24.4071 91.8474 20.6419 86.8442 17.5103C78.3507 18.6778 74.0492 20.9198 66.6676 25.9193C72.4367 25.284 76.2117 26.1602 80.1202 28.5414C87.217 25.4797 91.9255 26.8022 97.5748 28.3889Z" fill="#D50A0A"/>
<path d="M71.2993 12.9848L71.324 12.9628C66.7174 12.752 61.6859 13.621 56.3483 16.1404C52.7436 23.9192 52.3073 28.7503 52.5282 37.6629C55.1093 32.4644 57.8856 29.7606 62.0006 27.7571C63.2567 20.1309 66.9127 16.8824 71.2993 12.9848Z" fill="#D50A0A"/>
<path d="M103.356 77.9518L90.7463 76.4207C90.3689 73.9435 89.8327 71.4858 89.1408 69.0659L89.2281 66.8929L89.2912 65.3257L94.7997 65.0209L100.716 64.6917C102.016 69.0306 102.896 73.4708 103.356 77.9518Z" fill="#18794A"/>
<path d="M89.2915 65.3251L88.2285 66.4785L86.7554 68.0781C84.5545 69.3009 82.439 70.6613 80.4211 72.1473L70.4175 64.3189C73.9084 61.4737 77.6697 58.9544 81.656 56.8032L85.6105 61.2167L89.2915 65.3251Z" fill="#18794A"/>
<path d="M113.744 57.6466L92.0001 58.7808L91.5938 69.6366L113.196 72.3082C116.021 72.6576 118.544 70.5048 118.65 67.6531L118.836 62.6753C118.943 59.8237 116.588 57.4983 113.744 57.6466Z" fill="#1B8853"/>
<path d="M77.4173 42.6116L92.0001 58.7808L84.6156 66.7485L67.4441 53.3725C65.1983 51.6231 64.935 48.3172 66.8749 46.2242L70.2607 42.5708C72.2006 40.4778 75.5098 40.4967 77.4173 42.6116Z" fill="#1B8853"/>
<path d="M94.8224 64.3666C94.4934 64.2304 94.2393 63.9308 94.1754 63.548C94.0746 62.951 94.4706 62.3772 95.0605 62.2661C95.2347 62.2336 99.3731 61.4643 103.757 61.4677C110.078 61.4724 113.633 63.084 114.323 66.257C114.452 66.8484 114.082 67.4405 113.497 67.5795C112.913 67.7184 112.335 67.3523 112.207 66.761C111.271 62.4598 99.4817 63.6665 95.4252 64.4285C95.214 64.468 95.0065 64.4428 94.8224 64.3666Z" fill="#18794A"/>
<path d="M86.0557 60.7382C85.8716 60.662 85.707 60.5333 85.5855 60.356C83.2541 56.9502 75.7655 47.7647 72.0642 50.1468C71.555 50.4743 70.8876 50.325 70.5722 49.8136C70.2574 49.3018 70.4139 48.622 70.923 48.2945C73.6534 46.537 77.3071 47.9091 81.7828 52.3729C84.8873 55.4684 87.2714 58.9378 87.3717 59.0839C87.7105 59.5793 87.5851 60.2652 87.0924 60.6166C86.7757 60.8418 86.3847 60.8744 86.0557 60.7382Z" fill="#18794A"/>
<path d="M96.1665 56.731L90.501 54.3862C88.9506 53.7445 87.168 54.4941 86.5196 56.0608L83.0784 64.3753C82.43 65.942 83.1614 67.7321 84.7118 68.3738L90.3773 70.7186C91.9277 71.3603 93.7103 70.6107 94.3587 69.044L97.7999 60.7295C98.4484 59.1628 97.7169 57.3727 96.1665 56.731Z" fill="#18794A"/>
</svg>
