<svg width="152" height="174" viewBox="0 0 152 174" fill="none" xmlns="http://www.w3.org/2000/svg">
<path fill-rule="evenodd" clip-rule="evenodd" d="M33.9825 53.0744C34.5319 57.4531 35.9385 61.6807 38.1217 65.5158L38.1983 65.4723L94.8933 161.699L106.496 154.863L49.7189 58.4969L49.6891 58.5145C48.4841 56.3062 47.7039 53.8902 47.3905 51.392C47.062 48.774 47.2523 46.117 47.9506 43.5726C48.649 41.0282 49.8417 38.6463 51.4605 36.5629C53.0794 34.4794 55.0928 32.7352 57.3858 31.4299C59.6787 30.1246 62.2063 29.2836 64.8242 28.9551C67.4422 28.6266 70.0992 28.817 72.6436 29.5153C75.188 30.2137 77.5699 31.4063 79.6533 33.0252C84.6874 36.902 93.4219 55.4321 92.5092 56.3147L103.444 49.8721C103.262 47.7662 93.3394 26.7106 87.9445 22.3546C84.4598 19.647 80.4759 17.6521 76.2202 16.4841C71.9645 15.3161 67.5205 14.9977 63.1418 15.5472C58.7631 16.0966 54.5355 17.5031 50.7004 19.6864C46.8652 21.8697 43.4977 24.787 40.79 28.2717C38.0823 31.7564 36.0875 35.7404 34.9195 39.996C33.7514 44.2517 33.433 48.6957 33.9825 53.0744ZM92.4628 56.3421C92.4804 56.3368 92.4958 56.3277 92.5092 56.3147L92.4628 56.3421Z" fill="white"/>
<path d="M100.624 145.198C97.5137 148.276 96.3613 152.599 94.7095 161.726L87.6431 149.897C89.4083 140.812 90.5452 136.384 93.7361 133.769L100.624 145.198Z" fill="#D50A0A"/>
<path d="M86.7311 121.426C83.1444 124.623 82.097 128.874 80.8162 137.954L73.7498 126.125C75.0116 117.018 76.2981 113.372 79.8428 109.996L86.7311 121.426Z" fill="#D50A0A"/>
<path d="M72.7101 97.6522C68.9822 101.659 67.8283 105.521 66.7952 114.18L59.7288 102.351C60.4108 95.6318 61.931 91.4972 65.8218 86.2225L72.7101 97.6522Z" fill="#D50A0A"/>
<path d="M58.9138 73.7562C55.582 77.9888 54.3995 81.8517 52.9988 90.2838L45.9325 78.4551C46.5499 71.7511 48.2682 68.308 52.0254 62.3265L58.9138 73.7562Z" fill="#D50A0A"/>
<path d="M87.1929 43.9034C90.2611 40.0363 91.3439 36.3586 92.616 28.2366C95.6281 33.0668 97.0454 35.715 99.1788 40.3515C98.6259 46.8487 96.0996 50.7374 92.6427 56.2783C90.9914 51.0196 89.8484 48.2657 87.1929 43.9034Z" fill="#D50A0A"/>
<path d="M38.3327 65.9163L38.3249 65.9501C35.8226 61.823 34.0996 56.7643 33.7396 50.5972C39.0807 43.3869 43.301 40.5649 51.601 36.3014C48.1179 41.2782 47.0248 45.1841 47.2462 49.9692C40.8683 54.9452 39.7157 59.9325 38.3327 65.9163Z" fill="#D50A0A"/>
<path d="M36.6102 35.378L36.5783 35.3917C38.4295 30.9344 41.4926 26.5554 46.2553 22.621C55.2282 22.6697 59.9986 24.4071 68.3424 28.5841C62.2692 28.7147 58.4722 30.1407 54.7425 33.1466C46.9596 30.9413 42.2549 32.9582 36.6102 35.378Z" fill="#D50A0A"/>
<path d="M61.7657 15.797L61.737 15.7776C66.4881 14.9282 71.8279 15.1411 77.7113 17.0245C82.5166 24.6025 83.6307 29.5556 84.6216 38.8338C81.2317 33.7931 77.9808 31.3676 73.4367 29.8522C71.0892 22.1109 66.8509 19.2407 61.7657 15.797Z" fill="#D50A0A"/>
<path d="M37.3968 87.5974L50.2714 84.2824C50.3238 81.6603 50.5437 79.0368 50.9303 76.4311L50.5422 74.1882L50.2622 72.5707L44.5047 73.0086L38.3211 73.4769C37.5659 78.1571 37.2601 82.8849 37.3968 87.5974Z" fill="#18794A"/>
<path d="M50.2618 72.5702L51.5227 73.6214L53.2703 75.0796C55.7214 76.0471 58.1027 77.169 60.4 78.4347L69.7082 68.9421C65.6965 66.4678 61.4487 64.3687 57.0179 62.6823L53.5189 67.8033L50.2618 72.5702Z" fill="#18794A"/>
<path d="M23.8379 67.9503L46.5554 66.1504L48.4632 77.3591L26.4141 83.0886C23.5304 83.8379 20.6183 81.9495 20.1172 79.005L19.2427 73.8654C18.7412 70.9212 20.8665 68.1858 23.8379 67.9503Z" fill="#1B8853"/>
<path d="M59.4732 47.3762L46.5554 66.1504L55.3085 73.4069L71.2949 57.1767C73.3857 55.054 73.2064 51.5877 70.9069 49.6815L66.8936 46.3542C64.5941 44.448 61.1629 44.9207 59.4732 47.3762Z" fill="#1B8853"/>
<path d="M44.3917 72.3327C44.7144 72.1464 44.937 71.8007 44.951 71.3948C44.9738 70.7615 44.4843 70.2203 43.8571 70.1858C43.6718 70.1759 39.2724 69.9443 34.7235 70.548C28.1656 71.4182 24.6973 73.5772 24.416 76.964C24.3633 77.5954 24.8283 78.1591 25.4539 78.2232C26.0795 78.2873 26.6288 77.8284 26.681 77.1973C27.0627 72.6062 39.4612 72.2441 43.7746 72.4795C43.9993 72.4916 44.2111 72.437 44.3917 72.3327Z" fill="#18794A"/>
<path d="M52.9915 67.3677C53.1721 67.2634 53.3252 67.1073 53.4271 66.9067C55.3799 63.0536 61.8927 52.4972 66.0595 54.4622C66.6326 54.7323 67.3048 54.486 67.562 53.9122C67.8185 53.3381 67.5631 52.6541 66.99 52.384C63.9162 50.9342 60.3129 52.8581 56.2799 58.1026C53.4824 61.7396 51.4835 65.6659 51.3995 65.8313C51.1157 66.3917 51.3397 67.0862 51.8991 67.3834C52.2585 67.5737 52.6687 67.5541 52.9915 67.3677Z" fill="#18794A"/>
<path d="M41.9517 64.5938L47.5093 61.3852C49.0302 60.5071 50.9825 61.0408 51.8698 62.5777L56.5788 70.7339C57.4661 72.2708 56.9522 74.2284 55.4313 75.1065L49.8737 78.3152C48.3528 79.1933 46.4005 78.6596 45.5132 77.1227L40.8042 68.9664C39.9169 67.4296 40.4308 65.4719 41.9517 64.5938Z" fill="#18794A"/>
</svg>
