<svg width="78" height="78" viewBox="0 0 78 78" fill="none" xmlns="http://www.w3.org/2000/svg">
<circle cx="39" cy="39" r="39" fill="#2A3985"/>
<path d="M18.9654 33.3183C18.994 32.7213 19.0864 32.1369 19.2344 31.5706C19.2463 31.5248 19.2587 31.4792 19.2714 31.4337C19.603 30.244 20.1802 29.1371 20.9277 28.1658C22.7441 25.8057 25.5657 24.2463 28.3112 24.2463C31.4814 24.2463 34.1575 26.1553 35.395 27.2109C35.8157 27.5698 36.4347 27.5633 36.8493 27.1972C38.0478 26.1389 40.6521 24.2463 43.9504 24.2463C48.4036 24.2463 53.0582 28.3496 53.2962 33.3183C53.3705 34.8728 53.1545 36.221 52.7536 37.4438C52.4308 38.4287 51.9885 39.3325 51.4793 40.1957C49.7868 43.0653 41.6832 49.2482 38.1448 52.2434C36.9738 53.2347 35.2583 53.2344 34.0877 52.2427C30.559 49.2531 22.485 43.0883 20.7824 40.1957C20.0186 38.898 19.4067 37.5172 19.1231 35.9081C18.982 35.1074 18.9208 34.251 18.9654 33.3183Z" fill="white"/>
<path d="M50.5926 59.1966C56.1677 59.1966 60.6872 54.6404 60.6872 49.0201C60.6872 43.3998 56.1677 38.8436 50.5926 38.8436C45.0175 38.8436 40.498 43.3998 40.498 49.0201C40.498 54.6404 45.0175 59.1966 50.5926 59.1966Z" fill="white"/>
<path d="M54.6467 46.9585H52.6371V44.9313C52.6371 44.3588 52.1767 43.8947 51.6089 43.8947H49.5767C49.0088 43.8947 48.5484 44.3587 48.5484 44.9313V46.9585H46.5389C45.971 46.9585 45.5106 47.4226 45.5106 47.9951V50.0454C45.5106 50.6178 45.971 51.082 46.5389 51.082H48.5484V53.1092C48.5484 53.6817 49.0088 54.1458 49.5767 54.1458H51.6089C52.1768 54.1458 52.6371 53.6817 52.6371 53.1092V51.082H54.6467C55.2146 51.082 55.6749 50.6178 55.6749 50.0454V47.9951C55.6749 47.4225 55.2145 46.9585 54.6467 46.9585Z" fill="#2A3985"/>
<path d="M18.4624 31.8598C18.5942 32.1815 18.9236 32.3945 19.2712 32.3824C19.6215 32.3702 19.9301 32.1381 20.0448 31.8083C20.1591 31.4799 20.0479 31.1024 19.7805 30.8825C19.5001 30.6518 19.0906 30.6281 18.7854 30.825C18.4465 31.0434 18.3072 31.4873 18.4624 31.8598Z" fill="#2A3985"/>
<path d="M53.3292 38.3463C53.4122 38.1325 53.4886 37.9192 53.558 37.7074C54.0252 36.2821 54.216 34.8332 54.1417 33.2778C54.0183 30.7012 52.8258 28.2241 50.7841 26.3027C48.8238 24.458 46.3331 23.4 43.9505 23.4C40.4009 23.4 37.6268 25.3815 36.2891 26.5628C36.1896 26.6507 36.0445 26.6526 35.9443 26.5669C34.5578 25.3842 31.7224 23.4 28.3113 23.4C25.4926 23.4 22.492 24.9208 20.4805 27.3689C20.1837 27.73 20.2359 28.2634 20.597 28.5601C20.9582 28.8569 21.4915 28.8047 21.7883 28.4436C23.4866 26.3768 25.9861 25.0928 28.3113 25.0928C31.1796 25.0928 33.6365 26.8233 34.8456 27.8548C35.5815 28.4825 36.6837 28.4726 37.4095 27.8317C38.5679 26.8088 40.9582 25.0928 43.9505 25.0928C47.7761 25.0928 52.2242 28.6278 52.4508 33.3588C52.5151 34.7044 52.351 35.9544 51.9493 37.1803C51.8541 37.4706 51.747 37.7568 51.625 38.0461C51.285 38.0139 50.9407 37.9974 50.5925 37.9974C44.5597 37.9974 39.6516 42.9422 39.6516 49.0202C39.6516 49.3076 39.6626 49.5925 39.6842 49.8745C38.8469 50.5573 38.1666 51.1163 37.598 51.5975C36.7394 52.3244 35.4932 52.3242 34.6347 51.597C33.8667 50.9463 32.8682 50.1327 31.8111 49.2713C27.9955 46.1621 22.7698 41.9038 21.5118 39.7666C20.6848 38.3615 20.1906 37.0888 19.9567 35.7614C19.9297 35.6079 19.9057 35.452 19.8857 35.2977C19.8256 34.8341 19.401 34.5071 18.9375 34.5673C18.4739 34.6274 18.1469 35.0521 18.2071 35.5155C18.2304 35.6951 18.2582 35.8767 18.2897 36.0552C18.5598 37.588 19.1201 39.0402 20.0531 40.6251C21.465 43.0241 26.6088 47.2155 30.7418 50.5834C31.7926 51.4396 32.7849 52.2483 33.5406 52.8885C34.2869 53.5208 35.2016 53.8368 36.1167 53.8368C37.031 53.8368 37.9456 53.5209 38.6916 52.8895C39.0717 52.5678 39.5047 52.209 40.0038 51.7995C41.2296 56.5365 45.5122 60.043 50.5925 60.043C56.6253 60.043 61.5333 55.0982 61.5333 49.0202C61.5334 43.8938 58.0421 39.5735 53.3292 38.3463ZM50.5926 58.3502C45.4931 58.3502 41.3444 54.1648 41.3444 49.0201C41.3444 43.8755 45.4931 39.69 50.5926 39.69C55.6921 39.69 59.8408 43.8755 59.8408 49.0201C59.8407 54.1648 55.6921 58.3502 50.5926 58.3502Z" fill="#2A3985"/>
</svg>
