<svg width="79" height="79" viewBox="0 0 79 79" fill="none" xmlns="http://www.w3.org/2000/svg">
<circle cx="39.5" cy="39.5" r="39.5" fill="#2A3985"/>
<path d="M40.3778 28.8733C41.1513 28.8733 41.7785 28.2462 41.7785 27.4726C41.7785 26.699 41.1513 26.0719 40.3778 26.0719C39.6042 26.0719 38.9771 26.699 38.9771 27.4726C38.9771 28.2462 39.6042 28.8733 40.3778 28.8733Z" fill="white"/>
<path d="M49.716 40.2657C47.9459 40.2657 46.3547 39.2822 45.5632 37.6992L45.366 37.3048C45.1287 36.8302 44.6437 36.5304 44.1131 36.5304H36.6427C36.1121 36.5304 35.6271 36.8302 35.3898 37.3048L35.1927 37.699C34.4012 39.2822 32.8099 40.2657 31.0399 40.2657C30.2663 40.2657 29.6392 40.8928 29.6392 41.6664V49.6595C29.6392 52.8021 30.6308 55.796 32.5067 58.3173C34.3826 60.8386 36.9653 62.6487 39.9755 63.5517C40.1067 63.5911 40.2423 63.6108 40.3779 63.6108C40.5135 63.6108 40.6491 63.5911 40.7804 63.5517C43.7905 62.6487 46.3732 60.8386 48.2492 58.3173C50.1251 55.796 51.1167 52.8021 51.1167 49.6595V41.6664C51.1167 40.8928 50.4895 40.2657 49.716 40.2657ZM45.3302 48.4198L40.0478 53.7022C39.7743 53.9757 39.4158 54.1125 39.0574 54.1125C38.699 54.1125 38.3405 53.9758 38.067 53.7022L35.4259 51.061C34.8788 50.514 34.8788 49.6272 35.4259 49.0801C35.9728 48.5331 36.8597 48.5331 37.4067 49.0801L39.0575 50.7308L43.3495 46.439C43.8964 45.8919 44.7833 45.8919 45.3304 46.439C45.8772 46.986 45.8772 47.8728 45.3302 48.4198Z" fill="white"/>
<path d="M61.7966 32.5419L41.2529 16.107C40.7412 15.6977 40.0144 15.6977 39.5028 16.107L18.9591 32.5419C18.355 33.0252 18.2571 33.9066 18.7404 34.5107C19.2236 35.1147 20.1051 35.2126 20.7091 34.7294L23.5693 32.4413V54.1794C23.5693 54.953 24.1964 55.5801 24.97 55.5801H27.8759C27.1911 53.7013 26.8376 51.7071 26.8376 49.6595V41.6664C26.8376 39.3494 28.7227 37.4643 31.0397 37.4643C31.7524 37.4643 32.3682 37.0838 32.6869 36.4464L32.8841 36.0519C33.6003 34.6193 35.0405 33.7291 36.6426 33.7291H44.113C45.715 33.7291 47.1553 34.6193 47.8716 36.0522L48.0687 36.4466C48.3873 37.0838 49.0032 37.4643 49.7158 37.4643C52.0329 37.4643 53.918 39.3494 53.918 41.6664V49.6595C53.918 51.7071 53.5644 53.7013 52.8797 55.5801H55.7856C56.5591 55.5801 57.1863 54.953 57.1863 54.1794V32.4413L60.0464 34.7294C60.3047 34.936 60.6137 35.0364 60.9206 35.0364C61.3314 35.0364 61.7386 34.8565 62.0152 34.5107C62.4985 33.9066 62.4006 33.0252 61.7966 32.5419ZM40.3778 31.6747C38.0607 31.6747 36.1757 29.7896 36.1757 27.4726C36.1757 25.1555 38.0607 23.2705 40.3778 23.2705C42.6948 23.2705 44.5799 25.1555 44.5799 27.4726C44.5799 29.7896 42.6948 31.6747 40.3778 31.6747Z" fill="white"/>
<path d="M31.0395 17.2007C31.0395 16.4272 30.4123 15.8 29.6388 15.8H26.8374C26.0638 15.8 25.4366 16.4272 25.4366 17.2007V23.7721L31.0395 19.2898V17.2007Z" fill="white"/>
</svg>
