<svg width="78" height="78" viewBox="0 0 78 78" fill="none" xmlns="http://www.w3.org/2000/svg">
<circle cx="39" cy="39" r="39" fill="#2A3985"/>
<path d="M49.654 39.6225C47.8188 38.7459 46.1835 37.7045 44.7958 36.361C42.9726 36.5332 41.4592 37.8429 41.027 39.6225H49.654Z" fill="white"/>
<path d="M52.2652 47.0118H47.5061V49.6418H52.2652V47.0118Z" fill="white"/>
<path d="M27.0918 47.0118H22.3326V49.6418H27.0918V47.0118Z" fill="white"/>
<path d="M18.2 55.6598V57.8474C18.2 58.8699 19.1044 59.7862 20.1269 59.7862H22.5072C23.5297 59.7862 24.2115 58.8699 24.2115 57.8474V56.1543H20.1269C19.4532 56.155 18.7902 55.9849 18.2 55.6598Z" fill="white"/>
<path d="M50.3867 56.1543V57.8474C50.3867 58.8699 51.3804 59.7862 52.4031 59.7862H54.7827C55.8051 59.7862 56.5235 58.8699 56.5235 57.8474V55.6598C56.001 55.9843 55.3978 56.1556 54.7827 56.1543H50.3867Z" fill="white"/>
<path d="M51.4297 11.2666L41.6202 16.6463V24.4404C41.6202 30.1746 45.1034 35.372 50.3719 37.6813L51.5196 38.161L52.8221 37.6023C52.8246 37.6013 52.7595 37.6003 52.7614 37.5993C58.1395 35.3253 61.5335 30.0997 61.5335 24.2864V16.6543L51.4297 11.2666ZM57.4592 23.1015L57.4589 23.1018L50.6488 28.6422C50.6394 28.6499 50.6294 28.6565 50.6196 28.6639C50.6099 28.6713 50.5974 28.6811 50.5858 28.689C50.5724 28.6982 50.5588 28.7066 50.5453 28.7151C50.5337 28.7223 50.5223 28.7297 50.5107 28.7363C50.4963 28.7444 50.4816 28.7517 50.467 28.7591C50.4556 28.7648 50.4443 28.771 50.4328 28.7762C50.4171 28.7834 50.4012 28.7895 50.3854 28.7958C50.3744 28.8002 50.3637 28.8049 50.3526 28.8083C50.3356 28.8144 50.3182 28.8193 50.3009 28.8245C50.2908 28.8275 50.2806 28.831 50.2703 28.8337C50.2521 28.8385 50.2328 28.8421 50.2149 28.8463C50.2055 28.8481 50.1962 28.8506 50.1866 28.8523C50.1662 28.8558 50.1456 28.858 50.1251 28.8602C50.1174 28.861 50.1098 28.8624 50.102 28.8632C50.0737 28.8655 50.0454 28.8668 50.0171 28.8668C49.9812 28.8668 49.9454 28.8648 49.9097 28.8609C49.8994 28.8598 49.8892 28.8575 49.8791 28.856C49.854 28.8525 49.8284 28.8491 49.8033 28.8435C49.7908 28.8407 49.7783 28.8367 49.7658 28.8335C49.7432 28.8277 49.7209 28.8222 49.6989 28.8149C49.6852 28.8104 49.6722 28.8045 49.6587 28.7994C49.6384 28.7916 49.618 28.7843 49.5981 28.7751C49.584 28.7687 49.5704 28.7608 49.5566 28.7537C49.5382 28.7442 49.519 28.735 49.5016 28.7243C49.4873 28.7159 49.4739 28.706 49.4602 28.6967C49.4434 28.6856 49.4265 28.6748 49.4101 28.6625C49.3963 28.652 49.3833 28.6401 49.37 28.6288C49.3567 28.6176 49.3394 28.6038 49.3248 28.5896C49.3123 28.5771 49.2997 28.564 49.2872 28.5508C49.2747 28.5377 49.264 28.528 49.2533 28.5154L46.3304 25.091C45.9711 24.6702 46.0209 24.0378 46.4417 23.6785C46.8626 23.3191 47.495 23.369 47.8543 23.7898L50.1431 26.4699L56.1942 21.547C56.6234 21.1977 57.2546 21.2626 57.6039 21.6918C57.9534 22.121 57.8885 22.7522 57.4592 23.1015Z" fill="white"/>
<path d="M43.2555 34.6117C42.7161 33.8964 42.2285 33.1435 41.7968 32.3586H26.1463C25.3733 32.3716 24.6811 32.8405 24.3823 33.5537L21.7905 39.6226H38.9845C39.3528 37.2821 41.0029 35.3461 43.2555 34.6117Z" fill="white"/>
<path d="M55.534 42.4637L54.7327 41.6262H20.6637L19.4785 42.688C19.4675 42.6982 19.4066 42.6743 19.395 42.6841C18.6504 43.296 18.2132 44.2049 18.2 45.1686V52.2774C18.2 53.2999 19.1044 54.1502 20.1269 54.1502H54.7827C55.8052 54.1502 56.5235 53.2999 56.5235 52.2774V44.8412C56.5431 43.948 56.1912 43.0867 55.5518 42.4628C55.537 42.4486 55.5482 42.4787 55.534 42.4637ZM29.0959 50.6435C29.0959 51.1968 28.6473 51.6454 28.094 51.6454H21.331C20.7777 51.6454 20.329 51.1968 20.329 50.6435V46.0096C20.329 45.4563 20.7777 45.0077 21.331 45.0077H28.094C28.6473 45.0077 29.0959 45.4563 29.0959 46.0096V50.6435ZM41.8108 51.5202H33.0992C32.5459 51.5202 32.0973 51.0716 32.0973 50.5183C32.0973 49.965 32.5459 49.5163 33.0992 49.5163H41.8108C42.3641 49.5163 42.8127 49.965 42.8127 50.5183C42.8127 51.0716 42.3642 51.5202 41.8108 51.5202ZM41.8108 48.0135H33.0992C32.5459 48.0135 32.0973 47.5648 32.0973 47.0115C32.0973 46.4582 32.5459 46.0096 33.0992 46.0096H41.8108C42.3641 46.0096 42.8127 46.4582 42.8127 47.0115C42.8127 47.5648 42.3642 48.0135 41.8108 48.0135ZM54.2693 50.6435C54.2693 51.1968 53.8207 51.6454 53.2674 51.6454H46.5044C45.9511 51.6454 45.5025 51.1968 45.5025 50.6435V46.0096C45.5025 45.4563 45.9511 45.0077 46.5044 45.0077H53.2674C53.8207 45.0077 54.2693 45.4563 54.2693 46.0096V50.6435Z" fill="white"/>
</svg>
