<svg width="170" height="44" viewBox="0 0 170 44" fill="none" xmlns="http://www.w3.org/2000/svg">
<g clip-path="url(#clip0)">
<path fill-rule="evenodd" clip-rule="evenodd" d="M20.2078 0.0744629L20.1636 11.9825L40.9172 12.0595C37.9223 5.62176 31.7166 0.117192 20.2078 0.0744629Z" fill="#0A1971"/>
<path fill-rule="evenodd" clip-rule="evenodd" d="M20.0495 42.8048L20.0996 29.3086L41.0786 29.3865C38 36.659 31.6833 42.848 20.0495 42.8048Z" fill="#0A1971"/>
<path fill-rule="evenodd" clip-rule="evenodd" d="M41.6361 14.433L20.1543 14.3533L20.1069 27.1201L41.5887 27.1999C41.8785 27.2009 42.1588 26.5295 42.3679 25.3331C42.5773 24.1367 42.6984 22.5135 42.7047 20.8205C42.711 19.1275 42.602 17.5035 42.4014 16.3056C42.2012 15.1077 41.9259 14.4341 41.6361 14.433Z" fill="#0A1971"/>
<path fill-rule="evenodd" clip-rule="evenodd" d="M5.38074 7.30268C7.678 4.40362 13.2913 0.0990858 18.023 0.116653L17.9448 21.1791L17.8659 42.4294C13.1342 42.4119 8.61021 38.6419 5.27805 34.9618C1.94585 31.2816 0.0846714 26.3 0.10393 21.1129C0.123188 15.9257 2.02131 10.9581 5.38074 7.30268ZM14.2072 5.14978L13.6416 3.38333L13.0628 5.14553L11.2111 5.13866L12.7051 6.23465L12.1264 7.99687L13.6285 6.912L15.1225 8.00799L14.5568 6.24153L16.059 5.15665L14.2072 5.14978ZM7.06479 9.56002L7.63045 11.3265L9.48219 11.3334L7.98005 12.4182L8.54572 14.1847L7.05169 13.0887L5.54956 14.1736L6.12832 12.4114L4.63429 11.3154L6.48602 11.3222L7.06479 9.56002ZM5.04791 20.4362L4.48224 18.6697L3.90347 20.4319L2.05174 20.4251L3.54578 21.5211L2.96701 23.2833L4.46914 22.1984L5.96317 23.2944L5.39751 21.5279L6.89964 20.4431L5.04791 20.4362ZM13.5305 33.2942L14.0962 35.0607L15.9479 35.0675L14.4458 36.1524L15.0115 37.919L13.5174 36.8228L12.0153 37.9079L12.5941 36.1455L11.1 35.0495L12.9518 35.0564L13.5305 33.2942ZM7.56545 28.8353L6.99978 27.0688L6.42101 28.831L4.56928 28.8242L6.06332 29.9202L5.48455 31.6824L6.98668 30.5975L8.48072 31.6935L7.91505 29.927L9.41718 28.8422L7.56545 28.8353Z" fill="#0A1971"/>
<path d="M61.3253 21.9539L54.9463 21.9302L54.9314 25.9474L62.4661 25.9754L62.4545 29.1012L50.8638 29.0582L50.9263 12.202L62.54 12.2451L62.5283 15.3825L54.9708 15.3544L54.9576 18.9086L61.3366 18.9323L61.3253 21.9539ZM63.8701 29.1065L63.9327 12.2503L69.9763 12.2727C72.1413 12.2807 73.7844 12.6843 74.9065 13.4835C76.0359 14.2826 76.5978 15.4386 76.5922 16.9513C76.589 17.8234 76.3859 18.5675 75.9831 19.1835C75.5803 19.7994 74.9892 20.2526 74.21 20.543C75.0874 20.7778 75.7597 21.2125 76.2274 21.8471C76.6951 22.4817 76.9271 23.2544 76.9237 24.1651C76.9176 25.8168 76.389 27.0575 75.3384 27.8872C74.2951 28.7091 72.749 29.124 70.6998 29.1318L63.8701 29.1065ZM67.9527 21.9554L67.9377 25.9957L70.5957 26.0056C71.3275 26.0083 71.8907 25.8445 72.2847 25.5141C72.6789 25.1759 72.8772 24.702 72.8795 24.0923C72.8847 22.6876 72.1901 21.9788 70.7956 21.9659L67.9527 21.9554ZM67.9626 19.2926L70.0777 19.3004C70.9636 19.296 71.5959 19.1363 71.9746 18.8212C72.353 18.5062 72.5437 18.04 72.546 17.4225C72.5486 16.7125 72.3463 16.2023 71.9393 15.8921C71.5319 15.5741 70.8738 15.4135 69.9647 15.4101L67.9771 15.4027L67.9626 19.2926ZM82.9876 23.4583L82.9663 29.1774L78.9103 29.1623L78.9728 12.3061L85.6868 12.331C86.9735 12.3358 88.109 12.5793 89.0932 13.0615C90.0855 13.536 90.8494 14.2141 91.3853 15.096C91.929 15.9702 92.1987 16.9629 92.1946 18.0743C92.1885 19.7183 91.5945 21.032 90.4119 22.0156C89.2373 22.9914 87.6254 23.4755 85.5763 23.4679L82.9876 23.4583ZM82.9992 20.3209L85.6571 20.3308C86.4428 20.3337 87.0407 20.1391 87.4507 19.747C87.8679 19.3549 88.0783 18.8 88.0809 18.0822C88.0839 17.295 87.8743 16.6652 87.4522 16.1928C87.0302 15.7204 86.4532 15.479 85.7214 15.4686L83.0173 15.4586L82.9992 20.3209ZM108.367 21.1908C108.361 22.8347 108.052 24.2884 107.438 25.552C106.825 26.8154 105.955 27.7886 104.828 28.4713C103.708 29.1463 102.432 29.4812 100.999 29.4759C99.5658 29.4705 98.296 29.1378 97.189 28.4777C96.082 27.8098 95.219 26.8611 94.5995 25.6316C93.9876 24.4022 93.6695 22.9924 93.6445 21.4024L93.648 20.4531C93.6541 18.8014 93.9599 17.3477 94.5654 16.0919C95.1788 14.8284 96.049 13.8553 97.1766 13.1725C98.3115 12.4898 99.5992 12.1511 101.04 12.1565C102.465 12.1618 103.735 12.5061 104.85 13.1894C105.964 13.8728 106.827 14.8446 107.439 16.1049C108.058 17.3576 108.369 18.7943 108.37 20.4151L108.367 21.1908ZM104.245 20.4693C104.251 18.7944 103.975 17.5238 103.415 16.6573C102.864 15.7831 102.068 15.3441 101.028 15.3402C98.9942 15.3326 97.9141 16.8568 97.787 19.9127L97.7707 21.1514C97.7646 22.8031 98.0337 24.0738 98.5772 24.9633C99.1208 25.853 99.9318 26.2997 101.011 26.3038C102.035 26.3076 102.827 25.8744 103.384 25.0043C103.942 24.1342 104.228 22.8811 104.242 21.2449L104.245 20.4693ZM120.124 12.4589L124.18 12.474L124.117 29.3301L120.061 29.3151L120.101 18.6874L114.017 29.2926L109.961 29.2776L110.024 12.4214L114.08 12.4365L114.04 23.0758L120.124 12.4589ZM140.429 29.3907L136.396 29.3757L136.422 22.3369L130.448 22.3147L130.421 29.3536L126.365 29.3385L126.428 12.4823L130.484 12.4974L130.459 19.1889L136.433 19.2111L136.458 12.5195L140.491 12.5345L140.429 29.3907ZM156.403 23.7425C156.345 24.9154 156.025 25.9523 155.444 26.8532C154.863 27.7463 154.048 28.4379 152.998 28.928C151.956 29.4181 150.765 29.6606 149.424 29.6557C147.213 29.6475 145.475 28.9194 144.209 27.4714C142.943 26.0234 142.315 23.9834 142.325 21.3516L142.328 20.518C142.334 18.8664 142.625 17.4242 143.199 16.1914C143.782 14.9509 144.613 13.997 145.695 13.3295C146.776 12.6543 148.025 12.3194 149.442 12.3246C151.484 12.3322 153.123 12.8786 154.359 13.9637C155.596 15.0411 156.295 16.5256 156.457 18.4171L152.413 18.4021C152.386 17.3755 152.131 16.6375 151.647 16.188C151.163 15.7386 150.424 15.512 149.431 15.5083C148.421 15.5046 147.68 15.88 147.208 16.6346C146.735 17.3893 146.484 18.5962 146.455 20.2555L146.45 21.4479C146.444 23.2462 146.662 24.5321 147.106 25.3056C147.558 26.0791 148.334 26.4679 149.436 26.472C150.368 26.4754 151.082 26.2581 151.576 25.82C152.071 25.3819 152.336 24.6844 152.37 23.7275L156.403 23.7425Z" fill="#0A1971"/>
</g>
<path d="M54.513 38.037C54.551 38.037 54.584 38.052 54.612 38.082L54.891 38.385C54.715 38.597 54.499 38.761 54.243 38.877C53.987 38.991 53.681 39.048 53.325 39.048C53.009 39.048 52.723 38.994 52.467 38.886C52.213 38.776 51.996 38.624 51.816 38.43C51.636 38.234 51.497 38.001 51.399 37.731C51.303 37.461 51.255 37.164 51.255 36.84C51.255 36.516 51.306 36.219 51.408 35.949C51.512 35.677 51.657 35.444 51.843 35.25C52.031 35.054 52.255 34.902 52.515 34.794C52.777 34.686 53.065 34.632 53.379 34.632C53.691 34.632 53.966 34.683 54.204 34.785C54.444 34.885 54.652 35.019 54.828 35.187L54.597 35.514C54.581 35.536 54.562 35.555 54.54 35.571C54.518 35.587 54.488 35.595 54.45 35.595C54.41 35.595 54.364 35.577 54.312 35.541C54.262 35.503 54.197 35.462 54.117 35.418C54.039 35.372 53.94 35.331 53.82 35.295C53.702 35.257 53.554 35.238 53.376 35.238C53.17 35.238 52.981 35.274 52.809 35.346C52.637 35.418 52.489 35.523 52.365 35.661C52.241 35.799 52.144 35.967 52.074 36.165C52.006 36.363 51.972 36.588 51.972 36.84C51.972 37.094 52.008 37.321 52.08 37.521C52.152 37.719 52.251 37.887 52.377 38.025C52.503 38.161 52.651 38.265 52.821 38.337C52.991 38.409 53.174 38.445 53.37 38.445C53.49 38.445 53.597 38.439 53.691 38.427C53.787 38.413 53.875 38.392 53.955 38.364C54.035 38.334 54.11 38.297 54.18 38.253C54.252 38.209 54.323 38.155 54.393 38.091C54.433 38.055 54.473 38.037 54.513 38.037ZM60.4504 35.265L59.1034 35.265L59.1034 39L58.4044 39L58.4044 35.265L57.0544 35.265L57.0544 34.68L60.4504 34.68L60.4504 35.265ZM64.3756 36.882C64.5316 36.882 64.6686 36.862 64.7866 36.822C64.9066 36.782 65.0056 36.726 65.0836 36.654C65.1636 36.58 65.2236 36.491 65.2636 36.387C65.3036 36.283 65.3236 36.167 65.3236 36.039C65.3236 35.913 65.3036 35.8 65.2636 35.7C65.2256 35.6 65.1676 35.515 65.0896 35.445C65.0116 35.375 64.9126 35.322 64.7926 35.286C64.6746 35.248 64.5356 35.229 64.3756 35.229L63.7336 35.229L63.7336 36.882L64.3756 36.882ZM64.3756 34.68C64.6576 34.68 64.9016 34.713 65.1076 34.779C65.3156 34.845 65.4866 34.938 65.6206 35.058C65.7566 35.176 65.8576 35.319 65.9236 35.487C65.9896 35.653 66.0226 35.837 66.0226 36.039C66.0226 36.245 65.9876 36.434 65.9176 36.606C65.8476 36.776 65.7436 36.923 65.6056 37.047C65.4676 37.169 65.2956 37.265 65.0896 37.335C64.8856 37.403 64.6476 37.437 64.3756 37.437L63.7336 37.437L63.7336 39L63.0316 39L63.0316 34.68L64.3756 34.68ZM70.6607 37.38L70.0637 35.802C70.0417 35.742 70.0177 35.673 69.9917 35.595C69.9657 35.515 69.9407 35.429 69.9167 35.337C69.8947 35.431 69.8707 35.518 69.8447 35.598C69.8207 35.676 69.7967 35.745 69.7727 35.805L69.1787 37.38L70.6607 37.38ZM71.9867 39L71.4437 39C71.3837 39 71.3337 38.985 71.2937 38.955C71.2557 38.923 71.2277 38.884 71.2097 38.838L70.8497 37.884L68.9867 37.884L68.6267 38.838C68.6107 38.878 68.5827 38.915 68.5427 38.949C68.5027 38.983 68.4537 39 68.3957 39L67.8497 39L69.5627 34.68L70.2737 34.68L71.9867 39ZM77.8733 39L77.1743 39C77.1263 39 77.0873 38.987 77.0573 38.961C77.0273 38.935 77.0033 38.906 76.9853 38.874L75.9113 37.143C75.9033 37.167 75.8943 37.19 75.8843 37.212C75.8763 37.234 75.8663 37.255 75.8543 37.275L74.8163 38.874C74.7943 38.906 74.7693 38.935 74.7413 38.961C74.7153 38.987 74.6803 39 74.6363 39L73.9823 39L75.4403 36.78L74.0423 34.68L74.7383 34.68C74.7883 34.68 74.8243 34.688 74.8463 34.704C74.8703 34.718 74.8913 34.74 74.9093 34.77L75.9593 36.42C75.9693 36.396 75.9793 36.372 75.9893 36.348C75.9993 36.324 76.0123 36.299 76.0283 36.273L77.0063 34.782C77.0263 34.748 77.0483 34.723 77.0723 34.707C77.0963 34.689 77.1253 34.68 77.1593 34.68L77.8283 34.68L76.4183 36.75L77.8733 39ZM84.2923 36.84C84.2923 37.16 84.2403 37.455 84.1363 37.725C84.0323 37.995 83.8853 38.228 83.6953 38.424C83.5073 38.618 83.2803 38.77 83.0143 38.88C82.7503 38.99 82.4563 39.045 82.1323 39.045C81.8103 39.045 81.5163 38.99 81.2503 38.88C80.9863 38.77 80.7593 38.618 80.5693 38.424C80.3793 38.228 80.2323 37.995 80.1283 37.725C80.0243 37.455 79.9723 37.16 79.9723 36.84C79.9723 36.52 80.0243 36.225 80.1283 35.955C80.2323 35.685 80.3793 35.452 80.5693 35.256C80.7593 35.06 80.9863 34.907 81.2503 34.797C81.5163 34.687 81.8103 34.632 82.1323 34.632C82.4563 34.632 82.7503 34.687 83.0143 34.797C83.2803 34.907 83.5073 35.06 83.6953 35.256C83.8853 35.452 84.0323 35.685 84.1363 35.955C84.2403 36.225 84.2923 36.52 84.2923 36.84ZM83.5753 36.84C83.5753 36.592 83.5413 36.369 83.4733 36.171C83.4073 35.973 83.3113 35.805 83.1853 35.667C83.0613 35.529 82.9103 35.423 82.7323 35.349C82.5543 35.275 82.3543 35.238 82.1323 35.238C81.9123 35.238 81.7133 35.275 81.5353 35.349C81.3573 35.423 81.2053 35.529 81.0793 35.667C80.9533 35.805 80.8563 35.973 80.7883 36.171C80.7203 36.369 80.6863 36.592 80.6863 36.84C80.6863 37.09 80.7203 37.314 80.7883 37.512C80.8563 37.71 80.9533 37.878 81.0793 38.016C81.2053 38.152 81.3573 38.257 81.5353 38.331C81.7133 38.403 81.9123 38.439 82.1323 38.439C82.3543 38.439 82.5543 38.403 82.7323 38.331C82.9103 38.257 83.0613 38.152 83.1853 38.016C83.3113 37.878 83.4073 37.71 83.4733 37.512C83.5413 37.314 83.5753 37.09 83.5753 36.84ZM88.6134 38.445C88.7714 38.445 88.9044 38.427 89.0124 38.391C89.1224 38.353 89.2114 38.302 89.2794 38.238C89.3494 38.174 89.3994 38.099 89.4294 38.013C89.4614 37.925 89.4774 37.831 89.4774 37.731C89.4774 37.527 89.4074 37.367 89.2674 37.251C89.1294 37.133 88.9104 37.074 88.6104 37.074L87.7434 37.074L87.7434 38.445L88.6134 38.445ZM87.7434 35.229L87.7434 36.579L88.4454 36.579C88.7454 36.579 88.9694 36.521 89.1174 36.405C89.2654 36.289 89.3394 36.122 89.3394 35.904C89.3394 35.666 89.2694 35.494 89.1294 35.388C88.9914 35.282 88.7744 35.229 88.4784 35.229L87.7434 35.229ZM88.4784 34.68C88.7544 34.68 88.9904 34.707 89.1864 34.761C89.3824 34.813 89.5434 34.888 89.6694 34.986C89.7954 35.084 89.8874 35.204 89.9454 35.346C90.0054 35.486 90.0354 35.644 90.0354 35.82C90.0354 35.922 90.0194 36.021 89.9874 36.117C89.9574 36.211 89.9094 36.3 89.8434 36.384C89.7794 36.466 89.6984 36.54 89.6004 36.606C89.5024 36.672 89.3864 36.727 89.2524 36.771C89.8644 36.901 90.1704 37.226 90.1704 37.746C90.1704 37.93 90.1354 38.099 90.0654 38.253C89.9974 38.405 89.8974 38.537 89.7654 38.649C89.6354 38.759 89.4744 38.845 89.2824 38.907C89.0904 38.969 88.8714 39 88.6254 39L87.0414 39L87.0414 34.68L88.4784 34.68ZM97.0004 36.84C97.0004 37.16 96.9484 37.455 96.8444 37.725C96.7404 37.995 96.5934 38.228 96.4034 38.424C96.2154 38.618 95.9884 38.77 95.7224 38.88C95.4584 38.99 95.1644 39.045 94.8404 39.045C94.5184 39.045 94.2244 38.99 93.9584 38.88C93.6944 38.77 93.4674 38.618 93.2774 38.424C93.0874 38.228 92.9404 37.995 92.8364 37.725C92.7324 37.455 92.6804 37.16 92.6804 36.84C92.6804 36.52 92.7324 36.225 92.8364 35.955C92.9404 35.685 93.0874 35.452 93.2774 35.256C93.4674 35.06 93.6944 34.907 93.9584 34.797C94.2244 34.687 94.5184 34.632 94.8404 34.632C95.1644 34.632 95.4584 34.687 95.7224 34.797C95.9884 34.907 96.2154 35.06 96.4034 35.256C96.5934 35.452 96.7404 35.685 96.8444 35.955C96.9484 36.225 97.0004 36.52 97.0004 36.84ZM96.2834 36.84C96.2834 36.592 96.2494 36.369 96.1814 36.171C96.1154 35.973 96.0194 35.805 95.8934 35.667C95.7694 35.529 95.6184 35.423 95.4404 35.349C95.2624 35.275 95.0624 35.238 94.8404 35.238C94.6204 35.238 94.4214 35.275 94.2434 35.349C94.0654 35.423 93.9134 35.529 93.7874 35.667C93.6614 35.805 93.5644 35.973 93.4964 36.171C93.4284 36.369 93.3944 36.592 93.3944 36.84C93.3944 37.09 93.4284 37.314 93.4964 37.512C93.5644 37.71 93.6614 37.878 93.7874 38.016C93.9134 38.152 94.0654 38.257 94.2434 38.331C94.4214 38.403 94.6204 38.439 94.8404 38.439C95.0624 38.439 95.2624 38.403 95.4404 38.331C95.6184 38.257 95.7694 38.152 95.8934 38.016C96.0194 37.878 96.1154 37.71 96.1814 37.512C96.2494 37.314 96.2834 37.09 96.2834 36.84ZM102.446 38.433L102.443 39L99.7495 39L99.7495 34.68L102.443 34.68L102.443 35.247L100.454 35.247L100.454 36.549L102.044 36.549L102.044 37.098L100.454 37.098L100.454 38.433L102.446 38.433ZM112.72 36.84C112.72 37.16 112.668 37.455 112.564 37.725C112.46 37.995 112.313 38.228 112.123 38.424C111.935 38.618 111.708 38.77 111.442 38.88C111.178 38.99 110.884 39.045 110.56 39.045C110.238 39.045 109.944 38.99 109.678 38.88C109.414 38.77 109.187 38.618 108.997 38.424C108.807 38.228 108.66 37.995 108.556 37.725C108.452 37.455 108.4 37.16 108.4 36.84C108.4 36.52 108.452 36.225 108.556 35.955C108.66 35.685 108.807 35.452 108.997 35.256C109.187 35.06 109.414 34.907 109.678 34.797C109.944 34.687 110.238 34.632 110.56 34.632C110.884 34.632 111.178 34.687 111.442 34.797C111.708 34.907 111.935 35.06 112.123 35.256C112.313 35.452 112.46 35.685 112.564 35.955C112.668 36.225 112.72 36.52 112.72 36.84ZM112.003 36.84C112.003 36.592 111.969 36.369 111.901 36.171C111.835 35.973 111.739 35.805 111.613 35.667C111.489 35.529 111.338 35.423 111.16 35.349C110.982 35.275 110.782 35.238 110.56 35.238C110.34 35.238 110.141 35.275 109.963 35.349C109.785 35.423 109.633 35.529 109.507 35.667C109.381 35.805 109.284 35.973 109.216 36.171C109.148 36.369 109.114 36.592 109.114 36.84C109.114 37.09 109.148 37.314 109.216 37.512C109.284 37.71 109.381 37.878 109.507 38.016C109.633 38.152 109.785 38.257 109.963 38.331C110.141 38.403 110.34 38.439 110.56 38.439C110.782 38.439 110.982 38.403 111.16 38.331C111.338 38.257 111.489 38.152 111.613 38.016C111.739 37.878 111.835 37.71 111.901 37.512C111.969 37.314 112.003 37.09 112.003 36.84ZM116.936 38.445C117.094 38.445 117.227 38.428 117.335 38.394C117.445 38.358 117.534 38.309 117.602 38.247C117.67 38.183 117.719 38.109 117.749 38.025C117.781 37.939 117.797 37.846 117.797 37.746C117.797 37.638 117.782 37.541 117.752 37.455C117.722 37.369 117.673 37.297 117.605 37.239C117.537 37.179 117.448 37.133 117.338 37.101C117.23 37.069 117.097 37.053 116.939 37.053L116.171 37.053L116.171 38.445L116.936 38.445ZM116.939 36.498C117.211 36.498 117.444 36.528 117.638 36.588C117.834 36.648 117.995 36.731 118.121 36.837C118.247 36.941 118.339 37.065 118.397 37.209C118.457 37.353 118.487 37.508 118.487 37.674C118.487 37.876 118.452 38.059 118.382 38.223C118.314 38.385 118.214 38.524 118.082 38.64C117.95 38.756 117.787 38.845 117.593 38.907C117.401 38.969 117.182 39 116.936 39L115.469 39L115.469 34.68L118.337 34.68L118.337 35.229L116.171 35.229L116.171 36.498L116.939 36.498ZM127.295 38.451L127.295 39.834C127.295 39.894 127.274 39.943 127.232 39.981C127.192 40.019 127.139 40.038 127.073 40.038L126.653 40.038L126.653 39L121.199 39L121.199 34.68L121.904 34.68L121.904 38.451L123.572 38.451L123.572 34.68L124.277 34.68L124.277 38.451L125.954 38.451L125.954 34.68L126.659 34.68L126.659 38.451L127.295 38.451ZM132.643 38.433L132.64 39L129.946 39L129.946 34.68L132.64 34.68L132.64 35.247L130.651 35.247L130.651 36.549L132.241 36.549L132.241 37.098L130.651 37.098L130.651 38.433L132.643 38.433ZM138.29 38.037C138.328 38.037 138.361 38.052 138.389 38.082L138.668 38.385C138.492 38.597 138.276 38.761 138.02 38.877C137.764 38.991 137.458 39.048 137.102 39.048C136.786 39.048 136.5 38.994 136.244 38.886C135.99 38.776 135.773 38.624 135.593 38.43C135.413 38.234 135.274 38.001 135.176 37.731C135.08 37.461 135.032 37.164 135.032 36.84C135.032 36.516 135.083 36.219 135.185 35.949C135.289 35.677 135.434 35.444 135.62 35.25C135.808 35.054 136.032 34.902 136.292 34.794C136.554 34.686 136.842 34.632 137.156 34.632C137.468 34.632 137.743 34.683 137.981 34.785C138.221 34.885 138.429 35.019 138.605 35.187L138.374 35.514C138.358 35.536 138.339 35.555 138.317 35.571C138.295 35.587 138.265 35.595 138.227 35.595C138.187 35.595 138.141 35.577 138.089 35.541C138.039 35.503 137.974 35.462 137.894 35.418C137.816 35.372 137.717 35.331 137.597 35.295C137.479 35.257 137.331 35.238 137.153 35.238C136.947 35.238 136.758 35.274 136.586 35.346C136.414 35.418 136.266 35.523 136.142 35.661C136.018 35.799 135.921 35.967 135.851 36.165C135.783 36.363 135.749 36.588 135.749 36.84C135.749 37.094 135.785 37.321 135.857 37.521C135.929 37.719 136.028 37.887 136.154 38.025C136.28 38.161 136.428 38.265 136.598 38.337C136.768 38.409 136.951 38.445 137.147 38.445C137.267 38.445 137.374 38.439 137.468 38.427C137.564 38.413 137.652 38.392 137.732 38.364C137.812 38.334 137.887 38.297 137.957 38.253C138.029 38.209 138.1 38.155 138.17 38.091C138.21 38.055 138.25 38.037 138.29 38.037ZM144.227 35.265L142.88 35.265L142.88 39L142.181 39L142.181 35.265L140.831 35.265L140.831 34.68L144.227 34.68L144.227 35.265ZM148.38 38.445C148.538 38.445 148.671 38.427 148.779 38.391C148.889 38.353 148.978 38.302 149.046 38.238C149.116 38.174 149.166 38.099 149.196 38.013C149.228 37.925 149.244 37.831 149.244 37.731C149.244 37.527 149.174 37.367 149.034 37.251C148.896 37.133 148.677 37.074 148.377 37.074L147.51 37.074L147.51 38.445L148.38 38.445ZM147.51 35.229L147.51 36.579L148.212 36.579C148.512 36.579 148.736 36.521 148.884 36.405C149.032 36.289 149.106 36.122 149.106 35.904C149.106 35.666 149.036 35.494 148.896 35.388C148.758 35.282 148.541 35.229 148.245 35.229L147.51 35.229ZM148.245 34.68C148.521 34.68 148.757 34.707 148.953 34.761C149.149 34.813 149.31 34.888 149.436 34.986C149.562 35.084 149.654 35.204 149.712 35.346C149.772 35.486 149.802 35.644 149.802 35.82C149.802 35.922 149.786 36.021 149.754 36.117C149.724 36.211 149.676 36.3 149.61 36.384C149.546 36.466 149.465 36.54 149.367 36.606C149.269 36.672 149.153 36.727 149.019 36.771C149.631 36.901 149.937 37.226 149.937 37.746C149.937 37.93 149.902 38.099 149.832 38.253C149.764 38.405 149.664 38.537 149.532 38.649C149.402 38.759 149.241 38.845 149.049 38.907C148.857 38.969 148.638 39 148.392 39L146.808 39L146.808 34.68L148.245 34.68ZM156.767 36.84C156.767 37.16 156.715 37.455 156.611 37.725C156.507 37.995 156.36 38.228 156.17 38.424C155.982 38.618 155.755 38.77 155.489 38.88C155.225 38.99 154.931 39.045 154.607 39.045C154.285 39.045 153.991 38.99 153.725 38.88C153.461 38.77 153.234 38.618 153.044 38.424C152.854 38.228 152.707 37.995 152.603 37.725C152.499 37.455 152.447 37.16 152.447 36.84C152.447 36.52 152.499 36.225 152.603 35.955C152.707 35.685 152.854 35.452 153.044 35.256C153.234 35.06 153.461 34.907 153.725 34.797C153.991 34.687 154.285 34.632 154.607 34.632C154.931 34.632 155.225 34.687 155.489 34.797C155.755 34.907 155.982 35.06 156.17 35.256C156.36 35.452 156.507 35.685 156.611 35.955C156.715 36.225 156.767 36.52 156.767 36.84ZM156.05 36.84C156.05 36.592 156.016 36.369 155.948 36.171C155.882 35.973 155.786 35.805 155.66 35.667C155.536 35.529 155.385 35.423 155.207 35.349C155.029 35.275 154.829 35.238 154.607 35.238C154.387 35.238 154.188 35.275 154.01 35.349C153.832 35.423 153.68 35.529 153.554 35.667C153.428 35.805 153.331 35.973 153.263 36.171C153.195 36.369 153.161 36.592 153.161 36.84C153.161 37.09 153.195 37.314 153.263 37.512C153.331 37.71 153.428 37.878 153.554 38.016C153.68 38.152 153.832 38.257 154.01 38.331C154.188 38.403 154.387 38.439 154.607 38.439C154.829 38.439 155.029 38.403 155.207 38.331C155.385 38.257 155.536 38.152 155.66 38.016C155.786 37.878 155.882 37.71 155.948 37.512C156.016 37.314 156.05 37.09 156.05 36.84Z" fill="#0A1971"/>
<defs>
<clipPath id="clip0">
<rect width="168.943" height="43.0428" fill="white" transform="translate(0.182251) rotate(0.212723)"/>
</clipPath>
</defs>
</svg>
