<svg width="78" height="78" viewBox="0 0 78 78" fill="none" xmlns="http://www.w3.org/2000/svg">
<circle cx="39" cy="39" r="39" fill="#2A3985"/>
<g clip-path="url(#clip0)">
<path d="M59.6902 58.2546H18.0572C17.6608 58.2546 17.3394 57.9332 17.3394 57.5368C17.3394 57.1404 17.6608 56.819 18.0572 56.819H59.6902C60.0867 56.819 60.4081 57.1404 60.4081 57.5368C60.4081 57.9332 60.0867 58.2546 59.6902 58.2546Z" fill="white"/>
<path d="M43.1806 55.3834H36.0025C35.6061 55.3834 35.2847 55.062 35.2847 54.6656C35.2847 54.2692 35.6061 53.9478 36.0025 53.9478H43.1806C43.577 53.9478 43.8984 54.2692 43.8984 54.6656C43.8984 55.062 43.577 55.3834 43.1806 55.3834Z" fill="white"/>
<path d="M33.1312 55.3834H31.6956C31.2992 55.3834 30.9778 55.062 30.9778 54.6656C30.9778 54.2692 31.2992 53.9478 31.6956 53.9478H33.1312C33.5276 53.9478 33.849 54.2692 33.849 54.6656C33.849 55.062 33.5276 55.3834 33.1312 55.3834Z" fill="white"/>
<path d="M41.0271 45.334H32.4134C32.017 45.334 31.6956 45.0126 31.6956 44.6162C31.6956 44.2198 32.017 43.8984 32.4134 43.8984H41.0271C41.4235 43.8984 41.7449 44.2198 41.7449 44.6162C41.7449 45.0126 41.4235 45.334 41.0271 45.334Z" fill="white"/>
<path d="M29.5421 45.334H28.1065C27.7101 45.334 27.3887 45.0126 27.3887 44.6162C27.3887 44.2198 27.7101 43.8984 28.1065 43.8984H29.5421C29.9385 43.8984 30.2599 44.2198 30.2599 44.6162C30.2599 45.0126 29.9385 45.334 29.5421 45.334Z" fill="white"/>
<path d="M25.8519 47.313L26.93 49.4973L29.3397 49.8476L27.5961 51.5474L28.0074 53.9478L25.8519 52.8144L23.6963 53.9478L24.1083 51.5474L22.364 49.8476L24.7744 49.4973L25.8519 47.313Z" fill="white"/>
<path d="M25.9531 30.6949C23.1782 33.4701 23.1782 37.9691 25.9531 40.7443L26.2252 41.0156C26.5107 41.3014 26.8979 41.462 27.3019 41.4621C28.1428 41.4617 28.8244 40.7798 28.8244 39.9389C28.8244 39.5351 28.664 39.1478 28.3786 38.8622L28.1065 38.5908C26.5209 37.0051 26.5209 34.4341 28.1065 32.8484L41.0272 45.769V52.5121C41.0263 53.2331 41.3862 53.9067 41.9862 54.3066C42.7094 54.7888 43.6517 54.7888 44.375 54.3066C44.9749 53.9067 45.3349 53.2331 45.334 52.5121V43.6155L41.745 40.0265L45.334 36.4374L49.7644 40.867C50.1449 41.2482 50.6614 41.4624 51.2 41.4621C52.3212 41.4617 53.23 40.5526 53.23 39.4314C53.2299 38.893 53.016 38.3767 52.6356 37.9958L45.334 30.6949L39.5915 36.4374L33.849 30.6949V29.9771C37.0205 29.9771 39.5915 27.4061 39.5915 24.2346V24.1112C39.5914 23.7304 39.4402 23.3653 39.1709 23.0962C38.6103 22.5357 37.7015 22.5357 37.1409 23.0962C36.8717 23.3653 36.7204 23.7304 36.7203 24.1112C36.7203 25.7651 35.3795 27.1059 33.7256 27.1059C31.047 27.1059 28.4781 28.1699 26.5841 30.064L25.9531 30.6949Z" fill="white"/>
<path d="M25.9531 29.2593C27.9353 29.2593 29.5421 27.6524 29.5421 25.6702C29.5421 23.6881 27.9353 22.0812 25.9531 22.0812C23.9709 22.0812 22.364 23.6881 22.364 25.6702C22.364 27.6524 23.9709 29.2593 25.9531 29.2593Z" fill="white"/>
<path d="M54.9915 19.683L54.6656 19.4928L54.3397 19.683C52.8694 20.5371 51.139 20.8284 49.4701 20.5028V27.7311C49.4704 28.623 49.7189 29.4971 50.1879 30.2557C50.7404 31.1461 51.5587 31.8405 52.5273 32.2404L54.6656 33.1312L56.8025 32.2404C57.7711 31.8405 58.5894 31.1462 59.1419 30.2557C59.6109 29.4971 59.8594 28.623 59.8597 27.7311V20.5028C58.1912 20.828 56.4614 20.5368 54.9915 19.683Z" fill="white"/>
<path d="M54.9914 19.683L54.6655 19.4928V33.1312L56.8025 32.2404C57.7711 31.8405 58.5894 31.1462 59.1418 30.2557C59.6108 29.4971 59.8593 28.623 59.8596 27.7311V20.5028C58.1912 20.828 56.4613 20.5368 54.9914 19.683Z" fill="white"/>
</g>
<defs>
<clipPath id="clip0">
<rect width="43.0687" height="43.0687" fill="white" transform="translate(17.3394 17.3394)"/>
</clipPath>
</defs>
</svg>
