<?xml version="1.0" encoding="utf-8"?>
<svg width="190" height="251" viewBox="0 0 190 251" fill="none" xmlns="http://www.w3.org/2000/svg">
  <path d="M51.4569 68.5506C64.3475 54.3643 72.4583 50.0695 88.2339 47.8301L61.3495 111.566L56.6062 131.491L49.0514 133.377C44.423 123.728 42.27 117.897 41.2466 104.807C40.2825 90.3394 42.5402 82.4108 51.4569 68.5506Z" fill="#D50A0A"/>
  <path d="M100.592 45.1139C109.909 46.5019 113.76 49.4389 118.406 58.1711L67.0544 116.346C59.2982 110.506 56.0847 107.218 53.1303 101.32C51.6084 95.5113 51.4065 92.3111 52.6554 86.732C61.5231 64.3488 70.2951 57.2066 87.7596 47.0593C92.3198 44.9506 95.0695 44.5507 100.592 45.1139Z" fill="#EA1414"/>
  <circle r="9.71532" transform="matrix(-0.996127 0.0879266 0.0879266 0.996127 51.4593 137.635)" fill="white" style="fill-rule: evenodd; stroke: rgb(223, 223, 223);"/>
  <path d="M118.5 44.5C123.174 37.9653 126.565 36.1975 133 34C135.39 42.2042 135.22 46.5555 133 54C130.922 59.3608 129.24 62.0291 125 66L117 60.5C116.672 53.303 117 48 118.5 44.5Z" fill="#C59C6C"/>
  <path d="M120.087 47.2188C123.23 42.7261 125.51 41.5108 129.838 40C131.444 45.6404 131.993 48.8819 130.5 54C129.102 57.6856 127.851 60.27 125 63L119 60.5C118.779 55.5521 119.078 49.625 120.087 47.2188Z" fill="#A47849"/>
  <path d="M53.9394 102.142C45.8914 105.624 43.2244 108.835 39.3981 115.194C47.6007 119.633 52.2822 120.454 60.7357 119.8C66.9337 118.817 70.1678 117.637 75.3806 114.028L71.355 104.227C63.7523 102.219 58.019 101.348 53.9394 102.142Z" fill="#C59C6C"/>
  <path d="M56.4747 104.461C50.9579 106.78 49.1361 108.933 46.5278 113.202C52.1754 116.215 55.5075 117.546 61.3116 117.132C65.5655 116.49 68.6109 115.75 72.18 113.337L70.8946 106.36C65.6666 104.985 59.2742 103.939 56.4747 104.461Z" fill="#A47849"/>
  <path d="M101.239 0.918734C102.285 0.0613872 102.992 -5.12548e-05 105.092 0C107.549 6.00193e-05 115.111 1.21748 120.318 4.80688C120.502 4.93368 120.667 5.08404 120.814 5.25255C123.042 7.81192 123.592 9.20891 123.592 11.5C123.642 16.9795 123.379 19.9507 122.092 25C119.938 33.8335 118.119 38.9714 114.312 47.9814C114.168 48.3223 114.086 48.6904 114.075 49.0603C113.953 53.0809 113.954 55.695 114.019 58.9216C114.053 60.6087 112.701 62 111.013 62H110.325C109.253 62 108.265 61.4322 107.72 60.5085C105.699 57.079 100.776 48.8948 99.5922 48.5C98.0922 47.9999 96.6845 48.8295 94.5922 48.5C92.5379 48.2652 91.6925 47.7937 90.5922 46.5C89.2025 44.8759 88.9233 43.9426 89.0162 42.6784C89.0491 42.2304 89.2028 41.7872 89.5188 41.468C90.3865 40.5915 91.484 40.636 93.3506 40.9576C93.5112 40.9853 93.6703 41.0271 93.8235 41.0828C96.3492 42.0012 97.442 42.8752 98.6635 44.4341C98.9513 44.8014 99.3111 45.1118 99.7272 45.323C103.43 47.2027 104.837 47.8463 106.02 48.2923C106.396 48.4341 106.8 48.4905 107.2 48.4528C109.789 48.2088 110.74 47.5096 111.453 45.8444C111.55 45.6178 111.608 45.3755 111.635 45.1306C111.9 42.7879 111.89 41.3116 111.647 39.0014C111.612 38.6693 111.519 38.346 111.375 38.0444L111.372 38.0362C110.357 35.8999 109.753 34.6274 107.576 32.877C107.26 32.6235 106.889 32.4451 106.493 32.3627C102.886 31.6133 100.99 32.6062 99.5922 31.5C98.3592 30.5342 97.8061 29.7473 97.6433 28.3129C97.5832 27.7831 97.7025 27.2324 98.0493 26.8274C98.8959 25.8385 99.9938 25.8833 102.092 26.5L106.812 28.3878C106.998 28.4624 107.192 28.518 107.389 28.554L111.743 29.3456C112.298 29.4465 112.875 29.3974 113.384 29.1552C114.869 28.4494 115.846 27.6055 116.728 26.3709C117.316 25.5479 117.835 24.453 117.914 23.4446C118.073 21.397 118.092 17.7372 118.092 15C118.092 11.2957 105.657 6.734 103.818 6.0796C103.662 6.02412 103.519 5.96046 103.374 5.88066C101.364 4.77407 100.347 3.97281 100.452 2.3576C100.488 1.79094 100.799 1.27861 101.239 0.918734Z" fill="#664220"/>
  <path d="M6.46072 77.9677C5.26063 78.8696 5.0247 79.5813 4.50568 81.8081C3.90692 84.3769 3.34216 92.5905 5.85078 98.9094C5.93325 99.1171 6.04267 99.3129 6.17383 99.4939C8.32512 102.462 9.6573 103.382 12.0664 103.944C17.8029 105.336 20.9842 105.788 26.5949 105.678C36.4009 105.589 42.2368 104.944 52.6443 103.165C53.0077 103.103 53.383 103.107 53.7444 103.18C58.1145 104.06 60.8912 104.711 64.3791 105.601C66.0141 106.018 67.6767 105.016 68.0598 103.373L68.3058 102.318C68.5496 101.272 68.2208 100.18 67.4415 99.4407C64.3935 96.5486 56.8551 89.2718 56.728 87.9248C56.5686 86.2358 57.7816 84.9683 57.9454 82.7024C58.1993 80.4993 57.9104 79.5009 56.821 78.0353C55.4372 76.1618 54.52 75.653 53.141 75.4462C52.6982 75.3798 52.2354 75.4288 51.8494 75.6557C50.6751 76.3463 50.4521 77.5117 50.3337 79.578C50.3244 79.7414 50.3292 79.9064 50.3489 80.0689C50.6999 82.9669 51.3586 84.3226 52.722 86.0019C53.0164 86.3644 53.2373 86.7852 53.3495 87.2385C54.4409 91.6482 54.7712 93.271 54.9505 94.6291C55.0033 95.0292 54.9667 95.4367 54.8394 95.8196C53.9448 98.5094 52.9744 99.3329 51.0248 99.6689C50.7829 99.7105 50.5345 99.7117 50.2907 99.6831C47.7371 99.3841 46.185 99.0106 43.7893 98.1796C43.475 98.0705 43.1816 97.9067 42.9209 97.7L42.882 97.6691C40.8781 96.0796 39.6884 95.136 38.3747 92.4038C38.1989 92.0382 38.1083 91.6342 38.1167 91.2285C38.1987 87.2477 39.7158 85.5039 38.8926 83.7672C38.1695 82.2217 37.4693 81.4515 35.9612 80.9303C35.4591 80.7568 34.9003 80.7495 34.4236 80.9839C33.1293 81.6203 32.9001 82.7774 33.0383 85.1556L33.8729 90.5674C33.9036 90.7666 33.9142 90.9684 33.9044 91.1697L33.671 95.9903C33.6437 96.5561 33.4633 97.1087 33.1116 97.5527C31.971 98.9926 30.8117 99.8242 29.2283 100.456C28.2873 100.832 27.1044 101.1 26.102 100.952C23.9385 100.632 20.0031 99.7368 17.0775 99.0548C13.181 98.1465 11.4237 83.9708 11.1923 81.9482C11.1735 81.7833 11.1436 81.6278 11.0984 81.4681C10.416 79.0558 9.81739 77.7911 8.04002 77.5269C7.47955 77.4435 6.9137 77.6273 6.46072 77.9677Z" fill="#664220"/>
  <path d="M132.947 71.1653C133.542 73.5923 133.752 75.1352 133.901 78.1717L83.5823 126.341C76.2039 123.352 72.5393 120.544 67.1716 112.733C65.8676 108.396 65.6662 105.826 67.2506 100.733C81.6072 82.7612 91.0256 73.5898 110.526 59.0174C114.793 58.2043 117.245 57.9719 122.026 59.0931C127.719 63.0237 130.078 65.6958 132.947 71.1653Z" fill="white"/>
  <path d="M123.5 139C115.342 140.111 110.608 140.125 102 139C91.0438 133.846 77.499 123.5 76.4995 121.5C75.5 119.5 73.7869 110.125 73.9995 109C73.9995 109 74.3872 107.239 75.9995 105.5C81.4289 99.6424 100.645 80.1234 114 71C116.686 69.6368 121.076 69.5093 125.818 70.37C126.26 70.4503 126.664 70.6934 126.955 71.0362C136.641 82.4606 137.211 84.8793 143.5 99.0001C144.26 107.629 145.795 111.538 144 117.5L123.5 139Z" fill="#BE9266"/>
  <rect x="98" y="110.759" width="5.4218" height="11.7472" rx="2.7109" transform="rotate(-44.6174 98 110.759)" fill="#5E5857"/>
  <rect x="100.361" y="111.252" width="1.57382" height="1.57382" transform="rotate(-90 100.361 111.252)" fill="white"/>
  <rect x="112.164" y="95.8081" width="5.4218" height="11.7472" rx="2.7109" transform="rotate(-44.6174 112.164 95.8081)" fill="#5E5857"/>
  <rect x="114.525" y="96.3006" width="1.57382" height="1.57382" transform="rotate(-90 114.525 96.3006)" fill="white"/>
  <ellipse cx="155.821" cy="107.729" rx="6" ry="9.22204" transform="rotate(20.2492 155.821 107.729)" fill="#BE9266"/>
  <ellipse cx="168.761" cy="174.638" rx="53.4902" ry="65.8088" transform="rotate(-35.4965 168.761 174.638)" fill="#C59C6C"/>
  <rect x="169" y="97" width="43" height="154" fill="#F5F5F5"/>
  <path d="M167.792 89.3032C170.032 88.4733 170.867 84.0539 171.834 84.4078C172.8 84.7617 169.329 82.8522 167.169 83.0092C165.451 83.1056 164.495 83.254 162.816 83.7085C159.903 85.4627 158.518 86.6092 156.597 88.9534C154.905 91.2712 154.058 92.6009 153.488 95.2472C152.48 102.031 153.1 104.569 154.732 108.534C156.564 111.751 157.868 113.269 160.64 115.527C163.144 116.15 164.884 116.165 167.481 115.527L169.036 107.485L167.17 101.192L167.792 95.597C166.754 95.978 165.552 90.133 167.792 89.3032Z" fill="white"/>
  <path d="M158.45 200.238C160.872 199.417 161.775 195.043 162.82 195.393C163.866 195.744 160.112 193.854 157.777 194.009C155.919 194.105 154.885 194.251 153.07 194.701C149.92 196.437 148.266 197.217 146.189 199.537C144.359 201.831 143.6 203.502 142.983 206.121C141.894 212.836 141.399 216.031 143.163 219.955C144.725 223.462 146.856 226.658 150.224 228.606C153.249 230.624 159.865 230.401 162.328 228.26L159.795 218.234L157.778 212.004L158.45 206.467C157.328 206.845 156.028 201.06 158.45 200.238Z" fill="white"/>
  <g filter="url(#filter0_d)">
    <path fill-rule="evenodd" clip-rule="evenodd" d="M164.826 230.475C173.014 230.475 179.652 223.837 179.652 215.649V210.187C179.652 203.448 175.156 197.759 169 195.956V188.08C169 187.498 168.501 187.027 167.928 187.134C166.083 187.478 165.094 188.408 164.07 190.96C164.024 191.075 164 191.2 164 191.325V195.383C156.196 195.812 150 202.276 150 210.187V215.649C150 223.837 156.638 230.475 164.826 230.475Z" fill="#1B8853"/>
  </g>
  <g filter="url(#filter1_d)">
    <path fill-rule="evenodd" clip-rule="evenodd" d="M173.5 82C181.508 82 188 88.4919 188 96.5V101.842C188 109.85 181.508 116.342 173.5 116.342C172.142 116.342 170.828 116.156 169.582 115.807V121.439C169.582 122.021 169.083 122.492 168.51 122.383C166.721 122.044 165.759 121.132 164.762 118.65C164.715 118.534 164.692 118.409 164.692 118.285V113.361C161.232 110.711 159 106.537 159 101.842V96.5C159 88.4919 165.492 82 173.5 82Z" fill="#1B8853"/>
  </g>
  <path d="M157.5 123.5C157 121 151.513 111.645 146 108L111 140C116.236 146.14 119.398 149.169 127.5 152C131.59 152.892 133.796 152.921 137.5 152C146.83 147.745 151.203 143.518 156 134C157.565 129.446 158 126 157.5 123.5Z" fill="#EA1414"/>
  <path d="M155.149 144.765L150.179 144.092L148.223 148.709L147.327 143.775L142.331 143.342L146.747 140.965L145.615 136.08L149.24 139.545L153.537 136.959L151.361 141.477L155.149 144.765Z" fill="#EABD14"/>
  <ellipse cx="129.015" cy="124.156" rx="25.2987" ry="21.3359" transform="rotate(-36.1795 129.015 124.156)" fill="#CCA886"/>
  <ellipse cx="132.466" cy="127.446" rx="9.90741" ry="9.12509" transform="rotate(-44.0065 132.466 127.446)" fill="#EA1514"/>
  <circle cx="129" cy="127" r="2" fill="#EE5353"/>
  <defs>
    <filter id="filter0_d" x="148" y="187.119" width="31.6523" height="45.3566" filterUnits="userSpaceOnUse" color-interpolation-filters="sRGB">
      <feFlood flood-opacity="0" result="BackgroundImageFix"/>
      <feColorMatrix in="SourceAlpha" type="matrix" values="0 0 0 0 0 0 0 0 0 0 0 0 0 0 0 0 0 0 127 0"/>
      <feOffset dx="-1" dy="1"/>
      <feGaussianBlur stdDeviation="0.5"/>
      <feColorMatrix type="matrix" values="0 0 0 0 0 0 0 0 0 0 0 0 0 0 0 0 0 0 0.25 0"/>
      <feBlend mode="normal" in2="BackgroundImageFix" result="effect1_dropShadow"/>
      <feBlend mode="normal" in="SourceGraphic" in2="effect1_dropShadow" result="shape"/>
    </filter>
    <filter id="filter1_d" x="157" y="82" width="31" height="42.3992" filterUnits="userSpaceOnUse" color-interpolation-filters="sRGB">
      <feFlood flood-opacity="0" result="BackgroundImageFix"/>
      <feColorMatrix in="SourceAlpha" type="matrix" values="0 0 0 0 0 0 0 0 0 0 0 0 0 0 0 0 0 0 127 0"/>
      <feOffset dx="-1" dy="1"/>
      <feGaussianBlur stdDeviation="0.5"/>
      <feColorMatrix type="matrix" values="0 0 0 0 0 0 0 0 0 0 0 0 0 0 0 0 0 0 0.25 0"/>
      <feBlend mode="normal" in2="BackgroundImageFix" result="effect1_dropShadow"/>
      <feBlend mode="normal" in="SourceGraphic" in2="effect1_dropShadow" result="shape"/>
    </filter>
  </defs>
</svg>