<?xml version="1.0" standalone="no"?>
<!DOCTYPE svg PUBLIC "-//W3C//DTD SVG 20010904//EN"
 "http://www.w3.org/TR/2001/REC-SVG-20010904/DTD/svg10.dtd">
<svg version="1.0" xmlns="http://www.w3.org/2000/svg"
 width="700.000000pt" height="700.000000pt" viewBox="0 0 700.000000 700.000000"
 preserveAspectRatio="xMidYMid meet">
<metadata>
Created by potrace 1.11, written by Peter Selinger 2001-2013
</metadata>
<g transform="translate(0.000000,700.000000) scale(0.100000,-0.100000)"
fill="#000000" stroke="none">
<path d="M2949 6996 c-2 -2 -44 -6 -94 -10 -49 -3 -103 -8 -120 -11 -356 -63
-728 -227 -1105 -486 -105 -72 -276 -205 -372 -289 -87 -76 -313 -301 -348
-348 -14 -18 -42 -51 -64 -75 -21 -23 -63 -73 -94 -112 -32 -38 -60 -72 -63
-75 -15 -13 -182 -266 -234 -355 -105 -180 -223 -447 -288 -650 -59 -188 -118
-449 -133 -586 -3 -35 -8 -66 -9 -69 -2 -3 -7 -48 -12 -100 -15 -177 -8 -608
12 -731 2 -13 6 -46 10 -74 23 -196 108 -527 191 -748 134 -353 359 -731 584
-981 124 -139 168 -185 290 -306 115 -115 192 -185 330 -304 469 -403 973
-642 1415 -672 l95 -7 0 124 c1 68 3 581 5 1139 4 957 13 3222 19 4948 1 425
-1 775 -4 777 -4 3 -9 3 -11 1z m-658 -693 l44 -138 144 -2 c78 -1 145 -3 147
-6 2 -2 -27 -25 -64 -52 -37 -27 -90 -66 -118 -87 l-52 -37 44 -133 c24 -73
43 -137 41 -141 -1 -4 -55 31 -120 78 l-118 87 -118 -86 c-66 -47 -121 -86
-124 -86 -3 0 16 64 42 141 l48 141 -121 89 c-66 49 -116 90 -111 90 6 1 73 2
150 3 l140 1 45 137 c25 76 48 138 51 138 3 0 25 -62 50 -137z m-1054 -1133
c3 -8 5 -18 5 -22 -1 -4 66 -7 148 -5 83 1 150 -1 150 -5 0 -4 -12 -15 -27
-25 -16 -10 -30 -20 -33 -23 -3 -4 -27 -22 -55 -40 -27 -19 -56 -40 -65 -47
-8 -7 -24 -19 -34 -26 -22 -16 -21 -22 42 -214 l29 -91 -124 90 -123 90 -119
-86 c-118 -85 -140 -98 -124 -73 4 6 8 17 10 22 1 6 19 64 41 130 l38 120 -75
54 c-42 31 -97 71 -122 91 l-46 36 149 -1 c96 -1 151 2 157 9 4 6 11 25 15 41
4 17 24 77 43 134 l36 104 39 -124 c22 -68 42 -131 45 -139z m-467 -1382 c23
-73 46 -137 50 -141 4 -5 74 -8 155 -8 82 0 144 -3 139 -8 -5 -4 -58 -43 -117
-86 -60 -43 -111 -83 -113 -89 -2 -6 16 -72 40 -146 25 -74 43 -136 42 -137
-1 -1 -56 38 -121 86 l-120 89 -45 -31 c-25 -17 -78 -55 -118 -85 -41 -29 -76
-52 -78 -49 -2 2 16 64 40 137 25 74 43 137 41 141 -3 3 -57 44 -120 90 l-115
84 149 3 150 3 40 122 c45 137 52 157 56 157 2 0 22 -60 45 -132z m454 -1498
l14 -35 142 -2 c78 -1 144 -4 146 -6 3 -2 -49 -42 -114 -88 l-118 -85 12 -39
c7 -22 28 -88 47 -146 l34 -107 -124 90 -123 90 -120 -86 c-66 -47 -122 -86
-124 -86 -2 0 18 64 44 142 l47 142 -118 86 c-65 47 -119 87 -119 90 0 3 66 5
147 5 l148 0 32 95 c18 52 40 117 49 145 l17 49 34 -109 c19 -61 40 -126 47
-145z m1097 -1060 c4 -3 73 -5 153 -5 80 0 146 -1 146 -1 0 -1 -54 -41 -120
-89 -66 -47 -120 -92 -120 -98 0 -7 19 -71 43 -144 l44 -132 -27 15 c-14 9
-67 47 -118 85 -51 38 -96 69 -100 69 -4 0 -55 -34 -112 -76 -58 -42 -112 -80
-121 -85 -13 -6 -5 26 31 132 38 113 44 143 34 153 -7 7 -58 46 -113 85 -56
40 -103 76 -106 81 -2 4 53 7 123 8 70 0 137 0 149 1 19 1 27 16 57 109 19 59
41 123 47 142 l13 35 44 -140 c24 -77 48 -142 53 -145z"/>
<path d="M3300 6248 c-1 -414 -3 -849 -4 -966 0 -118 2 -218 5 -223 3 -6 566
-12 1410 -15 772 -3 1536 -6 1697 -7 160 -1 292 1 292 6 0 11 -86 181 -133
262 -275 477 -642 860 -1096 1142 -99 62 -283 159 -406 214 -220 99 -557 202
-830 254 -16 3 -41 7 -55 10 -27 5 -93 16 -125 20 -235 33 -338 41 -586 50
l-166 6 -3 -753z"/>
<path d="M3293 4308 c-4 -769 -5 -1730 -1 -1734 4 -3 1438 -11 3235 -17 226 0
305 2 316 12 26 21 57 98 82 204 23 99 26 120 40 237 4 30 8 69 11 85 19 143
26 717 11 935 -5 63 -10 117 -12 120 -1 3 -6 34 -9 70 -11 109 -15 131 -42
240 -27 109 -65 181 -97 186 -9 1 -808 5 -1775 9 l-1757 6 -2 -353z"/>
<path d="M3289 2203 c-2 -19 -12 -2133 -10 -2186 1 -18 11 -18 184 -13 100 4
202 9 227 11 139 13 171 17 237 25 39 5 82 12 95 14 13 3 39 8 58 10 177 26
455 98 651 170 456 165 838 403 1175 732 111 109 178 181 244 263 19 24 47 58
61 75 53 63 181 249 253 370 88 145 266 495 266 522 0 1 -75 3 -167 3 -93 0
-867 3 -1720 7 -854 3 -1553 2 -1554 -3z"/>
</g>
</svg>
