<?xml version="1.0" standalone="no"?>
<!DOCTYPE svg PUBLIC "-//W3C//DTD SVG 20010904//EN"
 "http://www.w3.org/TR/2001/REC-SVG-20010904/DTD/svg10.dtd">
<svg version="1.0" xmlns="http://www.w3.org/2000/svg"
 width="700.000000pt" height="700.000000pt" viewBox="0 0 700.000000 700.000000"
 preserveAspectRatio="xMidYMid meet">
<metadata>
Created by potrace 1.11, written by Peter Selinger 2001-2013
</metadata>
<g transform="translate(0.000000,700.000000) scale(0.100000,-0.100000)"
fill="#000000" stroke="none">
<path d="M3302 6991 c-9 -5 -11 -242 -10 -962 l3 -954 1663 0 c914 0 1662 2
1662 4 0 22 -169 304 -260 433 -180 255 -493 586 -695 734 -22 16 -46 34 -53
41 -20 19 -221 157 -292 200 -350 214 -748 369 -1150 448 -47 10 -94 18 -105
20 -11 1 -38 5 -60 8 -52 7 -140 19 -185 24 -68 8 -507 11 -518 4z"/>
<path d="M2765 6920 c-191 -40 -382 -100 -585 -182 -159 -65 -449 -210 -458
-230 -2 -5 -8 -8 -13 -8 -22 0 -278 -177 -404 -279 -128 -105 -133 -109 -276
-251 -394 -392 -676 -848 -849 -1371 -65 -196 -89 -291 -135 -539 -1 -8 -6
-37 -9 -65 -4 -27 -9 -66 -11 -85 -27 -206 -27 -635 0 -824 3 -17 7 -49 9 -71
10 -83 18 -131 26 -165 5 -19 12 -48 14 -65 9 -49 13 -65 40 -170 25 -100 105
-343 130 -400 8 -16 26 -59 41 -95 125 -301 357 -668 585 -925 70 -79 277
-283 355 -350 334 -286 731 -513 1155 -660 117 -40 386 -111 461 -121 l49 -7
0 3442 0 3441 -22 -1 c-13 -1 -59 -9 -103 -19z m-552 -626 l42 -129 139 -2
c76 -1 140 -3 141 -5 2 -2 -40 -34 -92 -73 -52 -38 -103 -77 -113 -85 -17 -14
-16 -21 25 -145 23 -71 41 -132 39 -134 -1 -1 -38 23 -81 55 -129 95 -141 104
-148 104 -3 0 -55 -36 -115 -80 -60 -44 -111 -80 -113 -80 -4 0 32 119 64 210
l19 55 -22 18 c-37 29 -174 131 -194 144 -21 13 4 15 187 14 l85 0 43 135 c24
74 46 133 48 131 2 -3 23 -62 46 -133z m-1054 -1003 c22 -73 42 -136 46 -139
3 -3 70 -6 150 -6 80 0 145 -1 145 -1 0 -1 -37 -28 -82 -61 -46 -32 -90 -64
-98 -71 -8 -7 -25 -20 -38 -30 l-23 -18 45 -135 c25 -74 44 -135 42 -137 -2
-2 -32 18 -67 44 -35 26 -88 64 -117 84 l-54 38 -91 -68 c-51 -37 -104 -75
-118 -85 l-27 -17 44 136 c24 75 44 138 44 140 0 4 -148 116 -192 145 -20 13
-35 27 -33 30 2 4 64 6 136 6 86 -1 136 3 144 10 6 6 29 75 50 152 22 78 43
136 46 129 4 -7 25 -72 48 -146z m-418 -1486 c40 -126 44 -135 68 -136 14 -1
79 -1 144 -1 64 1 117 -1 117 -3 0 -2 -51 -41 -114 -88 l-114 -83 43 -134 c25
-74 43 -135 42 -136 -1 -2 -54 35 -117 80 l-115 83 -105 -77 c-58 -42 -110
-79 -117 -83 -8 -5 -5 14 7 50 46 137 70 216 68 218 -55 39 -216 160 -222 166
-5 5 37 8 95 8 186 -2 187 -2 194 24 15 52 79 247 81 247 1 0 21 -61 45 -135z
m406 -1544 c2 -3 69 -5 148 -4 168 0 167 10 13 -105 -54 -39 -98 -75 -98 -79
0 -5 16 -57 36 -118 54 -165 55 -168 41 -157 -7 5 -50 37 -97 71 -47 33 -94
68 -105 76 -11 8 -23 15 -26 17 -4 2 -33 -16 -65 -40 -33 -24 -68 -50 -79 -58
-11 -8 -35 -25 -54 -39 -19 -14 -36 -23 -38 -21 -3 2 14 62 36 133 23 71 41
132 41 135 0 4 -52 45 -115 92 -63 48 -115 88 -115 89 0 2 62 3 138 2 75 0
142 3 149 8 6 4 31 69 54 144 l44 136 44 -139 c24 -76 46 -141 48 -143z m1048
-843 c20 -62 41 -125 46 -140 l11 -27 144 -3 145 -3 -117 -84 c-96 -69 -115
-87 -111 -105 2 -11 22 -76 45 -143 l40 -123 -32 22 c-17 12 -35 26 -41 31
-28 22 -164 117 -169 117 -3 0 -56 -37 -116 -81 -61 -45 -113 -80 -115 -77 -2
2 16 64 40 138 25 73 43 135 42 136 -4 4 -205 148 -224 161 -14 9 13 12 133
12 l151 1 44 140 c24 77 45 140 46 140 1 0 18 -51 38 -112z"/>
<path d="M3292 3597 l2 -1032 1791 -1 1791 -1 19 81 c10 44 19 86 21 91 9 41
44 239 49 275 9 70 16 122 21 155 9 56 11 510 3 605 -7 86 -16 173 -24 225 -1
11 -6 43 -10 70 -12 85 -71 334 -106 450 l-34 110 -1763 3 -1763 2 3 -1033z"/>
<path d="M3292 1058 l3 -1053 205 0 c181 0 320 7 429 21 95 12 288 47 381 70
58 14 113 27 123 29 44 10 330 110 417 147 789 334 1430 940 1798 1700 34 70
62 130 62 133 0 3 -770 5 -1710 5 l-1710 0 2 -1052z"/>
</g>
</svg>
